<svg xmlns="http://www.w3.org/2000/svg" xmlns:xlink="http://www.w3.org/1999/xlink" width="96" zoomAndPan="magnify" viewBox="0 0 72 72" height="96" preserveAspectRatio="xMidYMid meet" version="1.0"><defs><clipPath id="id1"><path d="M 0.679688 1.238281 L 70.429688 1.238281 L 70.429688 70.988281 L 0.679688 70.988281 Z M 0.679688 1.238281 " clip-rule="nonzero"/></clipPath><clipPath id="id2"><path d="M 0.679688 1.238281 L 70.429688 1.238281 L 70.429688 67 L 0.679688 67 Z M 0.679688 1.238281 " clip-rule="nonzero"/></clipPath><clipPath id="id3"><path d="M 0.679688 2 L 70.429688 2 L 70.429688 70.988281 L 0.679688 70.988281 Z M 0.679688 2 " clip-rule="nonzero"/></clipPath><clipPath id="id4"><path d="M 0.679688 20 L 70.429688 20 L 70.429688 70.988281 L 0.679688 70.988281 Z M 0.679688 20 " clip-rule="nonzero"/></clipPath><clipPath id="id5"><path d="M 18 55 L 55.324219 55 L 55.324219 56.5 L 18 56.5 Z M 18 55 " clip-rule="nonzero"/></clipPath><clipPath id="id6"><path d="M 15.574219 15 L 48 15 L 48 42 L 15.574219 42 Z M 15.574219 15 " clip-rule="nonzero"/></clipPath><clipPath id="id7"><path d="M 43 12.25 L 51 12.25 L 51 21 L 43 21 Z M 43 12.25 " clip-rule="nonzero"/></clipPath></defs><g clip-path="url(#id1)"><path fill="rgb(11.759949%, 84.309387%, 37.649536%)" d="M 70.429688 36.113281 C 70.429688 37.253906 70.375 38.394531 70.261719 39.53125 C 70.148438 40.667969 69.980469 41.796875 69.757812 42.917969 C 69.535156 44.035156 69.257812 45.144531 68.925781 46.234375 C 68.597656 47.328125 68.210938 48.402344 67.773438 49.457031 C 67.335938 50.515625 66.851562 51.546875 66.3125 52.550781 C 65.773438 53.558594 65.1875 54.539062 64.550781 55.488281 C 63.917969 56.4375 63.238281 57.355469 62.511719 58.238281 C 61.789062 59.121094 61.023438 59.964844 60.214844 60.773438 C 59.40625 61.582031 58.5625 62.347656 57.679688 63.070312 C 56.796875 63.796875 55.878906 64.476562 54.929688 65.109375 C 53.980469 65.746094 53 66.332031 51.996094 66.871094 C 50.988281 67.40625 49.957031 67.894531 48.898438 68.332031 C 47.84375 68.769531 46.769531 69.152344 45.679688 69.484375 C 44.585938 69.816406 43.476562 70.09375 42.359375 70.316406 C 41.238281 70.539062 40.109375 70.707031 38.972656 70.820312 C 37.835938 70.929688 36.695312 70.988281 35.554688 70.988281 C 34.410156 70.988281 33.273438 70.929688 32.136719 70.820312 C 31 70.707031 29.871094 70.539062 28.75 70.316406 C 27.628906 70.09375 26.523438 69.816406 25.429688 69.484375 C 24.335938 69.152344 23.261719 68.769531 22.207031 68.332031 C 21.152344 67.894531 20.121094 67.40625 19.113281 66.871094 C 18.105469 66.332031 17.128906 65.746094 16.179688 65.109375 C 15.230469 64.476562 14.3125 63.796875 13.429688 63.070312 C 12.546875 62.347656 11.703125 61.582031 10.894531 60.773438 C 10.085938 59.964844 9.320312 59.121094 8.59375 58.238281 C 7.871094 57.355469 7.191406 56.4375 6.558594 55.488281 C 5.921875 54.539062 5.335938 53.558594 4.796875 52.550781 C 4.257812 51.546875 3.769531 50.515625 3.332031 49.457031 C 2.898438 48.402344 2.511719 47.328125 2.179688 46.234375 C 1.847656 45.144531 1.570312 44.035156 1.347656 42.917969 C 1.125 41.796875 0.960938 40.667969 0.847656 39.53125 C 0.734375 38.394531 0.679688 37.253906 0.679688 36.113281 C 0.679688 34.96875 0.734375 33.832031 0.847656 32.695312 C 0.960938 31.558594 1.125 30.429688 1.347656 29.308594 C 1.570312 28.1875 1.847656 27.082031 2.179688 25.988281 C 2.511719 24.894531 2.898438 23.820312 3.332031 22.765625 C 3.769531 21.710938 4.257812 20.679688 4.796875 19.671875 C 5.335938 18.664062 5.921875 17.6875 6.558594 16.738281 C 7.191406 15.789062 7.871094 14.871094 8.59375 13.988281 C 9.320312 13.105469 10.085938 12.261719 10.894531 11.453125 C 11.703125 10.644531 12.546875 9.878906 13.429688 9.152344 C 14.3125 8.429688 15.230469 7.75 16.179688 7.113281 C 17.128906 6.480469 18.105469 5.894531 19.113281 5.355469 C 20.121094 4.816406 21.152344 4.328125 22.207031 3.890625 C 23.261719 3.457031 24.335938 3.070312 25.429688 2.738281 C 26.523438 2.40625 27.628906 2.128906 28.75 1.90625 C 29.871094 1.683594 31 1.515625 32.136719 1.40625 C 33.273438 1.292969 34.410156 1.238281 35.554688 1.238281 C 36.695312 1.238281 37.835938 1.292969 38.972656 1.40625 C 40.109375 1.515625 41.238281 1.683594 42.359375 1.90625 C 43.476562 2.128906 44.585938 2.40625 45.679688 2.738281 C 46.769531 3.070312 47.84375 3.457031 48.898438 3.890625 C 49.957031 4.328125 50.988281 4.816406 51.996094 5.355469 C 53 5.894531 53.980469 6.480469 54.929688 7.113281 C 55.878906 7.75 56.796875 8.429688 57.679688 9.152344 C 58.5625 9.878906 59.40625 10.644531 60.214844 11.453125 C 61.023438 12.261719 61.789062 13.105469 62.511719 13.988281 C 63.238281 14.871094 63.917969 15.789062 64.550781 16.738281 C 65.1875 17.6875 65.773438 18.664062 66.3125 19.671875 C 66.851562 20.679688 67.335938 21.710938 67.773438 22.765625 C 68.210938 23.820312 68.597656 24.894531 68.925781 25.988281 C 69.257812 27.082031 69.535156 28.1875 69.757812 29.308594 C 69.980469 30.429688 70.148438 31.558594 70.261719 32.695312 C 70.375 33.832031 70.429688 34.96875 70.429688 36.113281 Z M 70.429688 36.113281 " fill-opacity="1" fill-rule="nonzero"/></g><g clip-path="url(#id2)"><path stroke-linecap="round" transform="matrix(0.181641, 0, 0, 0.181641, -10.945782, -10.387499)" fill="none" stroke-linejoin="miter" d="M 140.991825 194.993532 C 216.002575 174.993533 304.991818 180.004286 378.991815 218.993531 " stroke="rgb(23.139954%, 84.309387%, 37.249756%)" stroke-width="36" stroke-opacity="1" stroke-miterlimit="4"/></g><g clip-path="url(#id3)"><path stroke-linecap="round" transform="matrix(0.181641, 0, 0, 0.181641, -10.945782, -10.387499)" fill="none" stroke-linejoin="miter" d="M 152.002577 256.99353 C 212.991822 240.004283 296.002571 244.004283 354.991816 280.993529 " stroke="rgb(23.139954%, 84.309387%, 37.249756%)" stroke-width="31" stroke-opacity="1" stroke-miterlimit="4"/></g><g clip-path="url(#id4)"><path stroke-linecap="round" transform="matrix(0.181641, 0, 0, 0.181641, -10.945782, -10.387499)" fill="none" stroke-linejoin="miter" d="M 156.002577 314.993527 C 210.002575 302.993528 272.002572 298.004281 334.00257 334.993527 " stroke="rgb(23.139954%, 84.309387%, 37.249756%)" stroke-width="24" stroke-opacity="1" stroke-miterlimit="4"/></g><path fill="rgb(76.469421%, 8.628845%, 14.898682%)" d="M 22.1875 40.320312 L 29.539062 40.320312 L 29.539062 55.839844 L 22.1875 55.839844 Z M 22.1875 40.320312 " fill-opacity="1" fill-rule="nonzero"/><path fill="rgb(76.469421%, 8.628845%, 14.898682%)" d="M 33.214844 33.21875 L 40.570312 33.21875 L 40.570312 55.839844 L 33.214844 55.839844 Z M 33.214844 33.21875 " fill-opacity="1" fill-rule="nonzero"/><path fill="rgb(76.469421%, 8.628845%, 14.898682%)" d="M 44.246094 24.359375 L 51.597656 24.359375 L 51.597656 55.839844 L 44.246094 55.839844 Z M 44.246094 24.359375 " fill-opacity="1" fill-rule="nonzero"/><g clip-path="url(#id5)"><path fill="rgb(0%, 0%, 0%)" d="M 54.617188 56.496094 L 18.707031 56.496094 C 18.347656 56.496094 18.054688 56.203125 18.054688 55.839844 C 18.054688 55.480469 18.347656 55.1875 18.707031 55.1875 L 54.617188 55.1875 C 54.980469 55.1875 55.273438 55.480469 55.273438 55.839844 C 55.273438 56.203125 54.980469 56.496094 54.617188 56.496094 Z M 54.617188 56.496094 " fill-opacity="1" fill-rule="nonzero"/></g><g clip-path="url(#id6)"><path fill="rgb(0%, 0%, 0%)" d="M 16.34375 41.402344 C 16.195312 41.402344 16.046875 41.351562 15.925781 41.246094 C 15.648438 41.015625 15.613281 40.601562 15.847656 40.324219 L 21.164062 34.023438 C 21.371094 33.773438 21.734375 33.714844 22.007812 33.890625 L 24.855469 35.671875 L 32.714844 26.261719 C 32.921875 26.019531 33.269531 25.957031 33.546875 26.117188 L 36.746094 27.988281 L 46.683594 16.15625 C 46.914062 15.878906 47.328125 15.84375 47.605469 16.074219 C 47.878906 16.308594 47.914062 16.722656 47.683594 17 L 37.394531 29.253906 C 37.1875 29.496094 36.839844 29.558594 36.5625 29.398438 L 33.363281 27.527344 L 25.492188 36.949219 C 25.28125 37.199219 24.921875 37.257812 24.644531 37.082031 L 21.796875 35.300781 L 16.84375 41.171875 C 16.714844 41.324219 16.53125 41.402344 16.34375 41.402344 Z M 16.34375 41.402344 " fill-opacity="1" fill-rule="nonzero"/></g><g clip-path="url(#id7)"><path fill="rgb(0%, 0%, 0%)" d="M 50.964844 12.25 L 48.273438 20.621094 L 46.976562 17 L 43.195312 16.339844 Z M 50.964844 12.25 " fill-opacity="1" fill-rule="nonzero"/></g></svg>