<svg id="visual" viewBox="0 0 540 960" width="540" height="960" xmlns="http://www.w3.org/2000/svg" xmlns:xlink="http://www.w3.org/1999/xlink" version="1.1"><rect x="0" y="0" width="540" height="960" fill="#ffffff"></rect><path d="M0 686L12.8 691.8C25.7 697.7 51.3 709.3 77 710.5C102.7 711.7 128.3 702.3 154 694C179.7 685.7 205.3 678.3 231.2 687.2C257 696 283 721 308.8 715.3C334.7 709.7 360.3 673.3 386 673.3C411.7 673.3 437.3 709.7 463 723.2C488.7 736.7 514.3 727.3 527.2 722.7L540 718L540 961L527.2 961C514.3 961 488.7 961 463 961C437.3 961 411.7 961 386 961C360.3 961 334.7 961 308.8 961C283 961 257 961 231.2 961C205.3 961 179.7 961 154 961C128.3 961 102.7 961 77 961C51.3 961 25.7 961 12.8 961L0 961Z" fill="#c31626"></path><path d="M0 727L12.8 716C25.7 705 51.3 683 77 688C102.7 693 128.3 725 154 745.2C179.7 765.3 205.3 773.7 231.2 770.5C257 767.3 283 752.7 308.8 739.7C334.7 726.7 360.3 715.3 386 721.2C411.7 727 437.3 750 463 743.3C488.7 736.7 514.3 700.3 527.2 682.2L540 664L540 961L527.2 961C514.3 961 488.7 961 463 961C437.3 961 411.7 961 386 961C360.3 961 334.7 961 308.8 961C283 961 257 961 231.2 961C205.3 961 179.7 961 154 961C128.3 961 102.7 961 77 961C51.3 961 25.7 961 12.8 961L0 961Z" fill="#b31529"></path><path d="M0 755L12.8 744.2C25.7 733.3 51.3 711.7 77 701.8C102.7 692 128.3 694 154 709.3C179.7 724.7 205.3 753.3 231.2 770C257 786.7 283 791.3 308.8 778.3C334.7 765.3 360.3 734.7 386 728C411.7 721.3 437.3 738.7 463 738.7C488.7 738.7 514.3 721.3 527.2 712.7L540 704L540 961L527.2 961C514.3 961 488.7 961 463 961C437.3 961 411.7 961 386 961C360.3 961 334.7 961 308.8 961C283 961 257 961 231.2 961C205.3 961 179.7 961 154 961C128.3 961 102.7 961 77 961C51.3 961 25.7 961 12.8 961L0 961Z" fill="#a2162b"></path><path d="M0 792L12.8 785.3C25.7 778.7 51.3 765.3 77 766C102.7 766.7 128.3 781.3 154 783.2C179.7 785 205.3 774 231.2 771.8C257 769.7 283 776.3 308.8 770C334.7 763.7 360.3 744.3 386 738C411.7 731.7 437.3 738.3 463 750.8C488.7 763.3 514.3 781.7 527.2 790.8L540 800L540 961L527.2 961C514.3 961 488.7 961 463 961C437.3 961 411.7 961 386 961C360.3 961 334.7 961 308.8 961C283 961 257 961 231.2 961C205.3 961 179.7 961 154 961C128.3 961 102.7 961 77 961C51.3 961 25.7 961 12.8 961L0 961Z" fill="#91182c"></path><path d="M0 768L12.8 774.3C25.7 780.7 51.3 793.3 77 791.8C102.7 790.3 128.3 774.7 154 770.3C179.7 766 205.3 773 231.2 783.7C257 794.3 283 808.7 308.8 811.5C334.7 814.3 360.3 805.7 386 796.5C411.7 787.3 437.3 777.7 463 779C488.7 780.3 514.3 792.7 527.2 798.8L540 805L540 961L527.2 961C514.3 961 488.7 961 463 961C437.3 961 411.7 961 386 961C360.3 961 334.7 961 308.8 961C283 961 257 961 231.2 961C205.3 961 179.7 961 154 961C128.3 961 102.7 961 77 961C51.3 961 25.7 961 12.8 961L0 961Z" fill="#80192c"></path><path d="M0 828L12.8 835.3C25.7 842.7 51.3 857.3 77 855.5C102.7 853.7 128.3 835.3 154 827.7C179.7 820 205.3 823 231.2 822.7C257 822.3 283 818.7 308.8 825.2C334.7 831.7 360.3 848.3 386 849.8C411.7 851.3 437.3 837.7 463 838.7C488.7 839.7 514.3 855.3 527.2 863.2L540 871L540 961L527.2 961C514.3 961 488.7 961 463 961C437.3 961 411.7 961 386 961C360.3 961 334.7 961 308.8 961C283 961 257 961 231.2 961C205.3 961 179.7 961 154 961C128.3 961 102.7 961 77 961C51.3 961 25.7 961 12.8 961L0 961Z" fill="#6f1a2b"></path><path d="M0 896L12.8 893.3C25.7 890.7 51.3 885.3 77 884.7C102.7 884 128.3 888 154 883.2C179.7 878.3 205.3 864.7 231.2 854.5C257 844.3 283 837.7 308.8 844.2C334.7 850.7 360.3 870.3 386 872.5C411.7 874.7 437.3 859.3 463 856.3C488.7 853.3 514.3 862.7 527.2 867.3L540 872L540 961L527.2 961C514.3 961 488.7 961 463 961C437.3 961 411.7 961 386 961C360.3 961 334.7 961 308.8 961C283 961 257 961 231.2 961C205.3 961 179.7 961 154 961C128.3 961 102.7 961 77 961C51.3 961 25.7 961 12.8 961L0 961Z" fill="#5f1a28"></path><path d="M0 899L12.8 896C25.7 893 51.3 887 77 884.8C102.7 882.7 128.3 884.3 154 882.8C179.7 881.3 205.3 876.7 231.2 881.5C257 886.3 283 900.7 308.8 902.8C334.7 905 360.3 895 386 888C411.7 881 437.3 877 463 879C488.7 881 514.3 889 527.2 893L540 897L540 961L527.2 961C514.3 961 488.7 961 463 961C437.3 961 411.7 961 386 961C360.3 961 334.7 961 308.8 961C283 961 257 961 231.2 961C205.3 961 179.7 961 154 961C128.3 961 102.7 961 77 961C51.3 961 25.7 961 12.8 961L0 961Z" fill="#4e1a25"></path><path d="M0 929L12.8 927.2C25.7 925.3 51.3 921.7 77 919.3C102.7 917 128.3 916 154 916.3C179.7 916.7 205.3 918.3 231.2 921.8C257 925.3 283 930.7 308.8 931.3C334.7 932 360.3 928 386 922.5C411.7 917 437.3 910 463 911C488.7 912 514.3 921 527.2 925.5L540 930L540 961L527.2 961C514.3 961 488.7 961 463 961C437.3 961 411.7 961 386 961C360.3 961 334.7 961 308.8 961C283 961 257 961 231.2 961C205.3 961 179.7 961 154 961C128.3 961 102.7 961 77 961C51.3 961 25.7 961 12.8 961L0 961Z" fill="#3e1921"></path></svg>