<svg id="visual" viewBox="0 0 540 960" width="540" height="960" xmlns="http://www.w3.org/2000/svg" xmlns:xlink="http://www.w3.org/1999/xlink" version="1.1"><rect x="0" y="0" width="540" height="960" fill="#ffffff"></rect><defs><linearGradient id="grad1_0" x1="0%" y1="0%" x2="100%" y2="100%"><stop offset="30%" stop-color="#c31626" stop-opacity="1"></stop><stop offset="70%" stop-color="#c31626" stop-opacity="1"></stop></linearGradient></defs><defs><linearGradient id="grad1_1" x1="0%" y1="0%" x2="100%" y2="100%"><stop offset="30%" stop-color="#c31626" stop-opacity="1"></stop><stop offset="70%" stop-color="#d7554d" stop-opacity="1"></stop></linearGradient></defs><defs><linearGradient id="grad1_2" x1="0%" y1="0%" x2="100%" y2="100%"><stop offset="30%" stop-color="#e78176" stop-opacity="1"></stop><stop offset="70%" stop-color="#d7554d" stop-opacity="1"></stop></linearGradient></defs><defs><linearGradient id="grad1_3" x1="0%" y1="0%" x2="100%" y2="100%"><stop offset="30%" stop-color="#e78176" stop-opacity="1"></stop><stop offset="70%" stop-color="#f4aba2" stop-opacity="1"></stop></linearGradient></defs><defs><linearGradient id="grad1_4" x1="0%" y1="0%" x2="100%" y2="100%"><stop offset="30%" stop-color="#fcd5cf" stop-opacity="1"></stop><stop offset="70%" stop-color="#f4aba2" stop-opacity="1"></stop></linearGradient></defs><defs><linearGradient id="grad1_5" x1="0%" y1="0%" x2="100%" y2="100%"><stop offset="30%" stop-color="#fcd5cf" stop-opacity="1"></stop><stop offset="70%" stop-color="#ffffff" stop-opacity="1"></stop></linearGradient></defs><defs><linearGradient id="grad2_0" x1="0%" y1="0%" x2="100%" y2="100%"><stop offset="30%" stop-color="#c31626" stop-opacity="1"></stop><stop offset="70%" stop-color="#c31626" stop-opacity="1"></stop></linearGradient></defs><defs><linearGradient id="grad2_1" x1="0%" y1="0%" x2="100%" y2="100%"><stop offset="30%" stop-color="#d7554d" stop-opacity="1"></stop><stop offset="70%" stop-color="#c31626" stop-opacity="1"></stop></linearGradient></defs><defs><linearGradient id="grad2_2" x1="0%" y1="0%" x2="100%" y2="100%"><stop offset="30%" stop-color="#d7554d" stop-opacity="1"></stop><stop offset="70%" stop-color="#e78176" stop-opacity="1"></stop></linearGradient></defs><defs><linearGradient id="grad2_3" x1="0%" y1="0%" x2="100%" y2="100%"><stop offset="30%" stop-color="#f4aba2" stop-opacity="1"></stop><stop offset="70%" stop-color="#e78176" stop-opacity="1"></stop></linearGradient></defs><defs><linearGradient id="grad2_4" x1="0%" y1="0%" x2="100%" y2="100%"><stop offset="30%" stop-color="#f4aba2" stop-opacity="1"></stop><stop offset="70%" stop-color="#fcd5cf" stop-opacity="1"></stop></linearGradient></defs><defs><linearGradient id="grad2_5" x1="0%" y1="0%" x2="100%" y2="100%"><stop offset="30%" stop-color="#ffffff" stop-opacity="1"></stop><stop offset="70%" stop-color="#fcd5cf" stop-opacity="1"></stop></linearGradient></defs><g transform="translate(540, 0)"><path d="M0 297C-19.5 290 -39 283.1 -53.3 267.8C-67.5 252.4 -76.6 228.7 -91.8 221.7C-107.1 214.8 -128.7 224.6 -151.1 226.2C-173.6 227.7 -196.9 221 -202.9 202.9C-209 184.8 -197.7 155.3 -210.4 140.6C-223.1 125.8 -259.8 125.9 -274.4 113.7C-289 101.4 -281.4 77 -281.5 56C-281.6 35 -289.3 17.5 -297 0L0 0Z" fill="#feeae7"></path><path d="M0 247.5C-16.2 241.7 -32.5 235.9 -44.4 223.1C-56.3 210.3 -63.8 190.6 -76.5 184.8C-89.3 179 -107.2 187.2 -125.9 188.5C-144.6 189.8 -164.1 184.2 -169.1 169.1C-174.1 154 -164.7 129.4 -175.3 117.1C-185.9 104.8 -216.5 104.9 -228.7 94.7C-240.8 84.5 -234.5 64.1 -234.6 46.7C-234.6 29.2 -241.1 14.6 -247.5 0L0 0Z" fill="#f8c0b8"></path><path d="M0 198C-13 193.4 -26 188.7 -35.5 178.5C-45 168.3 -51 152.5 -61.2 147.8C-71.4 143.2 -85.8 149.7 -100.7 150.8C-115.7 151.8 -131.3 147.4 -135.3 135.3C-139.3 123.2 -131.8 103.5 -140.2 93.7C-148.7 83.9 -173.2 83.9 -182.9 75.8C-192.7 67.6 -187.6 51.3 -187.7 37.3C-187.7 23.3 -192.9 11.7 -198 0L0 0Z" fill="#ee968b"></path><path d="M0 148.5C-9.7 145 -19.5 141.5 -26.6 133.9C-33.8 126.2 -38.3 114.3 -45.9 110.9C-53.6 107.4 -64.3 112.3 -75.6 113.1C-86.8 113.9 -98.5 110.5 -101.5 101.5C-104.5 92.4 -98.8 77.7 -105.2 70.3C-111.5 62.9 -129.9 62.9 -137.2 56.8C-144.5 50.7 -140.7 38.5 -140.7 28C-140.8 17.5 -144.6 8.8 -148.5 0L0 0Z" fill="#e06b61"></path><path d="M0 99C-6.5 96.7 -13 94.4 -17.8 89.3C-22.5 84.1 -25.5 76.2 -30.6 73.9C-35.7 71.6 -42.9 74.9 -50.4 75.4C-57.9 75.9 -65.6 73.7 -67.6 67.6C-69.7 61.6 -65.9 51.8 -70.1 46.9C-74.4 41.9 -86.6 42 -91.5 37.9C-96.3 33.8 -93.8 25.7 -93.8 18.7C-93.9 11.7 -96.4 5.8 -99 0L0 0Z" fill="#cd3b39"></path><path d="M0 49.5C-3.2 48.3 -6.5 47.2 -8.9 44.6C-11.3 42.1 -12.8 38.1 -15.3 37C-17.9 35.8 -21.4 37.4 -25.2 37.7C-28.9 38 -32.8 36.8 -33.8 33.8C-34.8 30.8 -32.9 25.9 -35.1 23.4C-37.2 21 -43.3 21 -45.7 18.9C-48.2 16.9 -46.9 12.8 -46.9 9.3C-46.9 5.8 -48.2 2.9 -49.5 0L0 0Z" fill="#c31626"></path></g><g transform="translate(0, 960)"><path d="M0 -297C16.1 -276.5 32.1 -255.9 49.4 -248.1C66.6 -240.3 85.1 -245.2 99.1 -239.3C113.2 -233.3 122.8 -216.5 139.4 -208.7C156.1 -200.9 179.7 -202.1 190.2 -190.2C200.7 -178.3 198.2 -153.2 204.5 -136.7C210.9 -120.2 226.1 -112.2 243.9 -101C261.7 -89.8 282 -75.3 291.3 -57.9C300.6 -40.6 298.8 -20.3 297 0L0 0Z" fill="#feeae7"></path><path d="M0 -247.5C13.4 -230.4 26.8 -213.3 41.1 -206.8C55.5 -200.3 70.9 -204.4 82.6 -199.4C94.3 -194.4 102.3 -180.4 116.2 -173.9C130.1 -167.4 149.7 -168.5 158.5 -158.5C167.3 -148.6 165.2 -127.7 170.5 -113.9C175.7 -100.1 188.4 -93.5 203.3 -84.2C218.1 -74.9 235 -62.8 242.7 -48.3C250.5 -33.8 249 -16.9 247.5 0L0 0Z" fill="#f8c0b8"></path><path d="M0 -198C10.7 -184.3 21.4 -170.6 32.9 -165.4C44.4 -160.2 56.7 -163.5 66.1 -159.5C75.4 -155.6 81.9 -144.3 93 -139.1C104.1 -133.9 119.8 -134.8 126.8 -126.8C133.8 -118.9 132.1 -102.1 136.4 -91.1C140.6 -80.1 150.7 -74.8 162.6 -67.4C174.5 -59.9 188 -50.2 194.2 -38.6C200.4 -27 199.2 -13.5 198 0L0 0Z" fill="#ee968b"></path><path d="M0 -148.5C8 -138.2 16.1 -128 24.7 -124.1C33.3 -120.2 42.5 -122.6 49.6 -119.6C56.6 -116.7 61.4 -108.2 69.7 -104.3C78 -100.5 89.8 -101.1 95.1 -95.1C100.4 -89.1 99.1 -76.6 102.3 -68.3C105.4 -60.1 113.1 -56.1 122 -50.5C130.8 -44.9 141 -37.7 145.6 -29C150.3 -20.3 149.4 -10.1 148.5 0L0 0Z" fill="#e06b61"></path><path d="M0 -99C5.4 -92.2 10.7 -85.3 16.5 -82.7C22.2 -80.1 28.4 -81.7 33 -79.8C37.7 -77.8 40.9 -72.2 46.5 -69.6C52 -67 59.9 -67.4 63.4 -63.4C66.9 -59.4 66.1 -51.1 68.2 -45.6C70.3 -40.1 75.4 -37.4 81.3 -33.7C87.2 -29.9 94 -25.1 97.1 -19.3C100.2 -13.5 99.6 -6.8 99 0L0 0Z" fill="#cd3b39"></path><path d="M0 -49.5C2.7 -46.1 5.4 -42.7 8.2 -41.4C11.1 -40.1 14.2 -40.9 16.5 -39.9C18.9 -38.9 20.5 -36.1 23.2 -34.8C26 -33.5 29.9 -33.7 31.7 -31.7C33.5 -29.7 33 -25.5 34.1 -22.8C35.1 -20 37.7 -18.7 40.7 -16.8C43.6 -15 47 -12.6 48.5 -9.7C50.1 -6.8 49.8 -3.4 49.5 0L0 0Z" fill="#c31626"></path></g></svg>