<svg width="756" height="780" viewBox="0 0 756 780" fill="none" xmlns="http://www.w3.org/2000/svg">
<path d="M46 696.6H392.7" stroke="#1C2628" stroke-width="2.13" stroke-linecap="round" stroke-linejoin="round"/>
<path d="M602 464C600.7 473.7 614 488.9 592.3 508.5C586.7 513.6 588.6 523.2 587.3 530.7C583.8 550.2 577 569.1 567.3 586.4" stroke="#1C2628" stroke-width="2.13" stroke-linecap="round" stroke-linejoin="round"/>
<path d="M608.8 450.5C611.6 453.1 614.5 455.9 615.3 459.5C616.5 465.1 612.1 470.8 606.7 472.9C601.3 475 595.3 474.3 589.6 473.4C573 470.8 556.7 466.4 541 460.3C546 458.2 550.5 454.8 554 450.6C555.5 448.8 556.8 446.3 555.6 444.3C554.4 442.2 551.1 442.3 549.2 443.8C547.3 445.3 546.4 447.7 545.6 450C544.8 452.3 543.7 454.7 541.7 456C538 458.3 533.2 456 529.5 453.7C524.9 450.8 520.3 448 515.7 445.1C522.3 438.3 529.1 431.2 537.9 427.8C544.1 425.4 551.3 424.7 556 420.1C557.9 418.3 559.3 415.9 561.8 414.9C565 413.7 568.6 415.5 570.8 418.1C573 420.6 574.4 423.8 576.4 426.6C578.4 429.3 581.4 431.8 584.8 431.5C588.9 431.2 591.8 426.7 591.3 422.6C590.8 418.5 587.6 415.2 583.8 413.5C580.1 411.8 575.8 411.6 571.7 411.7C577 410.1 580.9 405.7 585.2 402.3C589.5 398.9 595.5 396.2 600.4 398.8C604.5 400.9 606.3 405.9 605.9 410.4C605.5 414.9 603.4 419.1 601.4 423.2C599.6 426.6 593.7 434.4 595.2 438.1C596.1 440.2 600.2 442.7 601.9 444.3C604.3 446.3 606.5 448.5 608.8 450.5Z" fill="#1ED760"/>
<path d="M682.1 521.3C676.1 534.4 670 547.6 661 558.8C652 570 639.7 579.2 625.5 581.5C615.7 583.1 605.7 581.3 595.9 582.2C586.1 583.1 575.4 587.6 572 596.9" stroke="#1C2628" stroke-width="2.13" stroke-linecap="round" stroke-linejoin="round"/>
<path d="M570 602.5C591 594.2 614.6 601.2 636.2 607.7C657.8 614.2 682.1 620 702.2 609.6C706.8 607.2 711 604.1 715.7 602C720.5 600 726.1 599.2 730.7 601.6" stroke="#1C2628" stroke-width="2.13" stroke-linecap="round" stroke-linejoin="round"/>
<path d="M570.6 610.6C580.2 607.5 586.7 596.7 584.9 586.8C584.3 583.6 583 580.6 582.5 577.5C581.2 570.2 583.7 562.9 584.5 555.6C585.3 548.3 583.3 539.5 576.6 536.5" stroke="#1C2628" stroke-width="2.13" stroke-linecap="round" stroke-linejoin="round"/>
<path d="M588.3 528.5C588.5 525.4 586.7 522.4 584.3 520.5C580.7 517.7 575.9 516.8 571.4 517.3C566.9 517.8 562.6 519.6 558.5 521.5C555.6 522.9 552.4 525 552.5 528.2C552.6 530.7 554.8 532.5 556.8 534C561 537.1 565.2 540.2 569.4 543.3C571.6 545 574.3 546.7 577 546C582.1 544.7 580.2 539.6 582.1 536.3C583.8 533.1 588 532.9 588.3 528.5Z" fill="#1ED760"/>
<path d="M669.5 494C666.5 497.2 661.2 496.8 657.2 495.1C653.2 493.4 649.6 490.6 645.3 489.5C637.1 487.4 627.6 493.3 626 501.6C630.4 503.3 634.8 505 639.2 506.7C628.8 502.8 615.8 511.4 615.3 522.5C648 536.6 685 541.8 719.6 533.6C717.8 530.3 716 527.1 714.2 523.8C713 521.6 711.8 519.4 711.7 516.9C711.4 511.1 719 506.7 724 509.8C728.9 512.9 728.2 521.6 722.9 523.9C724.3 528.4 730.5 530 734.6 527.6C738.6 525.2 740.4 520.1 740 515.4C739 502.2 727.7 499.1 719.8 491.1C713.6 484.8 717.1 473.2 711.4 465.2C706 457.7 696.9 453 687.6 453.2C671.3 453.4 658.6 467 648.1 479.4C653.8 478.3 660 477.2 665.2 479.7C670.3 482.2 673.5 489.8 669.5 494ZM668.1 516.5C670.6 515.6 673.2 514.7 675.9 514.5C678.6 514.3 681.4 514.9 683.5 516.6C685.5 518.4 686.5 521.5 685.3 523.9C683.8 526.9 680 527.7 676.6 527.5C670.8 527.1 656 520.8 668.1 516.5Z" fill="#1ED760"/>
<path d="M675.9 514.5C678.6 514.3 681.4 514.9 683.5 516.6C685.5 518.4 686.5 521.5 685.3 523.9C683.8 526.9 680 527.7 676.6 527.5C670.8 527.1 656 520.9 668.1 516.5C670.6 515.6 673.2 514.7 675.9 514.5Z" fill="#FAF6EB"/>
<path d="M709.9 595.8C697.8 609.8 685.8 623.9 673.7 637.9C679.5 634.8 686.6 634.1 693 636.1C695.2 636.8 697.3 637.8 699.6 637.8C703.2 637.8 706.3 635.5 708.7 632.8C711.1 630.1 713.1 627.1 715.9 624.9C718.7 622.7 722.8 621.6 725.9 623.4C723.4 629.6 718.9 635 713.2 638.6C728 638.5 742.7 632 752.9 621.2C754.5 619.5 756 617.1 754.9 615.2C754.3 614.1 753 613.5 751.8 613C748.7 611.8 738.1 609.4 737.3 605.9C736.9 604.1 738.8 601.3 739 599.3C739.2 596.9 738.8 594.4 737.6 592.2C735.1 587.5 729.5 584.7 724.2 585.6C718.2 586.4 713.8 591.3 709.9 595.8ZM707 603.3C708.2 602.5 709.9 602.5 710.9 603.5C712.2 604.7 711.8 610 711.2 611.7C710.1 614.5 704.9 617.7 704.6 611C704.5 609.6 704.5 608.2 704.8 606.8C705.1 605.4 705.8 604.1 707 603.3Z" fill="#1ED760"/>
<path d="M710.9 603.5C712.2 604.7 711.8 610 711.2 611.7C710.1 614.5 704.9 617.7 704.6 611C704.5 609.6 704.5 608.2 704.8 606.8C705.1 605.4 705.8 604.1 707 603.3C708.2 602.6 709.9 602.5 710.9 603.5Z" fill="#FAF6EB"/>
<path d="M736.5 606.1C729.9 611.9 723 617.9 714.7 620.7C710.4 622.2 705.9 622.7 701.5 624C691.8 626.8 683.4 632.7 675.2 638.6" stroke="#1C2628" stroke-width="2.13" stroke-linecap="round" stroke-linejoin="round"/>
<path d="M717.5 488.1C700.2 488.3 683.1 496.9 667.5 504.3C657.4 509.1 647.9 515.3 637.3 518.7C630 521 622.3 521.9 614.7 521.4" stroke="#1C2628" stroke-width="2.13" stroke-linecap="round" stroke-linejoin="round"/>
<path d="M594.5 437C588.9 440.8 581.6 441.9 575.1 440C571.6 439 568.4 437.2 564.9 436C557.3 433.5 548.8 434.3 541.2 436.9C533.6 439.5 526.6 443.6 519.7 447.8" stroke="#1C2628" stroke-width="2.13" stroke-linecap="round" stroke-linejoin="round"/>
<path d="M552.5 526.5C557 528.2 561.7 529.3 566.5 529.6C568.5 529.8 570.6 529.8 572.6 530.4C575.7 531.4 578.2 533.7 580.5 536" stroke="#1C2628" stroke-width="2.13" stroke-linecap="round" stroke-linejoin="round"/>
<path d="M534.4 62.7C573.8 95.9 604.6 134.6 630 179.2C655.3 223.7 675.6 274.1 655 308.7C634.8 343.3 574.2 362.1 534.1 387.5C494.4 412.5 475.2 444.4 447.8 455C420.7 465.6 385.8 455.7 338.9 455.7C292.3 455.7 233.7 465.6 209.4 442.7C185.1 420.1 194.3 364.9 191.9 314.6C189.2 263.9 174.1 218 182.3 175.2C190.2 132.4 220.7 92.3 260.7 59.1C300.4 26.2 349.8 -0.200005 398.1 0.499995C446.7 1.39999 495 29.2 534.4 62.7Z" fill="#C31626"/>
<path fill-rule="evenodd" clip-rule="evenodd" d="M473 182.4C475.3 186.5 481.3 189.3 482.3 193.9C483.5 199.6 481.7 206.7 486.6 211.4C487.2 212 488.3 212.6 489.1 212.2C500.3 207.5 497.6 176.4 481.7 174.2" fill="#F45B49"/>
<path d="M473 182.4C475.3 186.5 481.3 189.3 482.3 193.9C483.5 199.6 481.7 206.7 486.6 211.4C487.2 212 488.3 212.6 489.1 212.2C500.3 207.5 497.6 176.4 481.7 174.2" stroke="#1C2628" stroke-width="2.13" stroke-linecap="round" stroke-linejoin="round"/>
<path fill-rule="evenodd" clip-rule="evenodd" d="M81.1 337.4C85.7 336.2 91.8 338.5 95.8 336.1C100.7 333.1 104.7 326.8 111.4 327C112.3 327 113.4 327.4 113.7 328.2C118.1 339.5 93.8 359.1 81.2 349.2" fill="#F45B49"/>
<path d="M81.1 337.4C85.7 336.2 91.8 338.5 95.8 336.1C100.7 333.1 104.7 326.8 111.4 327C112.3 327 113.4 327.4 113.7 328.2C118.1 339.5 93.8 359.1 81.2 349.2" stroke="#1C2628" stroke-width="2.13" stroke-linecap="round" stroke-linejoin="round"/>
<path fill-rule="evenodd" clip-rule="evenodd" d="M209.2 629.4C209.2 629.4 189.8 695.1 194.1 706.2C196.8 713.2 236 704.3 236 704.3C236 704.3 303.1 710.8 316.9 709.4C316.9 709.4 318.3 703.8 301.3 694.8C284.4 685.8 256.8 676.8 256.8 676.8L263.7 627.4L209.2 629.4Z" fill="#F45B49" stroke="#1C2628" stroke-width="2.13" stroke-linecap="round" stroke-linejoin="round"/>
<path fill-rule="evenodd" clip-rule="evenodd" d="M243.3 659.7L215 678.9L194.4 675.6L190.9 716.6L284.2 718.6L332.1 719.7C332.1 719.7 337.5 687.5 303.4 686.7C296.4 686.6 243.3 659.7 243.3 659.7Z" fill="#F45B49" stroke="#1C2628" stroke-width="2.13" stroke-linecap="round" stroke-linejoin="round"/>
<path d="M243.3 659.7L215 678.9L194.4 675.6L190.9 716.6L284.2 718.6L332.1 719.7C332.1 719.7 337.5 687.5 303.4 686.7C296.4 686.6 243.3 659.7 243.3 659.7Z" fill="#F45B49"/>
<path fill-rule="evenodd" clip-rule="evenodd" d="M270.4 727.3C277.8 721.5 298.7 700.7 298.7 700.7L302 676.7C302 676.7 354.9 700.8 338.4 721.9C328.8 734.2 310 734.7 296.3 736.3C287.8 737.3 281.3 735.4 274 731.6" fill="#F45B49"/>
<path d="M270.4 727.3C277.8 721.5 298.7 700.7 298.7 700.7L302 676.7C302 676.7 354.9 700.8 338.4 721.9C328.8 734.2 310 734.7 296.3 736.3C287.8 737.3 281.3 735.4 274 731.6" stroke="#1C2628" stroke-width="2.13" stroke-linecap="round" stroke-linejoin="round"/>
<path d="M243.3 659.7L215 678.9L194.4 675.6L190.9 716.6L284.2 718.6L332.1 719.7C332.1 719.7 337.5 687.5 303.4 686.7C296.4 686.6 243.3 659.7 243.3 659.7Z" stroke="#1C2628" stroke-width="2.13" stroke-linecap="round" stroke-linejoin="round"/>
<path d="M243.3 659.7L215 678.9L194.4 675.6L190.9 716.6L284.2 718.6L332.1 719.7C332.1 719.7 337.5 687.5 303.4 686.7C296.4 686.6 243.3 659.7 243.3 659.7Z" fill="#F45B49" stroke="#1C2628" stroke-width="2.13" stroke-linecap="round" stroke-linejoin="round"/>
<path fill-rule="evenodd" clip-rule="evenodd" d="M243.3 659.7L215 678.9L194.4 675.6L190.9 716.6L284.2 718.6L332.1 719.7C332.1 719.7 337.5 687.5 303.4 686.7C296.4 686.6 243.3 659.7 243.3 659.7Z" fill="#F45B49" stroke="#1C2628" stroke-width="2.13" stroke-linecap="round" stroke-linejoin="round"/>
<path d="M243.3 659.7L215 678.9L194.4 675.6L190.9 716.6L284.2 718.6L332.1 719.7C332.1 719.7 337.5 687.5 303.4 686.7C296.4 686.6 243.3 659.7 243.3 659.7Z" fill="#F45B49"/>
<path fill-rule="evenodd" clip-rule="evenodd" d="M270.4 727.3C277.8 721.5 298.7 700.7 298.7 700.7L302 676.7C302 676.7 354.9 700.8 338.4 721.9C328.8 734.2 310 734.7 296.3 736.3C287.8 737.3 281.3 735.4 274 731.6" fill="#F45B49"/>
<path d="M270.4 727.3C277.8 721.5 298.7 700.7 298.7 700.7L302 676.7C302 676.7 354.9 700.8 338.4 721.9C328.8 734.2 310 734.7 296.3 736.3C287.8 737.3 281.3 735.4 274 731.6" stroke="#1C2628" stroke-width="2.13" stroke-linecap="round" stroke-linejoin="round"/>
<path d="M243.3 659.7L215 678.9L194.4 675.6L190.9 716.6L284.2 718.6L332.1 719.7C332.1 719.7 337.5 687.5 303.4 686.7C296.4 686.6 243.3 659.7 243.3 659.7Z" stroke="#1C2628" stroke-width="2.13" stroke-linecap="round" stroke-linejoin="round"/>
<path d="M243.3 659.7L215 678.9L194.4 675.6L190.9 716.6L284.2 718.6L332.1 719.7C332.1 719.7 337.5 687.5 303.4 686.7C296.4 686.6 243.3 659.7 243.3 659.7Z" fill="#1C2628" stroke="#1C2628" stroke-width="2.13" stroke-linecap="round" stroke-linejoin="round"/>
<path d="M274.3 676L271.8 686.7" stroke="#FFFDFD" stroke-width="2.13" stroke-linecap="round" stroke-linejoin="round"/>
<path d="M282.9 680.1L281.3 689.8" stroke="#FFFDFD" stroke-width="2.13" stroke-linecap="round" stroke-linejoin="round"/>
<path d="M291.8 684.5L290.6 692.3" stroke="#FFFDFD" stroke-width="2.13" stroke-linecap="round" stroke-linejoin="round"/>
<path fill-rule="evenodd" clip-rule="evenodd" d="M191.3 708.9L194 663C194 663 234.6 658.7 249.9 656.5C258.7 655.3 264.4 665.1 256.3 672.4C250.5 677.7 233.9 684.6 233.9 684.6L229.4 710.1L191.3 708.9Z" fill="#F45B49" stroke="#1C2628" stroke-width="2.13" stroke-linecap="round" stroke-linejoin="round"/>
<path fill-rule="evenodd" clip-rule="evenodd" d="M246.5 665.6C246.6 663.5 248.4 661.8 250.4 661.9C252.4 661.9 253.9 663.7 253.8 665.7C253.7 667.8 251.9 669.5 249.9 669.4C247.8 669.4 246.3 667.7 246.5 665.6Z" fill="#F45B49" stroke="#1C2628" stroke-width="2.13" stroke-linecap="round" stroke-linejoin="round"/>
<path fill-rule="evenodd" clip-rule="evenodd" d="M190.6 705.5L230.2 706.2L233.7 711.7L333.7 712.9L332.9 724.2L189.3 721.7L190.6 705.5Z" fill="#F45B49" stroke="#1C2628" stroke-width="2.13" stroke-linecap="round" stroke-linejoin="round"/>
<path fill-rule="evenodd" clip-rule="evenodd" d="M211.5 235.7C248.4 299.2 285.3 363.4 310.7 432.3C313.9 441 315.5 450.8 314.1 459.9C303.8 525.8 288.5 590.8 275.7 656.3C221 659 221 659 166.4 661.7C181 599.8 208.1 539.6 210.1 476C211.4 433.8 184.6 395.3 176.1 354C171.5 331.5 169.7 308.3 170.9 285.3C171.5 274 174.5 262 181.6 253.3C188.9 244.3 201.5 241.5 211.5 235.7Z" fill="#1C2628" stroke="#1C2628" stroke-width="2.13" stroke-linecap="round" stroke-linejoin="round"/>
<path fill-rule="evenodd" clip-rule="evenodd" d="M191.7 97.8L188 123.6L171.5 136.9C171.5 136.9 137.8 298.6 148.3 304.8C154.1 308.3 249 330 258.2 327.2C266.9 324.5 234 156.8 238.3 155.8C246.2 153.8 233.6 134.1 233.6 134.1L232.7 107.1L233.4 95.3L191.7 97.8Z" fill="#F45B49" stroke="#1C2628" stroke-width="2.13" stroke-linecap="round" stroke-linejoin="round"/>
<path fill-rule="evenodd" clip-rule="evenodd" d="M265.9 183.8L268.4 224.9L151.3 225.5L138.2 177L265.9 183.8Z" fill="#1C2628" stroke="#1C2628" stroke-width="2.13" stroke-linecap="round" stroke-linejoin="round"/>
<path fill-rule="evenodd" clip-rule="evenodd" d="M277.8 165.9L364.7 180.4L476.3 163.2C476.3 163.2 495.4 170.7 501.9 180.4C508.3 190.1 499.6 209.8 499.6 209.8C499.6 209.8 498.2 214.6 493 206.9C487.8 199.1 491.4 189.9 491.4 189.9L482.7 182.8L465.7 191C465.7 191 475.9 195 478.2 199.5C480.5 204 474.8 206.9 474.8 206.9L454.6 200.2C454.6 200.2 413.4 225.4 362.6 229.5C311.7 233.6 251.9 220.7 251.9 220.7" fill="#F45B49"/>
<path d="M277.8 165.9L364.7 180.4L476.3 163.2C476.3 163.2 495.4 170.7 501.9 180.4C508.3 190.1 499.6 209.8 499.6 209.8C499.6 209.8 498.2 214.6 493 206.9C487.8 199.1 491.4 189.9 491.4 189.9L482.7 182.8L465.7 191C465.7 191 475.9 195 478.2 199.5C480.5 204 474.8 206.9 474.8 206.9L454.6 200.2C454.6 200.2 413.4 225.4 362.6 229.5C311.7 233.6 251.9 220.7 251.9 220.7" stroke="#1C2628" stroke-width="2.13" stroke-linecap="round" stroke-linejoin="round"/>
<path fill-rule="evenodd" clip-rule="evenodd" d="M21 284.2L69.6 353.1C69.6 353.1 88.3 361.7 99.7 359.6C111.1 357.5 119.2 337.5 119.2 337.5C119.2 337.5 121.7 333.2 112.5 334.8C103.3 336.4 99.1 345.4 99.1 345.4L88 344L82.1 326.1C82.1 326.1 92 330.7 96.9 329.2C101.8 327.8 99.8 321.6 99.8 321.6L80.9 311.7C80.9 311.7 74.4 282.3 55.7 250.5" fill="#F45B49"/>
<path d="M21 284.2L69.6 353.1C69.6 353.1 88.3 361.7 99.7 359.6C111.1 357.5 119.2 337.5 119.2 337.5C119.2 337.5 121.7 333.2 112.5 334.8C103.3 336.4 99.1 345.4 99.1 345.4L88 344L82.1 326.1C82.1 326.1 92 330.7 96.9 329.2C101.8 327.8 99.8 321.6 99.8 321.6L80.9 311.7C80.9 311.7 74.4 282.3 55.7 250.5" stroke="#1C2628" stroke-width="2.13" stroke-linecap="round" stroke-linejoin="round"/>
<path fill-rule="evenodd" clip-rule="evenodd" d="M247.5 559.7L203.2 639.4L220.1 683.4L220.4 684.3C220.4 684.3 223.7 689.8 208.5 689.3L200.6 683.7L162.5 634.9C162.5 634.9 155.8 627.9 161.1 617.8C164.8 610.7 168.1 604.9 168.1 604.9L203.9 533.6" fill="#F45B49"/>
<path d="M247.5 559.7L203.2 639.4L220.1 683.4L220.4 684.3C220.4 684.3 223.7 689.8 208.5 689.3L200.6 683.7L162.5 634.9C162.5 634.9 155.8 627.9 161.1 617.8C164.8 610.7 168.1 604.9 168.1 604.9L203.9 533.6" stroke="#1C2628" stroke-width="2.13" stroke-linecap="round" stroke-linejoin="round"/>
<path fill-rule="evenodd" clip-rule="evenodd" d="M244.3 77.5C245.6 48.8 238.1 54.2 236 46.5C232 31.1 227.1 26.2 198.5 29.8C193.5 30.4 187.6 31 183.2 33.6C163 45.4 164.3 62 164.3 62C164.3 62 155.6 101.2 198.6 102.4C241.6 103.5 198.7 101.7 221.3 94.7C243.9 87.6 244.3 77.5 244.3 77.5Z" fill="#1C2628" stroke="#1C2628" stroke-width="2.13" stroke-linecap="round" stroke-linejoin="round"/>
<path fill-rule="evenodd" clip-rule="evenodd" d="M186.3 82C184.5 75.4 185.1 62.2 186.7 56.2C189.6 45.4 191.7 46.1 202.8 43C215.2 39.6 226.3 38.5 234.4 48.4C237.5 52.2 242.9 72.3 244.3 77.5C249.4 96 239.4 109.3 222.3 114C211.3 117 202.4 116.1 194.3 108.3C189.7 104 188.1 88.7 186.3 82Z" fill="#F45B49" stroke="#1C2628" stroke-width="2.13" stroke-linecap="round" stroke-linejoin="round"/>
<path fill-rule="evenodd" clip-rule="evenodd" d="M200.6 77.7C199.8 75.1 202.1 72.1 205.9 70.8C209.7 69.6 213.4 70.6 214.2 73.2C215.1 75.8 212.7 78.8 208.9 80.1C205.2 81.3 201.5 80.2 200.6 77.7Z" fill="#FAFCFF" stroke="#1C2628" stroke-width="2.13" stroke-linecap="round" stroke-linejoin="round"/>
<path fill-rule="evenodd" clip-rule="evenodd" d="M223.7 70.8C222.9 68.2 225.2 65.2 229 63.9C232.8 62.7 236.5 63.7 237.3 66.3C238.2 68.9 235.8 71.9 232 73.2C228.3 74.5 224.6 73.4 223.7 70.8Z" fill="#FAFCFF" stroke="#1C2628" stroke-width="2.13" stroke-linecap="round" stroke-linejoin="round"/>
<path fill-rule="evenodd" clip-rule="evenodd" d="M195.5 127.2L192.8 100.3C192.8 100.3 214.5 95.5 219.7 101.2C224.9 106.8 219.4 125.3 219.4 125.3L206.3 127.2" fill="#FB564C"/>
<path fill-rule="evenodd" clip-rule="evenodd" d="M189 82.3C186.6 79.3 181.6 82.3 180.7 85.2C178.8 91.1 185 101 194.3 93.5" fill="#F45B49"/>
<path d="M189 82.3C186.6 79.3 181.6 82.3 180.7 85.2C178.8 91.1 185 101 194.3 93.5" stroke="#1C2628" stroke-width="2.13" stroke-linecap="round" stroke-linejoin="round"/>
<path fill-rule="evenodd" clip-rule="evenodd" d="M212.3 78.8C210.5 80 208.3 79.7 207.4 78.3C206.5 76.9 207.2 74.7 209 73.6C210.8 72.4 213 72.7 213.9 74.1C214.9 75.5 214.1 77.6 212.3 78.8Z" fill="#1C2628" stroke="#1C2628" stroke-width="2.13" stroke-linecap="round" stroke-linejoin="round"/>
<path fill-rule="evenodd" clip-rule="evenodd" d="M230.7 71.2C229.5 69.4 229.8 66.5 234.6 65.6C236.3 65.3 236.1 66.1 237.3 67.9C238.5 69.7 236.9 71.7 235.4 72.6C234.1 73.6 231.9 72.9 230.7 71.2Z" fill="#1C2628" stroke="#1C2628" stroke-width="2.13" stroke-linecap="round" stroke-linejoin="round"/>
<path d="M188.5 88.6C188.5 88.6 187.3 87.2 187.5 87.4" stroke="#1C2628" stroke-width="2.13" stroke-linecap="round" stroke-linejoin="round"/>
<path fill-rule="evenodd" clip-rule="evenodd" d="M211.7 88.6C214.1 93.7 221 91.9 225.9 93.7C225.9 93.7 222 102.1 213.8 97.7C208.3 94.7 211.7 88.6 211.7 88.6Z" fill="#1C2628" stroke="#1C2628" stroke-width="2.13" stroke-linecap="round" stroke-linejoin="round"/>
<path fill-rule="evenodd" clip-rule="evenodd" d="M220.8 72.6C220.8 72.6 234.9 82.1 234.2 84.3C231.5 92.7 224.5 86.3 223.2 86.6" fill="#F45B49"/>
<path d="M220.8 72.6C220.8 72.6 234.9 82.1 234.2 84.3C231.5 92.7 224.5 86.3 223.2 86.6" stroke="#1C2628" stroke-width="2.13" stroke-linecap="round" stroke-linejoin="round"/>
<path fill-rule="evenodd" clip-rule="evenodd" d="M389.2 413.7C384.8 444.8 320.5 528.6 281.9 576.7C265 597.7 253 611.9 253 611.9C253 611.9 239.1 607.7 219.6 607.4C209 607.2 194.3 612.3 185.2 610.4C159.4 604.8 149.9 580.7 149.9 580.7C149.9 580.7 209.2 484.3 261.7 435.9C240.4 425.2 148.5 356.3 138.9 346.8C119.6 327.7 117.1 288.8 127.6 275.3C146.8 250.6 201.7 256.6 222.5 242.4C231.5 256.2 259.2 280.5 289.5 307C337.4 348.5 391.8 395.5 389.2 413.7Z" fill="#1C2628" stroke="#1C2628" stroke-width="2.13" stroke-linecap="round" stroke-linejoin="round"/>
<path fill-rule="evenodd" clip-rule="evenodd" d="M14 200.4C-10.8 233.2 4.80001 280.9 30 310.9C36 316.5 82 287.5 82 287.5L73.6 241.6L120.1 214.4C120.1 214.4 106 288.7 123.6 298.4C153.6 315 191.5 299.1 224.8 297.8C242.5 300.8 274.2 301.2 288.3 294.4C308.4 284.7 289.5 232 289.5 232C289.5 232 324.7 246.3 364.3 242.8C404 239.4 448.1 218.2 448.1 218.2L424.7 162.9L341.7 173.7C341.7 173.7 322 157.4 291.5 151.1C261 144.7 239 133 239 133C238.4 135.4 226.2 151.6 223.9 154.7L188.3 132.8L182.5 129.2C182.5 129.2 154.9 121.6 121.3 131.7C89.3 141.3 38.8 167.6 14 200.4Z" fill="#1ED760" stroke="#1C2628" stroke-width="2.13" stroke-linecap="round" stroke-linejoin="round"/>
<path d="M49.8 92.4C53.1137 92.4 55.8 89.7137 55.8 86.4C55.8 83.0863 53.1137 80.4 49.8 80.4C46.4863 80.4 43.8 83.0863 43.8 86.4C43.8 89.7137 46.4863 92.4 49.8 92.4Z" fill="#FAF6EB"/>
<path d="M153.3 92.4C156.614 92.4 159.3 89.7137 159.3 86.4C159.3 83.0863 156.614 80.4 153.3 80.4C149.986 80.4 147.3 83.0863 147.3 86.4C147.3 89.7137 149.986 92.4 153.3 92.4Z" fill="#FAF6EB"/>
<path d="M256.9 104.1C260.214 104.1 262.9 101.414 262.9 98.1C262.9 94.7863 260.214 92.1 256.9 92.1C253.586 92.1 250.9 94.7863 250.9 98.1C250.9 101.414 253.586 104.1 256.9 104.1Z" fill="#FAF6EB"/>
<path d="M360.4 92.4C363.714 92.4 366.4 89.7137 366.4 86.4C366.4 83.0863 363.714 80.4 360.4 80.4C357.086 80.4 354.4 83.0863 354.4 86.4C354.4 89.7137 357.086 92.4 360.4 92.4Z" fill="#FAF6EB"/>
<path d="M14.7 137.9C18.0137 137.9 20.7 135.214 20.7 131.9C20.7 128.586 18.0137 125.9 14.7 125.9C11.3863 125.9 8.70001 128.586 8.70001 131.9C8.70001 135.214 11.3863 137.9 14.7 137.9Z" fill="#FAF6EB"/>
<path d="M118.2 137.9C121.514 137.9 124.2 135.214 124.2 131.9C124.2 128.586 121.514 125.9 118.2 125.9C114.886 125.9 112.2 128.586 112.2 131.9C112.2 135.214 114.886 137.9 118.2 137.9Z" fill="#FAF6EB"/>
<path d="M221.8 137.9C225.114 137.9 227.8 135.214 227.8 131.9C227.8 128.586 225.114 125.9 221.8 125.9C218.486 125.9 215.8 128.586 215.8 131.9C215.8 135.214 218.486 137.9 221.8 137.9Z" fill="#FAF6EB"/>
<path d="M325.3 137.9C328.614 137.9 331.3 135.214 331.3 131.9C331.3 128.586 328.614 125.9 325.3 125.9C321.986 125.9 319.3 128.586 319.3 131.9C319.3 135.214 321.986 137.9 325.3 137.9Z" fill="#FAF6EB"/>
<path d="M417.2 137.9C420.514 137.9 423.2 135.214 423.2 131.9C423.2 128.586 420.514 125.9 417.2 125.9C413.886 125.9 411.2 128.586 411.2 131.9C411.2 135.214 413.886 137.9 417.2 137.9Z" fill="#FAF6EB"/>
<path d="M49.8 184.5C53.1137 184.5 55.8 181.814 55.8 178.5C55.8 175.186 53.1137 172.5 49.8 172.5C46.4863 172.5 43.8 175.186 43.8 178.5C43.8 181.814 46.4863 184.5 49.8 184.5Z" fill="#FAF6EB"/>
<path d="M153.3 184.5C156.614 184.5 159.3 181.814 159.3 178.5C159.3 175.186 156.614 172.5 153.3 172.5C149.986 172.5 147.3 175.186 147.3 178.5C147.3 181.814 149.986 184.5 153.3 184.5Z" fill="#FAF6EB"/>
<path d="M256.9 184.5C260.214 184.5 262.9 181.814 262.9 178.5C262.9 175.186 260.214 172.5 256.9 172.5C253.586 172.5 250.9 175.186 250.9 178.5C250.9 181.814 253.586 184.5 256.9 184.5Z" fill="#FAF6EB"/>
<path d="M360.4 184.5C363.714 184.5 366.4 181.814 366.4 178.5C366.4 175.186 363.714 172.5 360.4 172.5C357.086 172.5 354.4 175.186 354.4 178.5C354.4 181.814 357.086 184.5 360.4 184.5Z" fill="#FAF6EB"/>
<path d="M14.7 230C18.0137 230 20.7 227.314 20.7 224C20.7 220.686 18.0137 218 14.7 218C11.3863 218 8.70001 220.686 8.70001 224C8.70001 227.314 11.3863 230 14.7 230Z" fill="#FAF6EB"/>
<path d="M118.2 230C121.514 230 124.2 227.314 124.2 224C124.2 220.686 121.514 218 118.2 218C114.886 218 112.2 220.686 112.2 224C112.2 227.314 114.886 230 118.2 230Z" fill="#FAF6EB"/>
<path d="M221.8 230C225.114 230 227.8 227.314 227.8 224C227.8 220.686 225.114 218 221.8 218C218.486 218 215.8 220.686 215.8 224C215.8 227.314 218.486 230 221.8 230Z" fill="#FAF6EB"/>
<path d="M325.3 230C328.614 230 331.3 227.314 331.3 224C331.3 220.686 328.614 218 325.3 218C321.986 218 319.3 220.686 319.3 224C319.3 227.314 321.986 230 325.3 230Z" fill="#FAF6EB"/>
<path d="M418.2 228C421.514 228 424.2 225.314 424.2 222C424.2 218.686 421.514 216 418.2 216C414.886 216 412.2 218.686 412.2 222C412.2 225.314 414.886 228 418.2 228Z" fill="#FAF6EB"/>
<path d="M49.8 276.6C53.1137 276.6 55.8 273.914 55.8 270.6C55.8 267.286 53.1137 264.6 49.8 264.6C46.4863 264.6 43.8 267.286 43.8 270.6C43.8 273.914 46.4863 276.6 49.8 276.6Z" fill="#FAF6EB"/>
<path d="M153.3 276.6C156.614 276.6 159.3 273.914 159.3 270.6C159.3 267.286 156.614 264.6 153.3 264.6C149.986 264.6 147.3 267.286 147.3 270.6C147.3 273.914 149.986 276.6 153.3 276.6Z" fill="#FAF6EB"/>
<path d="M256.9 276.6C260.214 276.6 262.9 273.914 262.9 270.6C262.9 267.286 260.214 264.6 256.9 264.6C253.586 264.6 250.9 267.286 250.9 270.6C250.9 273.914 253.586 276.6 256.9 276.6Z" fill="#FAF6EB"/>
<path d="M360.4 276.6C363.714 276.6 366.4 273.914 366.4 270.6C366.4 267.286 363.714 264.6 360.4 264.6C357.086 264.6 354.4 267.286 354.4 270.6C354.4 273.914 357.086 276.6 360.4 276.6Z" fill="#FAF6EB"/>
<path d="M14.7 322C18.0137 322 20.7 319.314 20.7 316C20.7 312.686 18.0137 310 14.7 310C11.3863 310 8.70001 312.686 8.70001 316C8.70001 319.314 11.3863 322 14.7 322Z" fill="#FAF6EB"/>
<path d="M118.2 322C121.514 322 124.2 319.314 124.2 316C124.2 312.686 121.514 310 118.2 310C114.886 310 112.2 312.686 112.2 316C112.2 319.314 114.886 322 118.2 322Z" fill="#FAF6EB"/>
<path d="M221.8 322C225.114 322 227.8 319.314 227.8 316C227.8 312.686 225.114 310 221.8 310C218.486 310 215.8 312.686 215.8 316C215.8 319.314 218.486 322 221.8 322Z" fill="#FAF6EB"/>
<path d="M325.3 322C328.614 322 331.3 319.314 331.3 316C331.3 312.686 328.614 310 325.3 310C321.986 310 319.3 312.686 319.3 316C319.3 319.314 321.986 322 325.3 322Z" fill="#FAF6EB"/>
<path d="M417.2 322C420.514 322 423.2 319.314 423.2 316C423.2 312.686 420.514 310 417.2 310C413.886 310 411.2 312.686 411.2 316C411.2 319.314 413.886 322 417.2 322Z" fill="#FAF6EB"/>
<path fill-rule="evenodd" clip-rule="evenodd" d="M225.9 34.9L234.4 48.5C223.6 34.9 220.2 73.8 192.3 73.8C191.5 73.8 176.5 77.6 176.6 76.6C176.7 75.3 179 75.5 179.9 74.6C182 72.4 182.7 70 183.2 67.2C183.9 63.7 180.9 56.5 183.8 53.8C188.6 49.4 195.4 34.5 201 35L225.9 34.9Z" fill="#1C2628" stroke="#1C2628" stroke-width="2.13" stroke-linecap="round" stroke-linejoin="round"/>
<path d="M343.1 174.7C347 177.2 349.3 180.6 351.8 184.5" stroke="#1C2628" stroke-width="2.13" stroke-linecap="round" stroke-linejoin="round"/>
<path d="M184.8 382.4L257.9 430.9L216.4 489.4" stroke="#FAF6EB" stroke-width="2.13" stroke-linecap="round" stroke-linejoin="round"/>
<path d="M235.2 606.9C248.5 606.4 249.4 613.7 249.4 613.7L303 551.6" stroke="#FAF6EB" stroke-width="2.13" stroke-linecap="round" stroke-linejoin="round"/>
<path d="M438.9 194C438.7 194 440 197.2 443.6 198.8C447.2 200.5 452 199.9 453.4 200.6" stroke="#1C2628" stroke-width="2.13" stroke-linecap="round" stroke-linejoin="round"/>
<path d="M65.8 304.8C65.7 304.7 68.8 303.4 72.5 304.9C76.2 306.4 79.1 310.2 80.5 310.7" stroke="#1C2628" stroke-width="2.13" stroke-linecap="round" stroke-linejoin="round"/>
<path d="M463.8 183.6C469.6 184.4 474.4 183 480.1 182.7" stroke="#1C2628" stroke-width="2.13" stroke-linecap="round" stroke-linejoin="round"/>
<path d="M75.6 329.9C80.2 333.5 82.5 337.9 86.2 342.2" stroke="#1C2628" stroke-width="2.13" stroke-linecap="round" stroke-linejoin="round"/>
<path fill-rule="evenodd" clip-rule="evenodd" d="M197.4 37.3C196.1 36.5 194.1 33.3 192.9 33C187.5 31.8 174.6 26.7 168 33.2C161.4 39.7 166.1 43.8 166.1 43.8C166.1 43.8 149.9 50.5 167.8 63.6C169.9 65.2 167.7 66.8 170.4 67.2C172.5 67.5 174.6 67.5 176.8 67.6" fill="#1C2628"/>
<path d="M197.4 37.3C196.1 36.5 194.1 33.3 192.9 33C187.5 31.8 174.6 26.7 168 33.2C161.4 39.7 166.1 43.8 166.1 43.8C166.1 43.8 149.9 50.5 167.8 63.6C169.9 65.2 167.7 66.8 170.4 67.2C172.5 67.5 174.6 67.5 176.8 67.6" stroke="#1C2628" stroke-width="2.13" stroke-linecap="round" stroke-linejoin="round"/>
<path d="M106.3 207.5C89.1 211.8 74.5 223.3 60 233.4C49.9 240.4 47.2 256.5 46 267.8" stroke="#1C2628" stroke-width="2.13" stroke-linecap="round" stroke-linejoin="round"/>
<path d="M131.6 189.2C119.4 206 125.6 199.6 118.3 219.3" stroke="#1C2628" stroke-width="2.13" stroke-linecap="round" stroke-linejoin="round"/>
<path d="M128.1 246.7C124.1 252.8 121.1 273.2 132.3 281.1C144.9 289.9 154 286.5 167.4 282.5C171.3 281.3 180.9 276.1 177.2 270.6C163.7 250.4 136 293.2 171.6 291.6C178 291.3 184.2 289.7 190.5 288.8" stroke="#1C2628" stroke-width="2.13" stroke-linecap="round" stroke-linejoin="round"/>
<path d="M283.2 251.9C283.2 259.9 279.6 267.5 276.9 275" stroke="#1C2628" stroke-width="2.13" stroke-linecap="round" stroke-linejoin="round"/>
<path d="M288.2 263.8C290.5 285.4 279.4 290.1 279.4 290.1" stroke="#1C2628" stroke-width="2.13" stroke-linecap="round" stroke-linejoin="round"/>
<path d="M290.8 214.5C297.4 219.2 305.1 222.3 312.5 225.7" stroke="#1C2628" stroke-width="2.13" stroke-linecap="round" stroke-linejoin="round"/>
<path d="M283.9 204.3C284.1 208.1 289.6 213.2 290.8 219.7C291.5 223.5 286.2 228.8 289.3 231.9" stroke="#1C2628" stroke-width="2.13" stroke-linecap="round" stroke-linejoin="round"/>
<path d="M353.2 226.4C376 226.4 402 220.8 423.3 211.7" stroke="#1C2628" stroke-width="2.13" stroke-linecap="round" stroke-linejoin="round"/>
<path d="M384.7 212.4C398.8 209.1 412.4 203.9 426.1 199.1" stroke="#1C2628" stroke-width="2.13" stroke-linecap="round" stroke-linejoin="round"/>
<path fill-rule="evenodd" clip-rule="evenodd" d="M548.2 535.6H536V575.1H548.3L548.2 535.6Z" fill="#1C2628" stroke="#1C2628" stroke-width="2.13" stroke-linecap="round" stroke-linejoin="round"/>
<path fill-rule="evenodd" clip-rule="evenodd" d="M345.6 538.1H333.8V575.4H345.6V538.1Z" fill="#1C2628" stroke="#1C2628" stroke-width="2.13" stroke-linecap="round" stroke-linejoin="round"/>
<path fill-rule="evenodd" clip-rule="evenodd" d="M553.8 526.7H327.7V544.2H553.8V526.7Z" fill="#1C2628" stroke="#1C2628" stroke-width="2.13" stroke-linecap="round" stroke-linejoin="round"/>
<path fill-rule="evenodd" clip-rule="evenodd" d="M584.6 565H320.9V698.1H584.6V565V565Z" fill="#1C2628" stroke="#1C2628" stroke-width="2.13" stroke-linecap="round" stroke-linejoin="round"/>
<path d="M523.5 564L522.4 703" stroke="#FAF6EB" stroke-width="2.13" stroke-linecap="round" stroke-linejoin="round"/>
<path d="M489 640C489 630.5 480.7 622.9 470.5 622.9C460.3 622.9 452 630.6 452 640C452 649.4 460.3 657.1 470.5 657.1C480.7 657.1 489 649.4 489 640Z" stroke="#FAF6EB" stroke-width="2.13" stroke-linecap="round" stroke-linejoin="round"/>
<path d="M383.2 640C383.2 625.1 370.2 613.1 354.1 613.1C338 613 325 625.1 325 640C325 654.9 338 666.9 354.1 666.9C370.2 666.9 383.2 654.9 383.2 640Z" stroke="#FAF6EB" stroke-width="2.13" stroke-linecap="round" stroke-linejoin="round"/>
<path d="M523.2 593.6L319.8 593.1" stroke="#FAF6EB" stroke-width="2.13" stroke-linecap="round" stroke-linejoin="round"/>
<path d="M493 572.7H343.6V581.6H493V572.7Z" stroke="#FAF6EB" stroke-width="2.13" stroke-linecap="round" stroke-linejoin="round"/>
<path d="M569.7 603.2C569.7 596 563.4 590.2 555.7 590.2C547.9 590.2 541.6 596 541.6 603.2C541.6 610.4 547.9 616.2 555.7 616.2C563.4 616.3 569.7 610.4 569.7 603.2Z" stroke="#FAF6EB" stroke-width="2.13" stroke-linecap="round" stroke-linejoin="round"/>
<path d="M502.1 640C502.1 623.9 488 610.8 470.5 610.8C453.1 610.8 438.9 623.9 438.9 640C438.9 656.1 453 669.2 470.5 669.2C487.9 669.2 502.1 656.1 502.1 640Z" stroke="#FAF6EB" stroke-width="2.13" stroke-linecap="round" stroke-linejoin="round"/>
<path d="M370.5 640C370.5 631.6 363.1 624.8 354.1 624.8C345 624.8 337.6 631.6 337.6 640C337.6 648.4 345 655.2 354.1 655.2C363.2 655.2 370.5 648.4 370.5 640Z" stroke="#FAF6EB" stroke-width="2.13" stroke-linecap="round" stroke-linejoin="round"/>
<path fill-rule="evenodd" clip-rule="evenodd" d="M429.4 602.7H392.8V693H429.4V602.7Z" fill="#FAF6EB" stroke="#1C2628" stroke-width="2.13" stroke-linecap="round" stroke-linejoin="round"/>
<path d="M543.8 696.3C537.2 681 531.1 672.6 532.6 666.4C534.6 658.3 538.4 648.7 541.9 649.8C546 654.3 547.2 665.1 545.4 668.7C545.7 673.9 557.1 676.3 558.3 687C545.8 689.2 543.8 696.3 543.8 696.3Z" fill="#FB564C"/>
<path d="M585.2 684.1C583.9 670.3 613.8 651.7 615.1 650.8C616.4 648.4 619.5 635.6 626.6 629.6C631.1 625.6 637.8 625.4 639.5 629.4C639.6 631.2 636.1 631.5 634.4 637.2C632.7 642.9 630.4 651.8 632.7 663.4C620.1 675.6 596.7 688.1 596.2 687.9C589.6 686.8 585.2 684.1 585.2 684.1Z" fill="#FB564C"/>
<path d="M495.4 693C490.8 695 487.2 697.7 482.3 696.8C480.1 696.3 480 699.8 484.4 703.1C488.7 706.5 492.1 708.8 495 707.3C498.2 700.5 495.4 693 495.4 693Z" fill="#FB564C"/>
<path d="M654 680C654.5 681 659.9 689.6 657.7 703.5C656.6 710.2 654 715.7 649.2 720.2C644 725.1 636.3 728.9 625.3 732.2C612.1 736.1 577.3 735.8 550 734.9C532.8 734.3 518.6 733.4 514.6 733C504.4 732 494.4 719.7 491.9 704.1C489.5 689.1 496.9 684.1 503 681C513 676 525.9 666 532.4 675.9C537 682.9 538.9 685.3 543.6 686.1C546.3 686.6 568 680.9 598.3 682.5C598.3 682.5 594.4 674.6 606.6 662.8C618.8 651 635.9 656 642.2 661.5C640.7 658.3 642.5 643.1 645.6 638.1C651.9 627.9 660 634.1 658.3 637.8C656.6 641.5 656.1 656.5 658.3 666C660.3 675.4 662 679.5 654 680Z" fill="#FB564C"/>
<path d="M509.7 713.1C504.7 716.4 496.7 721.3 494 730C495 731.7 502.4 733.4 506.8 733.5C511.5 733.6 518.5 732.6 520.5 730.8C522.5 728.2 518 707.7 509.7 713.1Z" fill="#FB564C"/>
<path d="M510 721.9C507.4 721.5 500.7 727.4 500.4 728.9C502.8 730.6 513.9 729.4 514.5 728.4C514.7 726.8 510 721.9 510 721.9Z" fill="#1C2628" stroke="#1C2628" stroke-width="2.13" stroke-linecap="round" stroke-linejoin="round"/>
<path d="M558.5 701.8C561.8 698.4 563.3 698.6 560.5 696.1C551.5 688 549 682.1 549 678.5C549 674.8 558.7 667.6 565.9 668.4C572.1 669.1 578.9 668.3 579.8 671.4C577.8 677.7 572.7 680.2 569 682.1C579.8 684.5 587.2 690 588 692.4C589.3 698.1 581.3 711.3 574.7 713.5C568.1 715.6 554.2 706.3 558.5 701.8Z" fill="#FB564C"/>
<path d="M639.4 723.1C645.5 721.6 657.1 723.6 661.7 720.8C672.3 714.3 679.3 728.4 678.4 734.6C677.5 740.8 676 747.1 677 753.3C678.3 760.9 683.5 767.4 689.9 771.7C696.3 776 703.9 778.2 711.4 779.6C709.7 777.6 708 775.6 706.4 773.6C711.7 776.9 718.8 778.3 724.4 775.4C730 772.5 733 764.7 729.5 759.5C726.4 754.9 720 754 714.5 754.1C708.9 754.1 702.9 754.6 698.3 751.3C691.6 746.5 691.8 736.7 688.9 728.9C690.3 729.7 691.6 730.5 693 731.4C689.1 719.2 683.3 705.9 671.4 701.1C664.3 698.2 654.3 698.7 648 703C641.7 707.3 639.3 715.4 639.4 723.1Z" fill="#FB564C"/>
<path d="M531.9 689.9C532.3 691.2 523.4 698.9 523.4 698.9C518.1 700.5 517.4 697.1 515.1 693C513.3 689.8 513.4 681.2 514.5 677.7C515.7 673.5 520.3 672.4 521.9 674C521.9 674 526.9 678.2 529.7 680.6C530.9 681 534.5 685.6 531.9 689.9Z" fill="#FB564C"/>
<path d="M513 684.4C514.3 683.8 515.1 682.6 514.7 681.7C514.3 680.8 512.9 680.5 511.6 681C510.3 681.5 509.5 682.8 509.9 683.7C510.3 684.7 511.7 685 513 684.4Z" fill="#1C2628" stroke="#1C2628" stroke-width="2.13" stroke-linecap="round" stroke-linejoin="round"/>
<path d="M519.7 700.2C521 699.6 521.8 698.4 521.4 697.5C521 696.6 519.6 696.3 518.3 696.8C517 697.4 516.2 698.6 516.6 699.5C517 700.4 518.3 700.7 519.7 700.2Z" fill="#1C2628" stroke="#1C2628" stroke-width="2.13" stroke-linecap="round" stroke-linejoin="round"/>
<path d="M522.5 687.5C519.3 685.8 516.7 683.6 518.8 688.6C520.9 693.7 521.7 691.8 522.5 687.5Z" fill="#1C2628" stroke="#1C2628" stroke-width="2.13" stroke-linecap="round" stroke-linejoin="round"/>
<path d="M525.8 690.5C526.2 689.7 526.2 688.8 525.9 688.1C525.9 688 525.8 688 525.8 687.9C525.5 687.4 525.2 686.9 524.2 686.6C524.6 685.8 524.4 685 524.2 684.3C523.9 683.5 523.2 682.8 522.3 682.4" stroke="#1C2628" stroke-width="2.13" stroke-linecap="round" stroke-linejoin="round"/>
<path d="M521.8 687.8L523.6 687.1" stroke="#1C2628" stroke-width="2.13" stroke-linecap="round" stroke-linejoin="round"/>
<path d="M576.7 675.9C574.8 678.9 569.7 680.9 568.9 682C568.1 683.3 582.5 689.2 587.1 695.1C582.3 703.6 575.9 711.5 567.8 717" stroke="#1C2628" stroke-width="2.13" stroke-linecap="round" stroke-linejoin="round"/>
<path d="M551.3 675.5C548.8 677.5 548.3 678.1 548.2 681.3C548.1 682.7 558.7 692.7 560.4 697.5" stroke="#1C2628" stroke-width="2.13" stroke-linecap="round" stroke-linejoin="round"/>
<path d="M632.6 656.8C625.3 658.9 614.6 657.9 612.3 665.1C609.5 674.1 609.4 684 612.3 693" stroke="#1C2628" stroke-width="2.13" stroke-linecap="round" stroke-linejoin="round"/>
<path d="M612.3 693.3C606.2 694.9 600.1 696.5 594 698.1" stroke="#1C2628" stroke-width="2.13" stroke-linecap="round" stroke-linejoin="round"/>
<path d="M540.6 693.3C540 695.7 547 712.6 546.4 715C546.1 716.1 545.8 717.3 544.9 717.9C544 718.5 542.4 718 542.4 716.9C542.1 718.4 541.7 720 540.5 720.9C539.3 721.8 537 721 537.2 719.5C537.3 720.8 536.5 722.1 535.3 722.5C534.1 722.9 532.6 722.4 532 721.4C532.4 722.7 531.5 724.2 530.4 724.9C529.3 725.6 527.8 725.8 526.4 726C522 726.5 517.6 726.6 513.2 726.4" stroke="#1C2628" stroke-width="2.13" stroke-linecap="round" stroke-linejoin="round"/>
<path d="M649.2 720.2C644 725.1 636.3 728.9 625.3 732.2C612.1 736.1 577.3 735.8 550 734.9C551.4 731 553.9 727.4 557 725.4C563.9 721 569.8 726.7 589.5 726.3C598.3 726.1 603.8 726 610.4 723.2C622.8 717.9 623.8 709.5 631.3 709C637.6 708.5 645.1 713.9 649.2 720.2Z" fill="#1C2628" stroke="#1C2628" stroke-width="2.13" stroke-linecap="round" stroke-linejoin="round"/>
<path fill-rule="evenodd" clip-rule="evenodd" d="M389.2 413.7C384.8 444.8 320.5 528.6 281.9 576.7C276.1 570.1 272.4 561.9 273 554.6C274.8 530.9 323.1 522.9 319.7 500.1C317.9 487.9 305.6 482.5 308.1 473.9C312.1 460.3 344.4 467.3 357.4 446.8C358.3 445.4 365.1 434.3 361.4 424.1C356.7 411.1 338.8 410.6 337.8 400.5C337.1 392.9 346.9 390.8 346.7 381.8C346.4 372.5 316.7 363 311.1 363.1C293.5 363.6 270.8 342.1 273.8 324.9C275.2 316.7 282.2 310.7 289.4 306.7C337.4 348.5 391.8 395.5 389.2 413.7Z" fill="#FAF6EB"/>
<path d="M403.2 93L389.3 37.3L390.1 36.9L386.4 22.1L330.7 50.3L334.5 65.7L335.3 65.3L348 116.5C344.3 115.5 339.7 116.6 335.7 119.6C329.9 124.2 327.9 131.4 331.3 135.8C334.7 140.2 342.2 140.1 348.1 135.5C354 131 355.9 123.7 352.5 119.3C352.4 119.1 352.2 119 352 118.8L340.1 71L388 46.6L398.9 90.6C395.2 89.6 390.5 90.6 386.5 93.7C380.6 98.3 378.7 105.5 382.1 109.9C385.5 114.3 393 114.2 398.9 109.6C404.8 105 406.7 97.8 403.3 93.4C403.4 93.2 403.3 93.2 403.2 93ZM339.5 67.7L338.5 63.7L386.3 39L387.4 43.3L339.5 67.7Z" fill="#1C2628" stroke="#1C2628" stroke-width="2.13" stroke-linecap="round" stroke-linejoin="round"/>
<path d="M422 283.8C421.6 283.7 421.1 283.8 420.9 284.2C415.9 291.3 410.7 295.2 405.5 295.8C404.6 295.9 403.8 295.9 402.9 295.9C405.4 294.5 407.1 291.9 407.3 288.9C407.6 284.2 403.9 280.1 399.2 279.9C394.5 279.6 390.4 283.3 390.2 288C389.9 292.7 393.6 296.8 398.3 297C398.5 297 398.7 297 398.9 297C401.2 297.8 403.5 298.1 405.8 297.8C410.8 297.2 415.8 293.8 420.6 287.9L419.6 306.4C414.6 313.3 409.5 317.1 404.4 317.8C403.5 317.9 402.7 317.9 401.8 317.9C404.3 316.5 406 313.9 406.2 310.9C406.4 306.2 402.8 302.1 398.1 301.9C393.4 301.7 389.3 305.3 389.1 310C388.8 314.7 392.5 318.8 397.2 319C397.4 319 397.6 319 397.8 319C399.5 319.6 401.1 319.9 402.8 319.9C403.4 319.9 404 319.9 404.7 319.8C409.7 319.2 414.7 315.8 419.5 309.9L417.8 342.3L419.7 342.4L422.8 284.9C422.7 284.3 422.4 283.9 422 283.8Z" fill="#1C2628" stroke="#1C2628" stroke-width="2.13" stroke-linecap="round" stroke-linejoin="round"/>
<path d="M467.7 238.1C466.3 251.6 471.7 264.9 478.3 276.8C484.9 288.7 492.9 299.9 497.5 312.7C502.1 325.5 502.8 340.6 495.2 351.9C485.6 366.1 466.4 369.9 453.3 381C439.3 392.8 433.6 412.4 434.7 430.6C435.8 448.9 442.9 466.3 450.9 482.8" stroke="#1C2628" stroke-width="2.13" stroke-linecap="round" stroke-linejoin="round"/>
<path d="M498.8 380.1C488.4 381.8 478.8 388.1 473 396.9C467.2 405.8 465.4 417.1 468 427.3" stroke="#1C2628" stroke-width="2.13" stroke-linecap="round" stroke-linejoin="round"/>
<path d="M505.1 228.9C498.5 251.6 505.3 275.7 512.2 298.3" stroke="#1C2628" stroke-width="2.13" stroke-linecap="round" stroke-linejoin="round"/>
<path d="M507.6 134.8C519.9 139.5 527.6 152.3 529.5 165.3C531.4 178.3 528.5 191.5 525 204.1C521.5 216.7 517.4 229.4 516.8 242.5C516.5 248.6 517.9 256 523.6 258.2" stroke="#1C2628" stroke-width="2.13" stroke-linecap="round" stroke-linejoin="round"/>
<path d="M305.4 320.6C341.5 348.4 376 388.1 376 388.1C376 388.1 393.1 403.7 387.4 421.2C387.9 432.5 343.7 495.6 343.7 495.6" stroke="#1C2628" stroke-width="2.13" stroke-linecap="round" stroke-linejoin="round"/>
<path fill-rule="evenodd" clip-rule="evenodd" d="M199.2 615L166.6 604.8L156.3 586.7L122 609.6L178.8 683.7L207.9 721.7C207.9 721.7 236.4 705.7 215.7 678.7C211.4 673.2 199.2 615 199.2 615Z" fill="#F45B49" stroke="#1C2628" stroke-width="2.13" stroke-linecap="round" stroke-linejoin="round"/>
<path d="M199.2 615L166.6 604.8L156.3 586.7L122 609.6L178.8 683.7L207.9 721.7C207.9 721.7 236.4 705.7 215.7 678.7C211.4 673.2 199.2 615 199.2 615Z" fill="#F45B49"/>
<path fill-rule="evenodd" clip-rule="evenodd" d="M163.4 678.4C172.6 680.6 201.8 683.8 201.8 683.8L222.6 671.3C222.6 671.3 236.9 727.7 210.1 728C194.5 728.2 182.4 713.8 172.6 704.2C166.5 698.2 164 691.9 162.4 683.9" fill="#F45B49"/>
<path d="M163.4 678.4C172.6 680.6 201.8 683.8 201.8 683.8L222.6 671.3C222.6 671.3 236.9 727.7 210.1 728C194.5 728.2 182.4 713.8 172.6 704.2C166.5 698.2 164 691.9 162.4 683.9" stroke="#1C2628" stroke-width="2.13" stroke-linecap="round" stroke-linejoin="round"/>
<path d="M199.2 615L166.6 604.8L156.3 586.7L122 609.6L178.8 683.7L207.9 721.7C207.9 721.7 236.4 705.7 215.7 678.7C211.4 673.2 199.2 615 199.2 615Z" stroke="#1C2628" stroke-width="2.13" stroke-linecap="round" stroke-linejoin="round"/>
<path d="M199.2 615L166.6 604.8L156.3 586.7L122 609.6L178.8 683.7L207.9 721.7C207.9 721.7 236.4 705.7 215.7 678.7C211.4 673.2 199.2 615 199.2 615Z" fill="#F45B49" stroke="#1C2628" stroke-width="2.13" stroke-linecap="round" stroke-linejoin="round"/>
<path fill-rule="evenodd" clip-rule="evenodd" d="M199.2 615L166.6 604.8L156.3 586.7L122 609.6L178.8 683.7L207.9 721.7C207.9 721.7 236.4 705.7 215.7 678.7C211.4 673.2 199.2 615 199.2 615Z" fill="#F45B49" stroke="#1C2628" stroke-width="2.13" stroke-linecap="round" stroke-linejoin="round"/>
<path d="M199.2 615L166.6 604.8L156.3 586.7L122 609.6L178.8 683.7L207.9 721.7C207.9 721.7 236.4 705.7 215.7 678.7C211.4 673.2 199.2 615 199.2 615Z" fill="#F45B49"/>
<path fill-rule="evenodd" clip-rule="evenodd" d="M163.4 678.4C172.6 680.6 201.8 683.8 201.8 683.8L222.6 671.3C222.6 671.3 236.9 727.7 210.1 728C194.5 728.2 182.4 713.8 172.6 704.2C166.5 698.2 164 691.9 162.4 683.9" fill="#F45B49"/>
<path d="M163.4 678.4C172.6 680.6 201.8 683.8 201.8 683.8L222.6 671.3C222.6 671.3 236.9 727.7 210.1 728C194.5 728.2 182.4 713.8 172.6 704.2C166.5 698.2 164 691.9 162.4 683.9" stroke="#1C2628" stroke-width="2.13" stroke-linecap="round" stroke-linejoin="round"/>
<path d="M199.2 615L166.6 604.8L156.3 586.7L122 609.6L178.8 683.7L207.9 721.7C207.9 721.7 236.4 705.7 215.7 678.7C211.4 673.2 199.2 615 199.2 615Z" stroke="#1C2628" stroke-width="2.13" stroke-linecap="round" stroke-linejoin="round"/>
<path d="M199.2 615L166.6 604.8L156.3 586.7L122 609.6L178.8 683.7L207.9 721.7C207.9 721.7 236.4 705.7 215.7 678.7C211.4 673.2 199.2 615 199.2 615Z" fill="#1C2628" stroke="#1C2628" stroke-width="2.13" stroke-linecap="round" stroke-linejoin="round"/>
<path d="M205.8 649.3L195.8 654" stroke="#FFFDFD" stroke-width="2.13" stroke-linecap="round" stroke-linejoin="round"/>
<path d="M208 658.6L199.4 663.4" stroke="#FFFDFD" stroke-width="2.13" stroke-linecap="round" stroke-linejoin="round"/>
<path d="M210.1 668.2L203.3 672.2" stroke="#FFFDFD" stroke-width="2.13" stroke-linecap="round" stroke-linejoin="round"/>
<path fill-rule="evenodd" clip-rule="evenodd" d="M128.3 605.1L165.9 578.5C165.9 578.5 194.7 607.5 205.9 618.1C212.4 624.2 208.3 634.8 197.4 633C189.7 631.8 173.9 623.1 173.9 623.1L151.2 635.5L128.3 605.1Z" fill="#F45B49" stroke="#1C2628" stroke-width="2.13" stroke-linecap="round" stroke-linejoin="round"/>
<path fill-rule="evenodd" clip-rule="evenodd" d="M196.5 621.1C198.2 619.9 200.6 620.2 201.8 621.9C203.1 623.5 202.6 625.8 200.9 626.9C199.2 628.1 196.8 627.8 195.5 626.2C194.4 624.5 194.8 622.3 196.5 621.1Z" fill="#F45B49" stroke="#1C2628" stroke-width="2.13" stroke-linecap="round" stroke-linejoin="round"/>
<path fill-rule="evenodd" clip-rule="evenodd" d="M130.5 602.4L154.7 633.7L152.6 639.9L214.2 718.7L204.9 725.1L117 611.7L130.5 602.4Z" fill="#F45B49" stroke="#1C2628" stroke-width="2.13" stroke-linecap="round" stroke-linejoin="round"/>
<path d="M632.6 200.2H570V359.9" stroke="#1C2628" stroke-width="2.13" stroke-linecap="round" stroke-linejoin="round"/>
<path d="M642.6 211.3H581.5V352.1" stroke="#1C2628" stroke-width="2.13" stroke-linecap="round" stroke-linejoin="round"/>
<path d="M180.4 139L227.5 172.6L246.6 143" stroke="#1C2628" stroke-width="2.13" stroke-linecap="round" stroke-linejoin="round"/>
</svg>
