<?xml version="1.0" encoding="utf-8"?>
<svg xmlns="http://www.w3.org/2000/svg" xmlns:xlink="http://www.w3.org/1999/xlink" width="375" zoomAndPan="magnify" viewBox="0 142.5 375 90" height="90" preserveAspectRatio="xMidYMid meet" version="1.0">
  <defs>
    <g />
    <clipPath id="id1">
      <path d="M 4.738281 142.761719 L 93.988281 142.761719 L 93.988281 232.011719 L 4.738281 232.011719 Z M 4.738281 142.761719 " clip-rule="nonzero" />
    </clipPath>
    <clipPath id="id2">
      <path d="M 4.738281 142.761719 L 93.988281 142.761719 L 93.988281 227 L 4.738281 227 Z M 4.738281 142.761719 " clip-rule="nonzero" />
    </clipPath>
    <clipPath id="id3">
      <path d="M 4.738281 144 L 93.988281 144 L 93.988281 232.011719 L 4.738281 232.011719 Z M 4.738281 144 " clip-rule="nonzero" />
    </clipPath>
    <clipPath id="id4">
      <path d="M 4.738281 167 L 93.988281 167 L 93.988281 232.011719 L 4.738281 232.011719 Z M 4.738281 167 " clip-rule="nonzero" />
    </clipPath>
    <clipPath id="id5">
      <path d="M 25 213 L 75.285156 213 L 75.285156 214.84375 L 25 214.84375 Z M 25 213 " clip-rule="nonzero" />
    </clipPath>
    <clipPath id="id6">
      <path d="M 22.035156 160 L 66 160 L 66 195 L 22.035156 195 Z M 22.035156 160 " clip-rule="nonzero" />
    </clipPath>
    <clipPath id="id7">
      <path d="M 59 155.59375 L 70 155.59375 L 70 167 L 59 167 Z M 59 155.59375 " clip-rule="nonzero" />
    </clipPath>
  </defs>
  <g clip-path="url(#id1)">
    <path fill="rgb(11.759949%, 84.309387%, 37.649536%)" d="M 93.988281 187.386719 C 93.988281 188.851562 93.914062 190.308594 93.773438 191.761719 C 93.628906 193.214844 93.414062 194.660156 93.128906 196.09375 C 92.84375 197.527344 92.488281 198.945312 92.066406 200.34375 C 91.640625 201.742188 91.148438 203.113281 90.589844 204.464844 C 90.03125 205.816406 89.40625 207.136719 88.71875 208.425781 C 88.027344 209.714844 87.277344 210.964844 86.464844 212.179688 C 85.652344 213.394531 84.785156 214.566406 83.855469 215.699219 C 82.929688 216.828125 81.949219 217.910156 80.917969 218.941406 C 79.882812 219.976562 78.800781 220.957031 77.671875 221.882812 C 76.542969 222.8125 75.371094 223.679688 74.152344 224.492188 C 72.9375 225.304688 71.6875 226.054688 70.398438 226.742188 C 69.109375 227.433594 67.789062 228.058594 66.4375 228.617188 C 65.089844 229.175781 63.714844 229.667969 62.316406 230.089844 C 60.917969 230.515625 59.5 230.871094 58.066406 231.15625 C 56.632812 231.441406 55.191406 231.65625 53.734375 231.796875 C 52.28125 231.941406 50.824219 232.011719 49.363281 232.011719 C 47.898438 232.011719 46.441406 231.941406 44.988281 231.796875 C 43.53125 231.65625 42.089844 231.441406 40.65625 231.15625 C 39.222656 230.871094 37.804688 230.515625 36.40625 230.089844 C 35.007812 229.667969 33.632812 229.175781 32.285156 228.617188 C 30.933594 228.058594 29.613281 227.433594 28.324219 226.742188 C 27.035156 226.054688 25.785156 225.304688 24.570312 224.492188 C 23.355469 223.679688 22.179688 222.8125 21.050781 221.882812 C 19.921875 220.957031 18.839844 219.976562 17.808594 218.941406 C 16.773438 217.910156 15.792969 216.828125 14.867188 215.699219 C 13.9375 214.566406 13.070312 213.394531 12.257812 212.179688 C 11.445312 210.964844 10.695312 209.714844 10.007812 208.425781 C 9.316406 207.136719 8.691406 205.816406 8.132812 204.464844 C 7.574219 203.113281 7.082031 201.742188 6.65625 200.34375 C 6.234375 198.945312 5.878906 197.527344 5.59375 196.09375 C 5.308594 194.660156 5.09375 193.214844 4.953125 191.761719 C 4.808594 190.308594 4.738281 188.851562 4.738281 187.386719 C 4.738281 185.925781 4.808594 184.46875 4.953125 183.015625 C 5.09375 181.558594 5.308594 180.117188 5.59375 178.683594 C 5.878906 177.25 6.234375 175.832031 6.65625 174.433594 C 7.082031 173.035156 7.574219 171.660156 8.132812 170.3125 C 8.691406 168.960938 9.316406 167.640625 10.007812 166.351562 C 10.695312 165.0625 11.445312 163.8125 12.257812 162.597656 C 13.070312 161.378906 13.9375 160.207031 14.867188 159.078125 C 15.792969 157.949219 16.773438 156.867188 17.808594 155.832031 C 18.839844 154.800781 19.921875 153.820312 21.050781 152.890625 C 22.179688 151.964844 23.355469 151.097656 24.570312 150.285156 C 25.785156 149.472656 27.035156 148.722656 28.324219 148.03125 C 29.613281 147.34375 30.933594 146.71875 32.285156 146.160156 C 33.632812 145.601562 35.007812 145.109375 36.40625 144.683594 C 37.804688 144.261719 39.222656 143.90625 40.65625 143.621094 C 42.089844 143.335938 43.53125 143.121094 44.988281 142.976562 C 46.441406 142.835938 47.898438 142.761719 49.363281 142.761719 C 50.824219 142.761719 52.28125 142.835938 53.734375 142.976562 C 55.191406 143.121094 56.632812 143.335938 58.066406 143.621094 C 59.5 143.90625 60.917969 144.261719 62.316406 144.683594 C 63.714844 145.109375 65.089844 145.601562 66.4375 146.160156 C 67.789062 146.71875 69.109375 147.34375 70.398438 148.03125 C 71.6875 148.722656 72.9375 149.472656 74.152344 150.285156 C 75.367188 151.097656 76.542969 151.964844 77.671875 152.890625 C 78.800781 153.820312 79.882812 154.800781 80.917969 155.832031 C 81.949219 156.867188 82.929688 157.949219 83.855469 159.078125 C 84.785156 160.207031 85.652344 161.378906 86.464844 162.597656 C 87.277344 163.8125 88.027344 165.0625 88.71875 166.351562 C 89.40625 167.640625 90.03125 168.960938 90.589844 170.3125 C 91.148438 171.660156 91.640625 173.035156 92.066406 174.433594 C 92.488281 175.832031 92.84375 177.25 93.128906 178.683594 C 93.414062 180.117188 93.628906 181.558594 93.773438 183.015625 C 93.914062 184.46875 93.988281 185.925781 93.988281 187.386719 Z M 93.988281 187.386719 " fill-opacity="1" fill-rule="nonzero" />
  </g>
  <g clip-path="url(#id2)">
    <path stroke-linecap="round" transform="matrix(0.232422, 0, 0, 0.232422, -10.138379, 127.88816)" fill="none" stroke-linejoin="miter" d="M 140.998746 195.002209 C 216.007152 175.002208 304.998753 179.993805 378.998756 219.00221 " stroke="rgb(23.139954%, 84.309387%, 37.249756%)" stroke-width="36" stroke-opacity="1" stroke-miterlimit="4" />
  </g>
  <g clip-path="url(#id3)">
    <path stroke-linecap="round" transform="matrix(0.232422, 0, 0, 0.232422, -10.138379, 127.88816)" fill="none" stroke-linejoin="miter" d="M 152.00715 257.002212 C 212.998749 239.993808 296.007156 243.993808 354.998755 281.002213 " stroke="rgb(23.139954%, 84.309387%, 37.249756%)" stroke-width="31" stroke-opacity="1" stroke-miterlimit="4" />
  </g>
  <g clip-path="url(#id4)">
    <path stroke-linecap="round" transform="matrix(0.232422, 0, 0, 0.232422, -10.138379, 127.88816)" fill="none" stroke-linejoin="miter" d="M 156.00715 315.002215 C 210.007152 303.002214 272.007155 297.99381 334.007158 335.002215 " stroke="rgb(23.139954%, 84.309387%, 37.249756%)" stroke-width="24" stroke-opacity="1" stroke-miterlimit="4" />
  </g>
  <path fill="rgb(76.469421%, 8.628845%, 14.898682%)" d="M 30.894531 193.179688 L 40.742188 193.179688 L 40.742188 213.960938 L 30.894531 213.960938 Z M 30.894531 193.179688 " fill-opacity="1" fill-rule="nonzero" />
  <path fill="rgb(76.469421%, 8.628845%, 14.898682%)" d="M 45.667969 183.667969 L 55.515625 183.667969 L 55.515625 213.960938 L 45.667969 213.960938 Z M 45.667969 183.667969 " fill-opacity="1" fill-rule="nonzero" />
  <path fill="rgb(76.469421%, 8.628845%, 14.898682%)" d="M 60.441406 171.808594 L 70.289062 171.808594 L 70.289062 213.960938 L 60.441406 213.960938 Z M 60.441406 171.808594 " fill-opacity="1" fill-rule="nonzero" />
  <g clip-path="url(#id5)">
    <path fill="rgb(0%, 0%, 0%)" d="M 74.335938 214.839844 L 26.234375 214.839844 C 25.75 214.839844 25.359375 214.445312 25.359375 213.960938 C 25.359375 213.476562 25.75 213.085938 26.234375 213.085938 L 74.335938 213.085938 C 74.820312 213.085938 75.210938 213.476562 75.210938 213.960938 C 75.210938 214.445312 74.820312 214.839844 74.335938 214.839844 Z M 74.335938 214.839844 " fill-opacity="1" fill-rule="nonzero" />
  </g>
  <g clip-path="url(#id6)">
    <path fill="rgb(0%, 0%, 0%)" d="M 23.070312 194.628906 C 22.871094 194.628906 22.667969 194.558594 22.503906 194.421875 C 22.136719 194.109375 22.089844 193.554688 22.402344 193.1875 L 29.523438 184.746094 C 29.804688 184.414062 30.285156 184.335938 30.65625 184.570312 L 34.464844 186.953125 L 44.996094 174.359375 C 45.269531 174.03125 45.742188 173.949219 46.109375 174.164062 L 50.398438 176.667969 L 63.707031 160.824219 C 64.015625 160.453125 64.570312 160.40625 64.9375 160.71875 C 65.308594 161.027344 65.355469 161.582031 65.046875 161.953125 L 51.261719 178.359375 C 50.988281 178.6875 50.519531 178.769531 50.152344 178.554688 L 45.863281 176.050781 L 35.320312 188.664062 C 35.039062 189 34.554688 189.078125 34.183594 188.84375 L 30.371094 186.457031 L 23.738281 194.316406 C 23.566406 194.523438 23.316406 194.628906 23.070312 194.628906 Z M 23.070312 194.628906 " fill-opacity="1" fill-rule="nonzero" />
  </g>
  <g clip-path="url(#id7)">
    <path fill="rgb(0%, 0%, 0%)" d="M 69.441406 155.59375 L 65.835938 166.804688 L 64.097656 161.957031 L 59.03125 161.070312 Z M 69.441406 155.59375 " fill-opacity="1" fill-rule="nonzero" />
  </g>
  <g fill="rgb(76.469421%, 8.628845%, 14.898682%)" fill-opacity="1">
    <g transform="translate(103.453197, 199.499987)">
      <g>
        <path d="M 9.839844 0.644531 C 14.410156 0.644531 19.289062 -1.128906 19.289062 -6.75 C 19.289062 -11.222656 16.167969 -13.152344 13.308594 -14.472656 C 10.453125 -15.789062 8.191406 -16.496094 8.191406 -17.941406 C 8.191406 -19.023438 9.261719 -19.382812 10.734375 -19.382812 C 12.179688 -19.382812 14.015625 -19.023438 15.585938 -18.488281 C 15.976562 -18.347656 16.261719 -18.519531 16.386719 -18.898438 L 17.546875 -22.851562 C 17.671875 -23.277344 17.546875 -23.527344 17.140625 -23.652344 C 14.941406 -24.328125 12.367188 -24.753906 10.515625 -24.753906 C 6.011719 -24.753906 1.664062 -22.757812 1.664062 -17.484375 C 1.664062 -13.71875 4.082031 -11.835938 6.875 -10.390625 C 9.699219 -8.929688 12.730469 -8.066406 12.730469 -6.464844 C 12.730469 -5.242188 11.535156 -4.789062 9.871094 -4.789062 C 8.128906 -4.789062 5.824219 -5.273438 3.765625 -5.949219 C 3.375 -6.074219 3.09375 -5.980469 2.949219 -5.554688 L 1.570312 -1.351562 C 1.445312 -0.925781 1.601562 -0.675781 2.023438 -0.550781 C 4.945312 0.28125 7.457031 0.644531 9.839844 0.644531 Z M 9.839844 0.644531 " />
      </g>
    </g>
  </g>
  <g fill="rgb(76.469421%, 8.628845%, 14.898682%)" fill-opacity="1">
    <g transform="translate(125.508279, 199.499987)">
      <g>
        <path d="M 11.960938 0 C 12.367188 0 12.605469 -0.21875 12.605469 -0.644531 L 12.605469 -18.648438 L 17.453125 -18.648438 C 17.878906 -18.648438 18.097656 -18.867188 18.097656 -19.289062 L 18.097656 -23.464844 C 18.097656 -23.890625 17.878906 -24.109375 17.453125 -24.109375 L 1.285156 -24.109375 C 0.863281 -24.109375 0.644531 -23.890625 0.644531 -23.464844 L 0.644531 -19.289062 C 0.644531 -18.867188 0.863281 -18.648438 1.285156 -18.648438 L 6.136719 -18.648438 L 6.136719 -0.644531 C 6.136719 -0.21875 6.371094 0 6.78125 0 Z M 11.960938 0 " />
      </g>
    </g>
  </g>
  <g fill="rgb(76.469421%, 8.628845%, 14.898682%)" fill-opacity="1">
    <g transform="translate(145.726973, 199.499987)">
      <g>
        <path d="M 13.277344 -24.109375 C 12.792969 -25.097656 12.023438 -25.097656 11.535156 -24.109375 L 0.488281 -0.769531 C 0.28125 -0.3125 0.488281 0 0.957031 0 L 6.625 0 C 6.96875 0 7.234375 -0.1875 7.363281 -0.519531 L 8.144531 -2.542969 L 16.667969 -2.542969 L 17.453125 -0.519531 C 17.578125 -0.1875 17.847656 0 18.191406 0 L 23.859375 0 C 24.328125 0 24.53125 -0.3125 24.328125 -0.769531 Z M 12.414062 -13.417969 L 14.785156 -7.363281 L 10.03125 -7.363281 Z M 12.414062 -13.417969 " />
      </g>
    </g>
  </g>
  <g fill="rgb(76.469421%, 8.628845%, 14.898682%)" fill-opacity="1">
    <g transform="translate(172.019861, 199.499987)">
      <g>
        <path d="M 11.960938 0 C 12.367188 0 12.605469 -0.21875 12.605469 -0.644531 L 12.605469 -18.648438 L 17.453125 -18.648438 C 17.878906 -18.648438 18.097656 -18.867188 18.097656 -19.289062 L 18.097656 -23.464844 C 18.097656 -23.890625 17.878906 -24.109375 17.453125 -24.109375 L 1.285156 -24.109375 C 0.863281 -24.109375 0.644531 -23.890625 0.644531 -23.464844 L 0.644531 -19.289062 C 0.644531 -18.867188 0.863281 -18.648438 1.285156 -18.648438 L 6.136719 -18.648438 L 6.136719 -0.644531 C 6.136719 -0.21875 6.371094 0 6.78125 0 Z M 11.960938 0 " />
      </g>
    </g>
  </g>
  <g fill="rgb(76.469421%, 8.628845%, 14.898682%)" fill-opacity="1">
    <g transform="translate(192.238555, 199.499987)">
      <g>
        <path d="M 9.839844 0.644531 C 14.410156 0.644531 19.289062 -1.128906 19.289062 -6.75 C 19.289062 -11.222656 16.167969 -13.152344 13.308594 -14.472656 C 10.453125 -15.789062 8.191406 -16.496094 8.191406 -17.941406 C 8.191406 -19.023438 9.261719 -19.382812 10.734375 -19.382812 C 12.179688 -19.382812 14.015625 -19.023438 15.585938 -18.488281 C 15.976562 -18.347656 16.261719 -18.519531 16.386719 -18.898438 L 17.546875 -22.851562 C 17.671875 -23.277344 17.546875 -23.527344 17.140625 -23.652344 C 14.941406 -24.328125 12.367188 -24.753906 10.515625 -24.753906 C 6.011719 -24.753906 1.664062 -22.757812 1.664062 -17.484375 C 1.664062 -13.71875 4.082031 -11.835938 6.875 -10.390625 C 9.699219 -8.929688 12.730469 -8.066406 12.730469 -6.464844 C 12.730469 -5.242188 11.535156 -4.789062 9.871094 -4.789062 C 8.128906 -4.789062 5.824219 -5.273438 3.765625 -5.949219 C 3.375 -6.074219 3.09375 -5.980469 2.949219 -5.554688 L 1.570312 -1.351562 C 1.445312 -0.925781 1.601562 -0.675781 2.023438 -0.550781 C 4.945312 0.28125 7.457031 0.644531 9.839844 0.644531 Z M 9.839844 0.644531 " />
      </g>
    </g>
  </g>
  <g fill="rgb(11.759949%, 84.309387%, 37.649536%)" fill-opacity="1">
    <g transform="translate(214.289127, 199.499987)">
      <g>
        <path d="M 9.839844 0.644531 C 14.410156 0.644531 19.289062 -1.128906 19.289062 -6.75 C 19.289062 -11.222656 16.167969 -13.152344 13.308594 -14.472656 C 10.453125 -15.789062 8.191406 -16.496094 8.191406 -17.941406 C 8.191406 -19.023438 9.261719 -19.382812 10.734375 -19.382812 C 12.179688 -19.382812 14.015625 -19.023438 15.585938 -18.488281 C 15.976562 -18.347656 16.261719 -18.519531 16.386719 -18.898438 L 17.546875 -22.851562 C 17.671875 -23.277344 17.546875 -23.527344 17.140625 -23.652344 C 14.941406 -24.328125 12.367188 -24.753906 10.515625 -24.753906 C 6.011719 -24.753906 1.664062 -22.757812 1.664062 -17.484375 C 1.664062 -13.71875 4.082031 -11.835938 6.875 -10.390625 C 9.699219 -8.929688 12.730469 -8.066406 12.730469 -6.464844 C 12.730469 -5.242188 11.535156 -4.789062 9.871094 -4.789062 C 8.128906 -4.789062 5.824219 -5.273438 3.765625 -5.949219 C 3.375 -6.074219 3.09375 -5.980469 2.949219 -5.554688 L 1.570312 -1.351562 C 1.445312 -0.925781 1.601562 -0.675781 2.023438 -0.550781 C 4.945312 0.28125 7.457031 0.644531 9.839844 0.644531 Z M 9.839844 0.644531 " />
      </g>
    </g>
  </g>
  <g fill="rgb(11.759949%, 84.309387%, 37.649536%)" fill-opacity="1">
    <g transform="translate(236.344209, 199.499987)">
      <g>
        <path d="M 8.191406 0 C 8.617188 0 8.835938 -0.21875 8.835938 -0.644531 L 8.835938 -8.222656 L 14.332031 -8.222656 C 18.898438 -8.222656 21.691406 -11.347656 21.691406 -16.355469 C 21.691406 -20.484375 19.839844 -24.109375 13.042969 -24.109375 L 3.027344 -24.109375 C 2.605469 -24.109375 2.386719 -23.890625 2.386719 -23.464844 L 2.386719 -0.644531 C 2.386719 -0.21875 2.605469 0 3.027344 0 Z M 8.835938 -18.648438 L 11.929688 -18.648438 C 13.214844 -18.648438 15.273438 -18.648438 15.273438 -16.292969 C 15.273438 -13.6875 12.824219 -13.6875 11.929688 -13.6875 L 8.835938 -13.6875 Z M 8.835938 -18.648438 " />
      </g>
    </g>
  </g>
  <g fill="rgb(11.759949%, 84.309387%, 37.649536%)" fill-opacity="1">
    <g transform="translate(260.643751, 199.499987)">
      <g>
        <path d="M 14.472656 0.644531 C 22.335938 0.644531 27.578125 -4.300781 27.578125 -12.054688 C 27.578125 -19.808594 22.335938 -24.753906 14.472656 -24.753906 C 6.625 -24.753906 1.414062 -19.808594 1.414062 -12.054688 C 1.414062 -4.300781 6.625 0.644531 14.472656 0.644531 Z M 14.472656 -5.148438 C 10.484375 -5.148438 7.847656 -7.785156 7.847656 -12.054688 C 7.847656 -16.324219 10.484375 -18.960938 14.472656 -18.960938 C 18.488281 -18.960938 21.15625 -16.324219 21.15625 -12.054688 C 21.15625 -7.785156 18.488281 -5.148438 14.472656 -5.148438 Z M 14.472656 -5.148438 " />
      </g>
    </g>
  </g>
  <g fill="rgb(11.759949%, 84.309387%, 37.649536%)" fill-opacity="1">
    <g transform="translate(291.111657, 199.499987)">
      <g>
        <path d="M 11.960938 0 C 12.367188 0 12.605469 -0.21875 12.605469 -0.644531 L 12.605469 -18.648438 L 17.453125 -18.648438 C 17.878906 -18.648438 18.097656 -18.867188 18.097656 -19.289062 L 18.097656 -23.464844 C 18.097656 -23.890625 17.878906 -24.109375 17.453125 -24.109375 L 1.285156 -24.109375 C 0.863281 -24.109375 0.644531 -23.890625 0.644531 -23.464844 L 0.644531 -19.289062 C 0.644531 -18.867188 0.863281 -18.648438 1.285156 -18.648438 L 6.136719 -18.648438 L 6.136719 -0.644531 C 6.136719 -0.21875 6.371094 0 6.78125 0 Z M 11.960938 0 " />
      </g>
    </g>
  </g>
  <g fill="rgb(11.759949%, 84.309387%, 37.649536%)" fill-opacity="1">
    <g transform="translate(311.330351, 199.499987)">
      <g>
        <path d="M 8.160156 0 C 8.585938 0 8.804688 -0.21875 8.804688 -0.644531 L 8.804688 -23.464844 C 8.804688 -23.890625 8.585938 -24.109375 8.160156 -24.109375 L 3.027344 -24.109375 C 2.605469 -24.109375 2.386719 -23.890625 2.386719 -23.464844 L 2.386719 -0.644531 C 2.386719 -0.21875 2.605469 0 3.027344 0 Z M 8.160156 0 " />
      </g>
    </g>
  </g>
  <g fill="rgb(11.759949%, 84.309387%, 37.649536%)" fill-opacity="1">
    <g transform="translate(323.968095, 199.499987)">
      <g>
        <path d="M 8.160156 0 C 8.585938 0 8.804688 -0.21875 8.804688 -0.644531 L 8.804688 -8.289062 L 16.558594 -8.289062 C 16.96875 -8.289062 17.203125 -8.523438 17.203125 -8.929688 L 17.203125 -12.792969 C 17.203125 -13.214844 16.96875 -13.4375 16.558594 -13.4375 L 8.804688 -13.4375 L 8.804688 -18.648438 L 18.035156 -18.648438 C 18.457031 -18.648438 18.679688 -18.867188 18.679688 -19.289062 L 18.679688 -23.464844 C 18.679688 -23.890625 18.457031 -24.109375 18.035156 -24.109375 L 3.027344 -24.109375 C 2.605469 -24.109375 2.386719 -23.890625 2.386719 -23.464844 L 2.386719 -0.644531 C 2.386719 -0.21875 2.605469 0 3.027344 0 Z M 8.160156 0 " />
      </g>
    </g>
  </g>
  <g fill="rgb(11.759949%, 84.309387%, 37.649536%)" fill-opacity="1">
    <g transform="translate(345.254093, 199.499987)">
      <g>
        <path d="M 15.492188 0 C 15.914062 0 16.136719 -0.21875 16.136719 -0.644531 L 16.136719 -9.230469 L 25.519531 -23.339844 C 25.820312 -23.746094 25.617188 -24.109375 25.097656 -24.109375 L 18.867188 -24.109375 C 18.519531 -24.109375 18.253906 -23.953125 18.097656 -23.652344 L 12.949219 -15.003906 L 7.878906 -23.652344 C 7.722656 -23.953125 7.457031 -24.109375 7.109375 -24.109375 L 0.863281 -24.109375 C 0.359375 -24.109375 0.15625 -23.746094 0.457031 -23.339844 L 9.699219 -9.230469 L 9.699219 -0.644531 C 9.699219 -0.21875 9.933594 0 10.34375 0 Z M 15.492188 0 " />
      </g>
    </g>
  </g>
</svg>