<?xml version="1.0" encoding="utf-8"?>
<svg xmlns="http://www.w3.org/2000/svg" width="157.5" viewBox="108.75 108.75 157.5 266.25" height="266.25" version="1.0">
  <defs>
    <clipPath id="a">
      <path d="M 164 145.527344 L 182 145.527344 L 182 163 L 164 163 Z M 164 145.527344" />
    </clipPath>
    <clipPath id="b">
      <path d="M 217 145.527344 L 235 145.527344 L 235 163 L 217 163 Z M 217 145.527344" />
    </clipPath>
    <clipPath id="c">
      <path d="M 163 174 L 183 174 L 183 229.527344 L 163 229.527344 Z M 163 174" />
    </clipPath>
    <clipPath id="d">
      <path d="M 190 193 L 209 193 L 209 229.527344 L 190 229.527344 Z M 190 193" />
    </clipPath>
    <clipPath id="e">
      <path d="M 217 174 L 236.398438 174 L 236.398438 229.527344 L 217 229.527344 Z M 217 174" />
    </clipPath>
    <clipPath id="f">
      <path d="M 138.898438 193 L 158 193 L 158 229.527344 L 138.898438 229.527344 Z M 138.898438 193" />
    </clipPath>
  </defs>
  <path fill="#1ED660" d="M 187.398438 261.917969 C 147.09375 262.21875 112.71875 229.109375 113.21875 186.738281 C 113.722656 146.179688 146.992188 112.96875 188.503906 113.574219 C 229.617188 114.175781 262.28125 148.292969 261.378906 189.253906 C 260.675781 229.410156 227.804688 262.117188 187.398438 261.917969 Z M 177.449219 152.824219 C 170.511719 152.824219 164.382812 153.226562 158.351562 153.929688 C 152.519531 154.632812 146.792969 155.742188 141.164062 157.453125 C 138.046875 158.457031 135.835938 161.578125 136.238281 164.496094 C 136.839844 169.328125 140.863281 171.945312 145.585938 170.535156 C 150.710938 169.027344 155.839844 168.019531 161.164062 167.414062 C 168.601562 166.507812 176.042969 166.308594 183.480469 166.710938 C 190.3125 167.011719 197.148438 167.816406 203.882812 169.226562 C 213.632812 171.238281 222.980469 174.359375 231.625 179.390625 C 234.339844 181 237.859375 180.296875 239.96875 177.882812 C 242.882812 174.660156 242.179688 169.628906 238.359375 167.316406 C 232.933594 163.992188 227.101562 161.476562 220.972656 159.464844 C 206.496094 154.835938 191.621094 152.921875 177.449219 152.824219 Z M 174.734375 189.957031 C 179.859375 189.957031 184.886719 190.363281 189.914062 191.066406 C 201.472656 192.777344 212.425781 196.199219 222.480469 202.238281 C 223.484375 202.839844 224.589844 203.144531 225.796875 203.042969 C 228.410156 202.839844 230.417969 201.128906 231.023438 198.613281 C 231.625 196.097656 230.621094 193.683594 228.308594 192.273438 C 222.679688 188.851562 216.648438 186.132812 210.316406 184.019531 C 196.949219 179.59375 183.277344 177.78125 169.207031 178.484375 C 161.164062 178.886719 153.226562 180.195312 145.484375 182.511719 C 142.269531 183.519531 140.558594 186.636719 141.464844 189.757812 C 142.371094 192.777344 145.585938 194.488281 148.703125 193.582031 C 157.246094 191.066406 165.890625 189.957031 174.734375 189.957031 Z M 175.839844 202.640625 C 173.730469 202.640625 171.71875 202.738281 169.609375 202.839844 C 162.269531 203.242188 155.035156 204.351562 147.796875 206.0625 C 146.289062 206.363281 145.183594 207.371094 144.582031 208.777344 C 143.875 210.488281 144.078125 212.101562 145.285156 213.40625 C 146.589844 215.019531 148.300781 215.320312 150.308594 214.917969 C 159.757812 212.804688 169.207031 211.597656 178.855469 211.898438 C 183.679688 212.101562 188.503906 212.601562 193.230469 213.609375 C 200.867188 215.21875 208.105469 218.039062 214.839844 222.0625 C 217.152344 223.472656 219.867188 222.769531 221.171875 220.554688 C 222.578125 218.339844 221.875 215.621094 219.464844 214.113281 C 217.453125 212.90625 215.34375 211.695312 213.132812 210.691406 C 201.371094 204.953125 188.90625 202.640625 175.839844 202.640625 Z M 175.839844 202.640625" />
  <path fill="#1ED660" d="M 177.449219 152.824219 C 191.621094 152.921875 206.496094 154.835938 220.871094 159.664062 C 226.902344 161.679688 232.730469 164.195312 238.257812 167.515625 C 242.078125 169.832031 242.78125 174.761719 239.867188 178.082031 C 237.757812 180.398438 234.339844 181.101562 231.523438 179.59375 C 222.882812 174.5625 213.53125 171.441406 203.785156 169.429688 C 197.050781 168.019531 190.214844 167.316406 183.378906 166.910156 C 175.941406 166.507812 168.503906 166.710938 161.066406 167.617188 C 155.839844 168.21875 150.609375 169.125 145.484375 170.738281 C 140.863281 172.144531 136.742188 169.527344 136.136719 164.699219 C 135.734375 161.78125 137.945312 158.558594 141.0625 157.652344 C 146.691406 155.941406 152.421875 154.835938 158.25 154.128906 C 164.382812 153.226562 170.414062 152.824219 177.449219 152.824219 Z M 177.449219 152.824219" />
  <path fill="#1ED660" d="M 174.734375 189.957031 C 165.890625 189.957031 157.246094 191.066406 148.703125 193.582031 C 145.585938 194.488281 142.367188 192.878906 141.464844 189.757812 C 140.558594 186.636719 142.269531 183.519531 145.484375 182.511719 C 153.226562 180.195312 161.164062 178.886719 169.207031 178.484375 C 183.277344 177.78125 196.949219 179.59375 210.316406 184.019531 C 216.648438 186.132812 222.578125 188.851562 228.308594 192.273438 C 230.621094 193.683594 231.625 196.097656 231.023438 198.613281 C 230.417969 201.027344 228.410156 202.738281 225.796875 203.042969 C 224.589844 203.144531 223.484375 202.839844 222.480469 202.238281 C 212.425781 196.199219 201.472656 192.777344 189.914062 191.066406 C 184.886719 190.363281 179.859375 189.957031 174.734375 189.957031 Z M 174.734375 189.957031" />
  <path fill="#1ED660" d="M 175.839844 202.640625 C 188.90625 202.640625 201.371094 205.054688 213.230469 210.691406 C 215.441406 211.695312 217.554688 212.90625 219.5625 214.113281 C 221.976562 215.523438 222.679688 218.238281 221.273438 220.554688 C 219.964844 222.769531 217.253906 223.472656 214.941406 222.0625 C 208.207031 218.039062 201.070312 215.21875 193.328125 213.609375 C 188.605469 212.601562 183.78125 212.101562 178.957031 211.898438 C 169.308594 211.597656 159.757812 212.804688 150.410156 214.917969 C 148.398438 215.320312 146.691406 215.019531 145.382812 213.40625 C 144.179688 212 143.976562 210.390625 144.679688 208.777344 C 145.285156 207.371094 146.390625 206.464844 147.898438 206.0625 C 155.035156 204.449219 162.269531 203.242188 169.707031 202.839844 C 171.71875 202.640625 173.730469 202.539062 175.839844 202.640625 Z M 175.839844 202.640625" />
  <path d="M 227.023438 155.484375 L 224.433594 152.773438 L 199.484375 176.480469 L 174.53125 152.773438 L 173.238281 154.128906 L 171.910156 152.808594 L 146.917969 177.746094 L 149.5625 180.390625 L 173.269531 156.742188 L 198.191406 180.421875 L 199.484375 179.066406 L 200.777344 180.421875 Z M 227.023438 155.484375" />
  <path fill="#FFF" d="M 156.675781 179.066406 C 156.675781 174.417969 152.898438 170.652344 148.238281 170.652344 C 143.578125 170.652344 139.804688 174.421875 139.804688 179.066406 C 139.804688 183.714844 143.582031 187.484375 148.238281 187.484375 C 152.902344 187.480469 156.675781 183.714844 156.675781 179.066406 Z M 156.675781 179.066406" />
  <g clip-path="url(#a)">
    <path fill="#FFF" d="M 181.671875 153.921875 C 181.683594 154.472656 181.644531 155.023438 181.546875 155.566406 C 181.453125 156.113281 181.308594 156.640625 181.109375 157.15625 C 180.910156 157.671875 180.660156 158.164062 180.363281 158.628906 C 180.066406 159.097656 179.730469 159.53125 179.347656 159.929688 C 178.964844 160.332031 178.546875 160.691406 178.09375 161.007812 C 177.640625 161.324219 177.164062 161.597656 176.65625 161.820312 C 176.148438 162.042969 175.625 162.21875 175.085938 162.339844 C 174.546875 162.460938 174 162.527344 173.445312 162.539062 C 172.890625 162.554688 172.339844 162.511719 171.796875 162.417969 C 171.25 162.324219 170.71875 162.175781 170.203125 161.976562 C 169.683594 161.78125 169.191406 161.53125 168.726562 161.238281 C 168.257812 160.941406 167.824219 160.601562 167.421875 160.222656 C 167.019531 159.839844 166.660156 159.425781 166.34375 158.972656 C 166.023438 158.519531 165.75 158.042969 165.527344 157.539062 C 165.300781 157.03125 165.128906 156.511719 165.007812 155.972656 C 164.886719 155.433594 164.820312 154.886719 164.804688 154.335938 C 164.792969 153.78125 164.832031 153.234375 164.929688 152.6875 C 165.023438 152.144531 165.167969 151.613281 165.367188 151.097656 C 165.566406 150.585938 165.816406 150.09375 166.113281 149.625 C 166.410156 149.160156 166.746094 148.726562 167.128906 148.324219 C 167.511719 147.925781 167.929688 147.566406 168.382812 147.25 C 168.835938 146.929688 169.3125 146.660156 169.820312 146.4375 C 170.328125 146.210938 170.851562 146.039062 171.390625 145.917969 C 171.929688 145.796875 172.476562 145.730469 173.03125 145.714844 C 173.585938 145.703125 174.136719 145.742188 174.679688 145.839844 C 175.226562 145.933594 175.757812 146.078125 176.273438 146.277344 C 176.789062 146.476562 177.285156 146.722656 177.75 147.019531 C 178.21875 147.316406 178.652344 147.652344 179.054688 148.035156 C 179.457031 148.414062 179.816406 148.832031 180.132812 149.285156 C 180.453125 149.734375 180.726562 150.214844 180.949219 150.71875 C 181.175781 151.222656 181.347656 151.746094 181.46875 152.285156 C 181.589844 152.824219 181.65625 153.371094 181.671875 153.921875 Z M 181.671875 153.921875" />
  </g>
  <path fill="#FFF" d="M 207.921875 179.066406 C 207.921875 174.417969 204.140625 170.652344 199.484375 170.652344 C 194.828125 170.652344 191.050781 174.421875 191.050781 179.066406 C 191.050781 183.714844 194.828125 187.484375 199.484375 187.484375 C 204.140625 187.480469 207.921875 183.714844 207.921875 179.066406 Z M 207.921875 179.066406" />
  <g clip-path="url(#b)">
    <path fill="#FFF" d="M 234.164062 153.921875 C 234.175781 154.472656 234.136719 155.023438 234.042969 155.566406 C 233.945312 156.109375 233.800781 156.640625 233.601562 157.15625 C 233.402344 157.671875 233.152344 158.164062 232.855469 158.628906 C 232.558594 159.097656 232.222656 159.527344 231.839844 159.929688 C 231.457031 160.328125 231.039062 160.6875 230.585938 161.007812 C 230.132812 161.324219 229.65625 161.597656 229.148438 161.820312 C 228.640625 162.042969 228.117188 162.214844 227.578125 162.335938 C 227.039062 162.457031 226.492188 162.523438 225.9375 162.539062 C 225.382812 162.550781 224.832031 162.511719 224.289062 162.417969 C 223.742188 162.324219 223.210938 162.175781 222.695312 161.976562 C 222.179688 161.777344 221.6875 161.53125 221.21875 161.234375 C 220.75 160.941406 220.316406 160.601562 219.914062 160.222656 C 219.511719 159.839844 219.152344 159.421875 218.835938 158.972656 C 218.515625 158.519531 218.242188 158.042969 218.019531 157.535156 C 217.796875 157.03125 217.621094 156.507812 217.5 155.96875 C 217.378906 155.429688 217.3125 154.886719 217.296875 154.332031 C 217.285156 153.78125 217.324219 153.234375 217.421875 152.6875 C 217.515625 152.144531 217.660156 151.613281 217.863281 151.097656 C 218.0625 150.582031 218.308594 150.09375 218.605469 149.625 C 218.902344 149.160156 219.242188 148.726562 219.621094 148.324219 C 220.003906 147.925781 220.421875 147.566406 220.875 147.246094 C 221.328125 146.929688 221.808594 146.660156 222.3125 146.433594 C 222.820312 146.210938 223.34375 146.039062 223.882812 145.917969 C 224.421875 145.796875 224.96875 145.730469 225.523438 145.714844 C 226.078125 145.703125 226.628906 145.742188 227.171875 145.835938 C 227.71875 145.929688 228.25 146.078125 228.765625 146.277344 C 229.285156 146.476562 229.777344 146.722656 230.242188 147.019531 C 230.710938 147.3125 231.144531 147.652344 231.546875 148.035156 C 231.949219 148.414062 232.308594 148.832031 232.628906 149.28125 C 232.945312 149.734375 233.21875 150.210938 233.441406 150.71875 C 233.667969 151.222656 233.839844 151.746094 233.960938 152.285156 C 234.082031 152.824219 234.148438 153.367188 234.164062 153.921875 Z M 234.164062 153.921875" />
  </g>
  <g clip-path="url(#c)">
    <path d="M 182.5 228.507812 C 182.5 229.0625 182.042969 229.515625 181.488281 229.515625 L 164.988281 229.515625 C 164.429688 229.515625 163.972656 229.066406 163.972656 228.507812 L 163.972656 175.539062 C 163.972656 174.980469 164.425781 174.527344 164.988281 174.527344 L 181.488281 174.527344 C 182.042969 174.527344 182.5 174.980469 182.5 175.539062 Z M 182.5 228.507812" />
  </g>
  <g clip-path="url(#d)">
    <path d="M 208.746094 228.507812 C 208.746094 229.0625 208.289062 229.515625 207.730469 229.515625 L 191.234375 229.515625 C 190.675781 229.515625 190.21875 229.066406 190.21875 228.507812 L 190.21875 194.628906 C 190.21875 194.074219 190.671875 193.617188 191.234375 193.617188 L 207.730469 193.617188 C 208.289062 193.617188 208.746094 194.070312 208.746094 194.628906 Z M 208.746094 228.507812" />
  </g>
  <g clip-path="url(#e)">
    <path d="M 236.285156 228.507812 C 236.285156 229.0625 235.832031 229.515625 235.273438 229.515625 L 218.773438 229.515625 C 218.214844 229.515625 217.757812 229.066406 217.757812 228.507812 L 217.757812 175.539062 C 217.757812 174.980469 218.214844 174.527344 218.773438 174.527344 L 235.273438 174.527344 C 235.832031 174.527344 236.285156 174.980469 236.285156 175.539062 Z M 236.285156 228.507812" />
  </g>
  <g clip-path="url(#f)">
    <path d="M 157.5 228.507812 C 157.5 229.0625 157.050781 229.515625 156.488281 229.515625 L 139.988281 229.515625 C 139.429688 229.515625 138.976562 229.066406 138.976562 228.507812 L 138.976562 194.628906 C 138.976562 194.074219 139.429688 193.617188 139.988281 193.617188 L 156.488281 193.617188 C 157.046875 193.617188 157.5 194.070312 157.5 194.628906 Z M 157.5 228.507812" />
  </g>
</svg>