<svg width="405" height="900" viewBox="0 0 405 900" fill="none" xmlns="http://www.w3.org/2000/svg">
<g clip-path="url(#clip0_1_638)">
<path d="M0 643.125L9.6 648.562C19.275 654.094 38.475 664.969 57.75 666.094C77.025 667.219 96.225 658.406 115.5 650.625C134.775 642.844 153.975 635.906 173.4 644.25C192.75 652.5 212.25 675.937 231.6 670.594C251.025 665.344 270.225 631.219 289.5 631.219C308.775 631.219 327.975 665.344 347.25 678C366.525 690.656 385.725 681.844 395.4 677.531L405 673.125V900.937H395.4C385.725 900.937 366.525 900.937 347.25 900.937C327.975 900.937 308.775 900.937 289.5 900.937C270.225 900.937 251.025 900.937 231.6 900.937C212.25 900.937 192.75 900.937 173.4 900.937C153.975 900.937 134.775 900.937 115.5 900.937C96.225 900.937 77.025 900.937 57.75 900.937C38.475 900.937 19.275 900.937 9.6 900.937H0V643.125Z" fill="#C31626"/>
<path d="M0 681.562L9.6 671.25C19.275 660.938 38.475 640.312 57.75 645C77.025 649.688 96.225 679.688 115.5 698.625C134.775 717.469 153.975 725.344 173.4 722.344C192.75 719.344 212.25 705.656 231.6 693.469C251.025 681.281 270.225 670.594 289.5 676.125C308.775 681.563 327.975 703.125 347.25 696.844C366.525 690.656 385.725 656.531 395.4 639.563L405 622.5V900.938H395.4C385.725 900.938 366.525 900.938 347.25 900.938C327.975 900.938 308.775 900.938 289.5 900.938C270.225 900.938 251.025 900.938 231.6 900.938C212.25 900.938 192.75 900.938 173.4 900.938C153.975 900.938 134.775 900.938 115.5 900.938C96.225 900.938 77.025 900.938 57.75 900.938C38.475 900.938 19.275 900.938 9.6 900.938H0V681.562Z" fill="#B31529"/>
<path d="M0 707.813L9.6 697.688C19.275 687.469 38.475 667.219 57.75 657.938C77.025 648.75 96.225 650.625 115.5 664.969C134.775 679.406 153.975 706.219 173.4 721.875C192.75 737.531 212.25 741.844 231.6 729.656C251.025 717.469 270.225 688.781 289.5 682.5C308.775 676.219 327.975 692.531 347.25 692.531C366.525 692.531 385.725 676.219 395.4 668.156L405 660V900.938H395.4C385.725 900.938 366.525 900.938 347.25 900.938C327.975 900.938 308.775 900.938 289.5 900.938C270.225 900.938 251.025 900.938 231.6 900.938C212.25 900.938 192.75 900.938 173.4 900.938C153.975 900.938 134.775 900.938 115.5 900.938C96.225 900.938 77.025 900.938 57.75 900.938C38.475 900.938 19.275 900.938 9.6 900.938H0V707.813Z" fill="#A2162B"/>
<path d="M0 742.5L9.6 736.219C19.275 730.031 38.475 717.469 57.75 718.125C77.025 718.781 96.225 732.469 115.5 734.25C134.775 735.937 153.975 725.625 173.4 723.562C192.75 721.594 212.25 727.781 231.6 721.875C251.025 715.969 270.225 697.781 289.5 691.875C308.775 685.969 327.975 692.156 347.25 703.875C366.525 715.594 385.725 732.844 395.4 741.375L405 750V900.938H395.4C385.725 900.938 366.525 900.938 347.25 900.938C327.975 900.938 308.775 900.938 289.5 900.938C270.225 900.938 251.025 900.938 231.6 900.938C212.25 900.938 192.75 900.938 173.4 900.938C153.975 900.938 134.775 900.938 115.5 900.938C96.225 900.938 77.025 900.938 57.75 900.938C38.475 900.938 19.275 900.938 9.6 900.938H0V742.5Z" fill="#91182C"/>
<path d="M0 720L9.6 725.906C19.275 731.906 38.475 743.719 57.75 742.312C77.025 740.906 96.225 726.281 115.5 722.156C134.775 718.125 153.975 724.688 173.4 734.719C192.75 744.656 212.25 758.156 231.6 760.781C251.025 763.406 270.225 755.344 289.5 746.719C308.775 738.094 327.975 729.094 347.25 730.312C366.525 731.531 385.725 743.156 395.4 748.875L405 754.688V900.938H395.4C385.725 900.938 366.525 900.938 347.25 900.938C327.975 900.938 308.775 900.938 289.5 900.938C270.225 900.938 251.025 900.938 231.6 900.938C212.25 900.938 192.75 900.938 173.4 900.938C153.975 900.938 134.775 900.938 115.5 900.938C96.225 900.938 77.025 900.938 57.75 900.938C38.475 900.938 19.275 900.938 9.6 900.938H0V720Z" fill="#80192C"/>
<path d="M0 776.25L9.6 783.094C19.275 790.031 38.475 803.719 57.75 802.031C77.025 800.344 96.225 783.094 115.5 775.969C134.775 768.75 153.975 771.563 173.4 771.281C192.75 770.906 212.25 767.531 231.6 773.625C251.025 779.719 270.225 795.281 289.5 796.688C308.775 798.094 327.975 785.344 347.25 786.281C366.525 787.219 385.725 801.844 395.4 809.25L405 816.563V900.937H395.4C385.725 900.937 366.525 900.937 347.25 900.937C327.975 900.937 308.775 900.937 289.5 900.937C270.225 900.937 251.025 900.937 231.6 900.937C212.25 900.937 192.75 900.937 173.4 900.937C153.975 900.937 134.775 900.937 115.5 900.937C96.225 900.937 77.025 900.937 57.75 900.937C38.475 900.937 19.275 900.937 9.6 900.937H0V776.25Z" fill="#6F1A2B"/>
<path d="M0 840L9.6 837.469C19.275 835.031 38.475 829.969 57.75 829.406C77.025 828.75 96.225 832.5 115.5 828C134.775 823.406 153.975 810.656 173.4 801.094C192.75 791.531 212.25 785.344 231.6 791.438C251.025 797.531 270.225 815.906 289.5 817.969C308.775 820.031 327.975 805.594 347.25 802.781C366.525 799.969 385.725 808.781 395.4 813.094L405 817.5V900.937H395.4C385.725 900.937 366.525 900.937 347.25 900.937C327.975 900.937 308.775 900.937 289.5 900.937C270.225 900.937 251.025 900.937 231.6 900.937C212.25 900.937 192.75 900.937 173.4 900.937C153.975 900.937 134.775 900.937 115.5 900.937C96.225 900.937 77.025 900.937 57.75 900.937C38.475 900.937 19.275 900.937 9.6 900.937H0V840Z" fill="#5F1A28"/>
<path d="M0 842.812L9.6 840C19.275 837.187 38.475 831.562 57.75 829.5C77.025 827.531 96.225 829.031 115.5 827.625C134.775 826.219 153.975 821.906 173.4 826.406C192.75 830.906 212.25 844.406 231.6 846.375C251.025 848.437 270.225 839.062 289.5 832.5C308.775 825.937 327.975 822.187 347.25 824.062C366.525 825.937 385.725 833.437 395.4 837.187L405 840.937V900.938H395.4C385.725 900.938 366.525 900.938 347.25 900.938C327.975 900.938 308.775 900.938 289.5 900.938C270.225 900.938 251.025 900.938 231.6 900.938C212.25 900.938 192.75 900.938 173.4 900.938C153.975 900.938 134.775 900.938 115.5 900.938C96.225 900.938 77.025 900.938 57.75 900.938C38.475 900.938 19.275 900.938 9.6 900.938H0V842.812Z" fill="#4E1A25"/>
<path d="M0 870.938L9.6 869.25C19.275 867.469 38.475 864.094 57.75 861.844C77.025 859.688 96.225 858.75 115.5 859.031C134.775 859.406 153.975 860.906 173.4 864.188C192.75 867.469 212.25 872.531 231.6 873.094C251.025 873.75 270.225 870 289.5 864.844C308.775 859.688 327.975 853.125 347.25 854.063C366.525 855 385.725 863.438 395.4 867.656L405 871.875V900.938H395.4C385.725 900.938 366.525 900.938 347.25 900.938C327.975 900.938 308.775 900.938 289.5 900.938C270.225 900.938 251.025 900.938 231.6 900.938C212.25 900.938 192.75 900.938 173.4 900.938C153.975 900.938 134.775 900.938 115.5 900.938C96.225 900.938 77.025 900.938 57.75 900.938C38.475 900.938 19.275 900.938 9.6 900.938H0V870.938Z" fill="#3E1921"/>
</g>
<defs>
<clipPath id="clip0_1_638">
<rect width="405" height="900" fill="white"/>
</clipPath>
</defs>
</svg>
