<svg width="957" height="977" viewBox="0 0 957 977" fill="none" xmlns="http://www.w3.org/2000/svg">
<path fill-rule="evenodd" clip-rule="evenodd" d="M381.2 639.8C324.8 565 387.3 485.4 444.6 433.7C573.9 263.1 291 455 204 397.8C65.8 283 354.8 119.7 387.6 106.6C499.3 62 628.8 31.3 696.2 140.4C696.3 140.6 696.4 140.8 696.5 141C729 207.5 610.5 229 650.6 277.1C683.1 316.1 783.4 255.6 783.4 346.5C796.6 438.6 459.6 681.3 381.2 639.8Z" fill="#1ED760"/>
<path fill-rule="evenodd" clip-rule="evenodd" d="M548.7 66C513.3 67.2 476 75.8 439.2 87.8C447.1 92.9 456.6 95.9 466 97.5C486.8 99.7 506.5 98.6 525.2 88.7C535.1 82.9 542.7 75 548.7 66Z" fill="#C31626" stroke="#1C2628" stroke-width="2.13" stroke-linecap="round" stroke-linejoin="round"/>
<path fill-rule="evenodd" clip-rule="evenodd" d="M580.9 121.6C549.5 121.6 533 150.5 537.1 178.2C574.5 157.9 610.3 166.3 649.8 158C665.8 154.6 681.5 148.7 696.5 141C696.4 140.8 696.3 140.6 696.2 140.4C686 124 674.5 110.7 661.8 100.2C651.9 107.9 642.1 116.2 631.3 122.7C616 132.5 598.5 121.6 580.9 121.6Z" fill="#1C2628" stroke="#1C2628" stroke-width="2.13" stroke-linecap="round" stroke-linejoin="round"/>
<path fill-rule="evenodd" clip-rule="evenodd" d="M437.4 156.6C438.5 146.7 428.6 139.1 419.9 139.1C408.9 138.6 396.7 136.3 384.8 135.5C384.8 146.1 385.9 158.5 393.7 169.6C401.2 180.4 407.9 180 411.1 189.3C425.1 183.3 435.4 173.3 437.4 156.6Z" fill="#1C2628" stroke="#1C2628" stroke-width="2.13" stroke-linecap="round" stroke-linejoin="round"/>
<path fill-rule="evenodd" clip-rule="evenodd" d="M548.7 66C542.8 75.1 535.2 82.9 525.1 88.7C506.5 98.6 486.8 99.7 465.9 97.5C456.6 95.9 447 92.9 439.1 87.8C421.7 93.5 404.4 99.9 387.5 106.6C386 114.9 385.1 122.5 384.9 128.7C384.8 130.8 384.8 133.1 384.8 135.4C396.7 136.2 408.9 138.5 419.9 139C428.7 139 438.5 146.7 437.4 156.5C435.3 173.1 425 183.1 411.1 189.2C411.1 189.3 411.2 189.4 411.2 189.5C416.2 204.7 394.5 261.9 469.9 266.3C478 241.2 493.6 207.6 525.6 185.2C529.4 182.5 533.2 180.2 537 178.1C532.9 150.4 549.4 121.5 580.8 121.5C598.3 121.5 615.9 132.5 631.2 122.6C642 116.1 651.8 107.8 661.7 100.1C629.8 73.7 590.7 64.6 548.7 66Z" fill="#C31626" stroke="#1C2628" stroke-width="2.13" stroke-linecap="round" stroke-linejoin="round"/>
<path fill-rule="evenodd" clip-rule="evenodd" d="M372.6 357.8C382.5 333 385.6 305.1 407.9 287.7C425.1 274.3 457.3 260.7 479.7 265.2C502.7 269.8 506.7 305.1 498.4 322.6C492.8 334.2 481.9 341.3 471.2 347.7" fill="#C31626"/>
<path d="M372.6 357.8C382.5 333 385.6 305.1 407.9 287.7C425.1 274.3 457.3 260.7 479.7 265.2C502.7 269.8 506.7 305.1 498.4 322.6C492.8 334.2 481.9 341.3 471.2 347.7" stroke="#1C2628" stroke-width="2.13" stroke-linecap="round" stroke-linejoin="round"/>
<path fill-rule="evenodd" clip-rule="evenodd" d="M449.3 281.9L448.9 307.6L455.4 315.2C455.4 315.2 501.8 477.7 491.6 483.7C485.9 487.1 393.3 508.3 384.4 505.5C376 502.8 408 339.3 403.8 338.3C396.1 336.3 408.4 320.3 408.4 320.3L409.2 290.8L408.5 279.3L449.3 281.9Z" fill="#F45B49" stroke="#1C2628" stroke-width="2.13" stroke-linecap="round" stroke-linejoin="round"/>
<path fill-rule="evenodd" clip-rule="evenodd" d="M376.9 365.8L374.5 405.9L488.7 406.5L501.5 359.1L376.9 365.8Z" fill="#1C2628" stroke="#1C2628" stroke-width="2.13" stroke-linecap="round" stroke-linejoin="round"/>
<path fill-rule="evenodd" clip-rule="evenodd" d="M313.4 383.4L250.7 442.1L150.8 488.4C150.8 488.4 126.5 509.6 126.5 520.9C126.5 532.2 144.2 543.5 144.2 543.5C144.2 543.5 147.7 544.6 147.7 535.4C147.8 526.3 141 520.2 141 520.2L168.2 503.8C168.2 503.8 160.3 526.5 163.3 532.6C166.3 538.7 174.5 535.2 174.5 535.2L189.9 510.1C189.9 510.1 235.3 504.6 278.8 480.5C322.3 456.4 364 413.6 364 413.6" fill="#F45B49"/>
<path d="M313.4 383.4L250.7 442.1L150.8 488.4C150.8 488.4 126.5 509.6 126.5 520.9C126.5 532.2 144.2 543.5 144.2 543.5C144.2 543.5 147.7 544.6 147.7 535.4C147.8 526.3 141 520.2 141 520.2L168.2 503.8C168.2 503.8 160.3 526.5 163.3 532.6C166.3 538.7 174.5 535.2 174.5 535.2L189.9 510.1C189.9 510.1 235.3 504.6 278.8 480.5C322.3 456.4 364 413.6 364 413.6" stroke="#1C2628" stroke-width="2.13" stroke-linecap="round" stroke-linejoin="round"/>
<path fill-rule="evenodd" clip-rule="evenodd" d="M158.1 887.3C171.4 869.9 159.9 829.6 187.7 833.3L233.2 768.2L167.4 760.1C167.4 760.1 153.6 786.4 139.5 816.2C136.3 822.9 125.6 830.8 123.5 837.5C121.2 845.1 126.5 851 125.7 858C122.7 884.3 122.3 905.6 122.3 905.6C122.3 905.6 127.3 908.7 131.2 907.8C135.2 906.8 138.1 901.8 138.1 901.8C138.1 901.8 138.8 903 139.8 904.4C139.9 903.2 140.1 901.9 140.4 900.6C142.8 891.7 153.7 891.7 158.1 887.3Z" fill="#F45B49" stroke="#1C2628" stroke-width="2.13" stroke-linecap="round" stroke-linejoin="round"/>
<path fill-rule="evenodd" clip-rule="evenodd" d="M158.1 887.3C153.7 891.7 142.8 891.7 140.6 900.4C140.3 901.7 140.1 903 140 904.2C141.7 906.5 144.3 909.4 146.8 909.3C156.1 908.8 159.6 903.4 159.6 903.4C159.6 903.4 160.2 908.6 166.2 908.8C172.2 909.1 183.6 904.3 183.6 904.3L179 891.4L173.7 853.2L187.7 833.1C159.9 829.6 171.4 869.9 158.1 887.3Z" fill="#1C2628" stroke="#1C2628" stroke-width="2.13" stroke-linecap="round" stroke-linejoin="round"/>
<path fill-rule="evenodd" clip-rule="evenodd" d="M508.6 890.6C507.5 873.1 521.7 856.6 507.5 836.9C502.8 829.8 508.3 824.4 515.4 822.8L496.2 771.4L451.2 792.2L485.8 874.1L464.8 915L464.4 915.8C464.4 915.8 460.6 920.8 475.5 921.9L483.7 917.3C483.7 917.3 481.5 923.3 491.5 924.7C494.3 925.1 496.9 920 503.5 919C503.5 919 506.4 928.3 511.9 925.8C523.1 913.9 508.6 901.2 508.6 890.6Z" fill="#F45B49" stroke="#1C2628" stroke-width="2.13" stroke-linecap="round" stroke-linejoin="round"/>
<path fill-rule="evenodd" clip-rule="evenodd" d="M528.9 857.5C526 850.2 523.4 844.2 523.4 844.2L515.4 822.7C508.3 824.3 502.8 829.7 507.5 836.8C521.7 856.5 507.5 872.9 508.6 890.5C508.6 901.1 523.1 913.8 511.9 925.6C512.9 925.2 513.9 924.4 515 923.1C519.6 917.9 525.8 873.8 525.8 873.8C525.8 873.8 533 867.8 528.9 857.5Z" fill="#1C2628" stroke="#1C2628" stroke-width="2.13" stroke-linecap="round" stroke-linejoin="round"/>
<path fill-rule="evenodd" clip-rule="evenodd" d="M398 262.1C388.9 232.9 400.9 210.3 442.6 215.6C447.5 216.2 453.2 216.8 457.5 219.3C477.3 230.8 476 247 476 247C476 247 507.1 277.9 486 289.6C464.9 301.4 424.7 304.4 402.8 297.5C380.7 290.6 398 262.1 398 262.1Z" fill="#1C2628" stroke="#1C2628" stroke-width="2.13" stroke-linecap="round" stroke-linejoin="round"/>
<path fill-rule="evenodd" clip-rule="evenodd" d="M454.5 266.5C456.3 260.1 455.6 247.2 454.1 241.4C451.2 230.8 449.2 231.5 438.4 228.6C426.3 225.3 419.5 224.4 411.7 234C408.7 237.7 399.6 251.7 398.2 256.8C393.2 274.8 402.8 293.2 419.5 297.8C430.2 300.7 439 299.8 446.8 292.3C451.2 287.9 452.7 273 454.5 266.5Z" fill="#F45B49" stroke="#1C2628" stroke-width="2.13" stroke-linecap="round" stroke-linejoin="round"/>
<path fill-rule="evenodd" clip-rule="evenodd" d="M430.3 264.9C431.1 262.4 428.8 259.4 425.2 258.2C421.5 257 417.9 258 417.1 260.5C416.3 263 418.6 266 422.2 267.2C425.8 268.4 429.4 267.4 430.3 264.9Z" fill="#FAFCFF" stroke="#1C2628" stroke-width="2.13" stroke-linecap="round" stroke-linejoin="round"/>
<path fill-rule="evenodd" clip-rule="evenodd" d="M408.6 254.9C409.4 252.4 407.1 249.4 403.5 248.2C399.8 247 396.2 248.1 395.4 250.5C394.6 253 396.9 256 400.5 257.2C404.1 258.4 407.7 257.4 408.6 254.9Z" fill="#FAFCFF" stroke="#1C2628" stroke-width="2.13" stroke-linecap="round" stroke-linejoin="round"/>
<path fill-rule="evenodd" clip-rule="evenodd" d="M445.5 310.6L448.1 284.3C448.1 284.3 426.9 279.6 421.9 285.1C416.8 290.6 422.2 308.6 422.2 308.6L434.9 310.5" fill="#FB564C"/>
<path fill-rule="evenodd" clip-rule="evenodd" d="M451.1 268.4C453.5 265.5 458.3 268.4 459.2 271.2C461.1 277 456.7 286.7 447.6 280.9" fill="#F45B49"/>
<path d="M451.1 268.4C453.5 265.5 458.3 268.4 459.2 271.2C461.1 277 456.7 286.7 447.6 280.9" stroke="#1C2628" stroke-width="2.13" stroke-linecap="round" stroke-linejoin="round"/>
<path fill-rule="evenodd" clip-rule="evenodd" d="M418.8 265.9C420.6 267 422.7 266.8 423.6 265.4C424.5 264 423.8 261.9 422.1 260.8C420.3 259.7 418.2 259.9 417.3 261.3C416.4 262.8 417.1 264.8 418.8 265.9Z" fill="#1C2628" stroke="#1C2628" stroke-width="2.13" stroke-linecap="round" stroke-linejoin="round"/>
<path fill-rule="evenodd" clip-rule="evenodd" d="M401.7 255.2C402.9 253.5 402.5 250.6 397.9 249.8C396.2 249.5 396.4 250.3 395.2 252C394 253.7 395.6 255.7 397 256.6C398.5 257.6 400.6 256.9 401.7 255.2Z" fill="#1C2628" stroke="#1C2628" stroke-width="2.13" stroke-linecap="round" stroke-linejoin="round"/>
<path d="M453.5 274.1C453.3 274.3 453.2 274.5 453 274.7" stroke="#1C2628" stroke-width="2.13" stroke-linecap="round" stroke-linejoin="round"/>
<path fill-rule="evenodd" clip-rule="evenodd" d="M428.2 274.3C425.9 279.3 419.1 277.5 414.3 279.2C414.3 279.2 418.1 287.4 426.1 283.1C431.4 280.3 428.2 274.3 428.2 274.3Z" fill="#1C2628" stroke="#1C2628" stroke-width="2.13" stroke-linecap="round" stroke-linejoin="round"/>
<path fill-rule="evenodd" clip-rule="evenodd" d="M413 254L440.6 262.5C440.6 262.5 431.6 273 424.2 271.1C411.3 267.7 413 254 413 254Z" fill="#1C2628" stroke="#1C2628" stroke-width="2.13" stroke-linecap="round" stroke-linejoin="round"/>
<path fill-rule="evenodd" clip-rule="evenodd" d="M387 247.2L413.2 254.1C413.2 254.1 407.1 266.1 394.6 262C382.1 257.9 387 247.2 387 247.2Z" fill="#1C2628" stroke="#1C2628" stroke-width="2.13" stroke-linecap="round" stroke-linejoin="round"/>
<path fill-rule="evenodd" clip-rule="evenodd" d="M411.3 258.6C411.3 258.6 397.5 267.9 398.2 270C400.8 278.2 407.7 272 408.9 272.3" fill="#F45B49"/>
<path d="M411.3 258.6C411.3 258.6 397.5 267.9 398.2 270C400.8 278.2 407.7 272 408.9 272.3" stroke="#1C2628" stroke-width="2.13" stroke-linecap="round" stroke-linejoin="round"/>
<path fill-rule="evenodd" clip-rule="evenodd" d="M545.6 804.1C529.3 810.1 512.3 814.1 495.1 818.3C482.3 821.4 469.5 824.4 456.9 828.4C452.6 829.7 446.1 834 443.5 830.3C415.5 790.5 391.6 747.9 369.7 704.5C367.9 701 367.2 696.2 367.2 690.6C367.3 659.1 391.5 600.3 395 580.2C362.6 637.4 369.8 630.4 329.9 680.1C310.2 704.7 216.9 830.6 216.9 830.6L127.2 772.8L127.9 772L219.7 665.5C219.7 665.5 296.7 545.9 326.8 504.1C327.9 502.6 328.9 501.1 329.9 499.8C375.3 438.3 366.2 459.2 430.7 463.4C452.4 464.8 494.9 454.2 519.2 470.4C564 500.3 495.2 596.8 488.2 627.9C475.6 684.5 519.3 756.7 545.6 804.1Z" fill="#1C2628" stroke="#1C2628" stroke-width="2.13" stroke-linecap="round" stroke-linejoin="round"/>
<path fill-rule="evenodd" clip-rule="evenodd" d="M636.2 242.6C623.7 207.9 489 203.1 489 203.1L460.7 179.3C460.7 179.3 427.6 192.4 424 196.8C420.3 201.2 455.2 197.4 455.2 197.4C455.2 197.4 462.3 227.4 474.5 232.8C480.7 235.5 485.8 229.5 494.1 232.1C525 241.8 566.9 258.7 566.9 258.7L488 324.2L541.5 359.6C541.5 359.6 648.7 277.3 636.2 242.6Z" fill="#F45B49" stroke="#1C2628" stroke-width="2.13" stroke-linecap="round" stroke-linejoin="round"/>
<path fill-rule="evenodd" clip-rule="evenodd" d="M528.1 384.7C528.1 384.7 537 463.9 545.1 501.1C545.4 502.6 545.7 504 546.1 505.3C510.6 496.1 481.1 493.3 445.1 500.2C444 466.5 444.6 340 444.6 340L458.3 312.4L525.7 285.2C525.7 285.2 552.1 323.4 569.7 344.2C569.3 344.5 569 344.9 568.6 345.2C551.1 361.4 528.1 384.7 528.1 384.7Z" fill="#C31626" stroke="#1C2628" stroke-width="2.13" stroke-linecap="round" stroke-linejoin="round"/>
<path fill-rule="evenodd" clip-rule="evenodd" d="M528.1 384.7C528.1 384.7 537 463.9 545.1 501.1C533 497.1 520.3 487.4 516.9 476.3C514.3 467.9 518.9 464.8 516.4 451C514.4 439.6 510.6 437.6 503.7 420.3C497.4 404.4 494.3 396.5 495.9 391.1C499.4 379.6 511.7 381.6 534.4 361.4C541.8 354.8 542.9 352.5 548.5 349.7C554.4 346.8 561.8 345.1 568.4 345.2C551.1 361.4 528.1 384.7 528.1 384.7Z" fill="#1C2628" stroke="#1C2628" stroke-width="2.13" stroke-linecap="round" stroke-linejoin="round"/>
<path fill-rule="evenodd" clip-rule="evenodd" d="M405.4 494.2C405.7 500.5 406.2 506.2 406.5 512.2C403.8 512.7 400.9 513 397.9 513.1C385.7 513.7 375.8 513.6 367.7 513.2C339 511.6 333 505.4 333 505.4L345.3 457L351 434.7L343.6 437.4L296.4 392.9C296.4 392.9 325.2 353.1 351.9 333.9C378.6 314.7 403.2 316.2 403.2 316.2C403.8 318.8 419.3 339.2 419.3 339.2C419.3 339.2 404.7 480.9 405.4 494.2Z" fill="#C31626" stroke="#1C2628" stroke-width="2.13" stroke-linecap="round" stroke-linejoin="round"/>
<path fill-rule="evenodd" clip-rule="evenodd" d="M500.9 288.7C503.3 322 490.6 335 474.7 350.9C470.7 354.9 448.1 373.2 448.1 377.9" fill="#C31626"/>
<path d="M500.9 288.7C503.3 322 490.6 335 474.7 350.9C470.7 354.9 448.1 373.2 448.1 377.9" stroke="#1C2628" stroke-width="2.13" stroke-linecap="round" stroke-linejoin="round"/>
<path fill-rule="evenodd" clip-rule="evenodd" d="M410.1 376.8L410.2 377.2C410.2 377.1 410.1 377 410.1 376.9C403.7 362.7 388.8 343.4 387.6 325.4C387.2 319.6 388.3 314 391.4 308.7" fill="#C31626"/>
<path d="M410.1 376.8L410.2 377.2C410.2 377.1 410.1 377 410.1 376.9C403.7 362.7 388.8 343.4 387.6 325.4C387.2 319.6 388.3 314 391.4 308.7" stroke="#1C2628" stroke-width="2.13" stroke-linecap="round" stroke-linejoin="round"/>
<path fill-rule="evenodd" clip-rule="evenodd" d="M420.5 224C443.3 221.7 424.8 253.4 452 253.4C452.8 253.4 462.2 251.9 462.1 250.9C462 249.7 459.7 249.8 458.9 249C456.8 246.9 456.2 244.6 455.7 241.8C455 238.4 458 231.3 455.1 228.7C450.4 224.4 440.6 228.4 435.2 228.9" fill="#1C2628"/>
<path d="M420.5 224C443.3 221.7 424.8 253.4 452 253.4C452.8 253.4 462.2 251.9 462.1 250.9C462 249.7 459.7 249.8 458.9 249C456.8 246.9 456.2 244.6 455.7 241.8C455 238.4 458 231.3 455.1 228.7C450.4 224.4 440.6 228.4 435.2 228.9" stroke="#1C2628" stroke-width="2.13" stroke-linecap="round" stroke-linejoin="round"/>
<path fill-rule="evenodd" clip-rule="evenodd" d="M165 507.4L142.8 511.7C142.8 511.7 135.7 524.6 141.5 529.7C147.3 534.8 164.2 535.8 164.2 535.8L180.3 525L172.7 516.3L165 507.4Z" fill="#C31626" stroke="#1C2628" stroke-width="2.13" stroke-linecap="round" stroke-linejoin="round"/>
<path fill-rule="evenodd" clip-rule="evenodd" d="M151 518.6C151 507.5 160 498.6 171.2 498.6C182.3 498.6 191.4 507.6 191.4 518.6C191.4 529.7 182.4 538.6 171.2 538.6C160 538.6 151 529.7 151 518.6Z" fill="#1C2628" stroke="#1C2628" stroke-width="2.13" stroke-linecap="round" stroke-linejoin="round"/>
<path d="M162.7 742.2C208 715 177 765 170.5 762.4C148.9 753.6 241.3 713.7 208 758" stroke="#C31626" stroke-width="2.13" stroke-linecap="round" stroke-linejoin="round"/>
<path d="M257.3 664C293.8 634.5 304.5 656 273.3 676.9C272.5 677.4 271.5 676.5 272.1 675.7C282.7 661 333.9 641.8 308.7 675.5" stroke="#C31626" stroke-width="2.13" stroke-linecap="round" stroke-linejoin="round"/>
<path d="M307.3 550.7C345.4 520 333.3 564.1 309.1 566.2C305.2 555.3 368 534.2 340.7 557.6" stroke="#C31626" stroke-width="2.13" stroke-linecap="round" stroke-linejoin="round"/>
<path d="M405.2 547.2C432.7 509.5 454.1 537.3 426.1 555.5C423.5 557.2 420.7 553.5 423.1 551.5C440.2 537.7 474.1 525.1 457.1 558" stroke="#C31626" stroke-width="2.13" stroke-linecap="round" stroke-linejoin="round"/>
<path d="M386.7 665.7C417.7 640.1 419.8 666.6 402.1 681.9C400.4 683.4 397.9 681 399.4 679.3C407.5 669.5 431.9 660.2 428.2 679.6" stroke="#C31626" stroke-width="2.13" stroke-linecap="round" stroke-linejoin="round"/>
<path d="M493.9 530.5C496.2 523.1 521.7 511.7 524.5 518.4C523.6 522.1 510.3 542.1 504.9 536.4C501.7 533 519 517.9 520.5 530.3" stroke="#C31626" stroke-width="2.13" stroke-linecap="round" stroke-linejoin="round"/>
<path d="M423.3 766.4C446 734.2 482.7 746.1 447.1 773.9C450.2 764.9 477.6 744.7 474.2 768.3" stroke="#C31626" stroke-width="2.13" stroke-linecap="round" stroke-linejoin="round"/>
<path d="M493.9 626.6C491 640.6 480.3 643 473.2 655.4" stroke="#C31626" stroke-width="2.13" stroke-linecap="round" stroke-linejoin="round"/>
<path d="M472.2 602.5C461.7 621.1 429.4 676.8 476 660.6C477.7 662.5 478 664.8 477.5 667.3C476 691.2 495.6 710.4 490.3 736.2" stroke="#C31626" stroke-width="2.13" stroke-linecap="round" stroke-linejoin="round"/>
<path d="M217 793.1C237.4 762.8 232.3 770.4 254 741" stroke="#C31626" stroke-width="2.13" stroke-linecap="round" stroke-linejoin="round"/>
<path d="M247.9 762.9C267.4 745.7 270.6 690.7 294.8 700C305 703.9 290.2 714.1 289.3 715.1C273.8 727.4 305.7 680.1 320.7 684.2" stroke="#C31626" stroke-width="2.13" stroke-linecap="round" stroke-linejoin="round"/>
<path d="M354 627C366 614 385 580.1 393 566" stroke="#C31626" stroke-width="2.13" stroke-linecap="round" stroke-linejoin="round"/>
<path d="M391.7 539.6C396.5 552.3 391.3 566 394 579.2" stroke="#C31626" stroke-width="2.13" stroke-linecap="round" stroke-linejoin="round"/>
<path d="M566 259C570.6 256.4 578.3 251.6 585 247.8" stroke="#1C2628" stroke-width="2.13" stroke-linecap="round" stroke-linejoin="round"/>
<path d="M251 442C249.2 446.2 252.7 450.6 252.7 455.1" stroke="#1C2628" stroke-width="2.13" stroke-linecap="round" stroke-linejoin="round"/>
<path d="M253.2 477.7C268.5 472.6 281.6 462.2 295.1 453.3C304.5 447.2 314.1 437.9 322.2 429.8" stroke="#1C2628" stroke-width="2.13" stroke-linecap="round" stroke-linejoin="round"/>
<path d="M293.8 460.1C304.9 455.3 314.4 447.5 324 440.2" stroke="#1C2628" stroke-width="2.13" stroke-linecap="round" stroke-linejoin="round"/>
<path d="M555.9 311.7C561.7 307.7 567.5 303.7 573.9 300.9C579.9 298.2 574.7 305.3 578.9 301.4C583.5 297.1 586.7 292.2 592 288.8C596.7 285.7 601.1 285.7 605.5 281.6C612.5 275.1 617.7 266.7 624.4 259.9" stroke="#1C2628" stroke-width="2.13" stroke-linecap="round" stroke-linejoin="round"/>
<path d="M573.5 316.2C579.6 311.1 585.5 306 591.5 300.9" stroke="#1C2628" stroke-width="2.13" stroke-linecap="round" stroke-linejoin="round"/>
<path d="M527.1 382.6C523.5 387.2 514.9 361.6 520.9 367.9C522.2 369.3 523.2 370.9 524.1 372.5C525.2 374.5 526.4 376.6 527.1 378.9C527.4 380 527.9 381.6 527.1 382.6Z" stroke="#1C2628" stroke-width="2.13" stroke-linecap="round" stroke-linejoin="round"/>
<path d="M350.6 434.2C351.9 426.9 355 419.9 358.6 413.3C359.6 411.5 361.5 409.6 363.5 409.8C364.8 409.9 363.8 412.5 363.5 413.7C362.2 417.8 360.3 421.6 358.7 425.6" stroke="#1C2628" stroke-width="2.13" stroke-linecap="round" stroke-linejoin="round"/>
<path d="M388.7 387.9C388.6 387.5 388.4 386.5 388.5 386.8C390.7 392.6 393.6 398.1 394.9 404.2C395.1 405.3 392.6 410.6 391.8 412.1C380 433.4 386.2 454.5 391.6 477.4" stroke="#1C2628" stroke-width="2.13" stroke-linecap="round" stroke-linejoin="round"/>
<path d="M395.2 450.4C395.6 442 396.1 433.5 397.2 425.2" stroke="#1C2628" stroke-width="2.13" stroke-linecap="round" stroke-linejoin="round"/>
<path d="M464.9 386.9C466.5 403.1 463.8 419.6 461.9 435.7" stroke="#1C2628" stroke-width="2.13" stroke-linecap="round" stroke-linejoin="round"/>
<path fill-rule="evenodd" clip-rule="evenodd" d="M367.7 513.2C339 511.6 333 505.4 333 505.4L345.3 457C349.7 457 353.5 458.2 355.4 460.6C358.9 464.9 356.5 473.2 353.8 483C350.6 494.3 346.7 499.4 348.9 501.8C352 505.3 362.3 497.5 366.8 501.5C369.2 503.5 369.4 508.7 367.7 513.2Z" fill="#1C2628" stroke="#1C2628" stroke-width="2.13" stroke-linecap="round" stroke-linejoin="round"/>
<path fill-rule="evenodd" clip-rule="evenodd" d="M410 376.9C409.4 380.6 408.1 383.5 406.1 384.1C403.5 384.9 402.2 381.1 394.2 377C386.6 373.1 381.5 373.4 380.6 369.9C379.9 367.5 382.3 366.5 382.6 363.6C383.3 356.3 369.6 353.5 364.3 343.6C358.8 333.2 381 317.9 387.6 325.3C388.7 343.4 403.7 362.7 410 376.9Z" fill="#1C2628" stroke="#1C2628" stroke-width="2.13" stroke-linecap="round" stroke-linejoin="round"/>
<path fill-rule="evenodd" clip-rule="evenodd" d="M413.4 113.1C404.1 118.4 399 128.7 400.8 138.4C402.9 150.2 414.7 159.2 428.2 157.9C423.3 142.9 418.4 128 413.4 113.1Z" fill="#1ED760"/>
<path d="M606.3 111.8C614.474 111.8 621.1 105.174 621.1 97C621.1 88.8262 614.474 82.2 606.3 82.2C598.126 82.2 591.5 88.8262 591.5 97C591.5 105.174 598.126 111.8 606.3 111.8Z" fill="#FB564C"/>
<path d="M586.3 56.3L601.5 24.6L603.1 57.3L632.7 55.2L605.3 71.7L609.4 95L592.2 77.3L578.3 106.9L579.7 73.7L553.7 82.5L577.5 64.1L550.4 34.5L586.3 56.3Z" fill="#C31626" stroke="#1C2628" stroke-width="2.13" stroke-linecap="round" stroke-linejoin="round"/>
<path d="M487.4 137.8L499.1 131L492.5 141.8L502.4 147.5L490.1 146.8L486.3 155.1L484.6 145.7L473.7 152.1L481.3 141.8L471.1 139L482.7 138.3L480.5 123L487.4 137.8Z" stroke="#1C2628" stroke-width="2.13" stroke-linecap="round" stroke-linejoin="round"/>
<path fill-rule="evenodd" clip-rule="evenodd" d="M300 581.2C286.1 592.7 280.4 594.1 272.7 605.2C267.5 612.7 266 618 257.1 642.2C249 664.4 245 675.4 243.8 677.5C231.2 699 217.3 695.2 196.1 715.5C168.9 741.6 175.8 763.6 155.9 771.3C147.7 774.5 137.5 774.3 128.1 771.8L219.9 665.3C219.9 665.3 296.9 545.7 327 503.9C334.3 509.5 339.8 517.6 340.9 525.3C343.6 545.1 317.7 566.6 300 581.2Z" fill="#C31626"/>
<path d="M299.7 543.7L219.8 665.5L148.1 748.6" stroke="#1C2628" stroke-width="2.13" stroke-linecap="round" stroke-linejoin="round"/>
<path fill-rule="evenodd" clip-rule="evenodd" d="M495.2 818.2C482.4 821.3 469.8 825 457.2 829C453.9 830.6 447.9 833.4 443.1 833.2C417.3 792.4 391.6 747.9 369.7 704.5C367.9 701 367.2 696.2 367.2 690.6C369.7 689.9 372.4 689.6 375.1 690.2C388.1 692.8 394.9 712.2 398 720.9C402.8 734.5 399.3 734.8 402.9 742.3C413.8 765 445.7 761.3 450.6 780.3C452.9 789.1 446.8 792.9 450.6 798.8C457.7 810 481.2 799.4 491.5 811.5C493.3 813.3 494.4 815.7 495.2 818.2Z" fill="#C31626"/>
<path d="M382.6 729.3L443.6 834.7L466 827.1" stroke="#1C2628" stroke-width="2.13" stroke-linecap="round" stroke-linejoin="round"/>
<path d="M63 359.5L61.6 359.6C53.8 360.1 51.7 359.1 49.9 357.6C49.8 357.6 49.8 357.6 49.7 357.5L44.8 350.9C46.9 351.5 49.7 351.7 54.1 351.3L55.6 351.2C61.3 350.7 70.8 349.9 73 357.6C73.2 358.2 73.8 358.5 74.3 358.3C74.4 358.3 74.4 358.3 74.5 358.2C75 358 75.2 357.4 75.1 356.9C72.4 347.5 61.3 348.4 55.4 349L54 349.1C46.2 349.7 44.2 348.6 42.3 347.1C42.2 347 42.1 347.1 42 347L36.8 340C38.9 340.6 41.6 340.7 46 340.4L47.5 340.3C53.2 339.8 62.7 339 64.9 346.7C65.1 347.3 65.7 347.6 66.2 347.4C66.2 347.4 66.3 347.4 66.3 347.3C66.8 347.1 67 346.5 66.9 346C64.2 336.6 53.2 337.5 47.3 338L45.9 338.1C38.1 338.7 36.1 337.6 34.2 336.1H34.1L29.4 329.8C31.4 330.3 34.2 330.5 38.4 330.2L39.9 330.1C45.6 329.6 55.1 328.8 57.3 336.5C57.5 337.1 58.1 337.4 58.6 337.2C58.6 337.2 58.7 337.2 58.7 337.1C59.2 336.9 59.4 336.3 59.3 335.8C56.6 326.4 45.6 327.4 39.6 327.9L38.1 328C30.3 328.6 28.3 327.5 26.4 326H26.3C26.1 325.9 26 325.8 25.8 325.8C25.7 325.8 25.6 325.8 25.5 325.9C25.4 325.9 25.3 325.9 25.1 326C25 326 25 326.1 25 326.2C25 326.2 24.9 326.2 24.9 326.3C24.9 326.4 24.9 326.4 24.8 326.5C24.7 326.6 24.7 326.8 24.7 326.9C24.7 327.1 24.7 327.2 24.8 327.3C24.8 327.4 24.8 327.4 24.8 327.5L68.2 386C64.4 385.8 60.1 388.5 57.5 393C54.2 398.9 55.1 405.6 59.5 408.1C63.9 410.6 70.1 407.8 73.4 402C76.6 396.3 75.8 389.7 71.7 387.2L52.5 361.4C54.6 362 57.3 362.1 61.8 361.8L63.3 361.7C69 361.2 78.5 360.4 80.8 368.1C81 368.7 81.6 369 82.1 368.8C82.1 368.8 82.2 368.8 82.2 368.7C82.7 368.5 82.9 367.9 82.8 367.4C79.9 358 68.9 359 63 359.5Z" fill="#1C2628" stroke="#1C2628" stroke-width="2.13" stroke-linecap="round" stroke-linejoin="round"/>
<path d="M242 259.2L240.6 259C232.4 258 230.5 256.4 228.8 254.5C228.7 254.4 228.6 254.4 228.6 254.4L224.6 246.1C226.6 247.1 229.5 247.9 234.1 248.4L235.6 248.6C241.6 249.2 251.7 250.3 252.4 258.8C252.5 259.4 253 259.9 253.6 259.8C253.7 259.8 253.9 259.8 254 259.7C254.4 259.5 254.7 259.1 254.7 258.6C253.8 248.2 242.1 247 235.9 246.3L234.5 246.1C226.3 245.1 224.4 243.6 222.7 241.6C222.7 241.6 222.6 241.6 222.6 241.5L219 234C221 234.9 223.8 235.7 228.3 236.2L229.8 236.4C235.8 237.1 245.9 238.2 246.6 246.6C246.7 247.2 247.2 247.7 247.8 247.6C247.9 247.6 248.1 247.6 248.2 247.5C248.6 247.3 248.9 246.9 248.9 246.4C248 236.1 236.3 234.8 230.1 234.1L228.6 233.9C220.3 232.9 218.5 231.4 216.9 229.5C216.9 229.4 216.8 229.4 216.7 229.4C216.5 229.2 216.4 229.1 216.2 229.1C216.1 229.1 216.1 229.1 216.1 229.1C215.9 229.1 215.8 229 215.6 229.1C215.5 229.1 215.5 229.2 215.4 229.3C215.2 229.5 215.1 229.7 215.1 229.9C215.1 230 215.1 230.1 215.1 230.2C215.1 230.3 215.1 230.4 215.1 230.5L248.1 299.7C244.1 298.7 239.1 300.6 235.6 304.8C231 310.1 230.5 317.3 234.6 320.8C238.6 324.3 245.6 322.7 250.2 317.3C254.7 312 255.2 305.1 251.5 301.6L231 258.6C233 259.6 235.9 260.4 240.6 261L242.1 261.2C248.1 261.8 258.2 262.9 258.9 271.4C259 272 259.5 272.5 260.1 272.4C260.2 272.4 260.4 272.4 260.5 272.3C260.9 272.1 261.2 271.7 261.2 271.2C260 261.1 248.3 259.8 242 259.2Z" fill="#1C2628" stroke="#1C2628" stroke-width="2.13" stroke-linecap="round" stroke-linejoin="round"/>
<path d="M169.5 394.8C178.2 397 170.3 406.3 171.7 413.4C173.1 419.9 177.6 419.7 181.5 418.6C181.5 418.6 174.4 437.1 191 436C181 431.3 185.5 415.7 185.5 415.7C175.1 414.4 180.7 409.3 179.8 401.6C178.5 389.3 169.5 394.8 169.5 394.8Z" fill="#1C2628" stroke="#1C2628" stroke-width="2.13" stroke-linecap="round" stroke-linejoin="round"/>
<path d="M63.3 456.6C67.9 436.9 74.5 415.2 92.2 405.3C105.6 397.8 122 399.1 137.2 397.1C168.4 393 197.1 373.1 211.9 345.4C219.6 330.9 224 314.2 235.4 302.5C247.1 290.5 264.3 285.7 281 284C297.6 282.3 314.6 283.1 331 280.1" stroke="#1C2628" stroke-width="2.13" stroke-linecap="round" stroke-linejoin="round"/>
<path d="M304.4 314.8C291.9 314.3 278.2 314.1 268.6 322.2C255.9 332.8 256.4 352.6 247.6 366.6C240.1 378.6 226.6 385.2 213.7 391.2" stroke="#1C2628" stroke-width="2.13" stroke-linecap="round" stroke-linejoin="round"/>
<path d="M631.4 344.3H614.9V401.1H631.4V344.3Z" fill="#1C2628" stroke="#1C2628" stroke-width="2.13" stroke-linecap="round" stroke-linejoin="round"/>
<path d="M659.5 344.3H643V401.1H659.5V344.3Z" fill="#1C2628" stroke="#1C2628" stroke-width="2.13" stroke-linecap="round" stroke-linejoin="round"/>
<path fill-rule="evenodd" clip-rule="evenodd" d="M682.2 268C677.3 272 659.6 265.3 659.5 255.1C659.5 248.3 667.3 241.3 673.3 242.2C682.6 243.5 687.4 263.7 682.2 268Z" fill="#1ED760"/>
<path d="M695.5 486.1C691.4 482.8 686.2 481.2 681.6 481.3C678.9 481.3 676.4 481.9 674.1 482.7C674.2 481.5 674.3 480.3 674.4 479.1C674.6 476.8 674.9 474.4 675.1 472C677.7 470.6 680.2 468.9 682.6 467.1C688.4 462.8 693.2 457 695.8 450.2C698.3 443.4 700.6 436.4 699.9 429.6C699.8 427.8 699.4 426.6 698.9 424.2C698.7 423.3 698.3 421.7 697.7 420.2C697.1 418.8 695.5 417.4 693.6 417.1C689.7 416.7 687.4 418.6 685.8 419.9C685 420.7 684.4 421.4 683.7 422.2C683.3 422.6 683.1 422.9 682.9 423.3L682.7 423.5C682.5 423.7 682.6 423.7 682.5 423.9L682.2 424.5C680.3 427.8 679.6 431.2 679 434.4C678.4 437.5 677.8 440.6 677.2 443.7C676.1 448.6 675.3 453.4 674.6 458.2C672.5 459.8 670.3 461.3 668 462.6L663.8 465C662.4 465.8 660.9 466.7 659.4 467.8C653.5 471.7 648.2 476.6 644.3 482.8C640.3 488.9 638.4 496.9 640.2 504C641.9 511.2 646.5 516.9 651.8 520.8C657 524.5 662.8 526.9 668.7 528C668.5 531.1 668.3 534.2 668 537.1C667.9 544.9 663.7 550.8 658.6 551.9C654.8 552.6 651.8 550.9 650.1 549C650.3 549.1 650.5 549.2 650.8 549.3C654.2 550.3 657.7 548.3 658.6 544.9C659.6 541.5 657.6 538 654.2 537.1C650.8 536.1 647.3 538.1 646.4 541.4C646.3 541.7 646.3 541.9 646.3 542.2C646.1 543.5 646.3 544.8 646.9 546C647 546.3 647.2 546.7 647.3 547.1C648 548.6 649.2 550.2 651.1 551.6C653.1 552.9 655.7 554 658.8 553.8C662 553.6 665.4 551.8 667.6 548.7C668.7 547.2 669.6 545.4 670.1 543.4C670.6 541.3 670.8 539.5 671 537.4C671.3 534.6 671.5 531.6 671.7 528.5C677 529.1 682.3 528.7 687.3 527.2C692.9 525.3 697.9 521.6 700.7 516.5C703.6 511.5 704.5 505.6 703.6 500.2C702.5 494.6 699.7 489.5 695.5 486.1ZM685.7 431.8C687.2 429.6 690.7 423.3 694.2 425.5C696.4 426.9 695.9 430.2 695.3 432.3C694 437.2 691.5 441.9 688 445.6C684.6 449.2 681.2 452.5 677.6 455.7C678.3 452 679.1 448.2 680 444.5C681.2 440 683.1 435.7 685.7 431.8ZM654.9 516.7C650.7 512.9 647.5 508 646.8 502.7C646.1 497.4 647.9 492.2 651.3 487.8C654.8 483.5 659.7 480 664.9 477.1C666.1 476.4 667.4 475.7 669 475L671.1 474C671.6 473.8 672.1 473.5 672.6 473.2C672.4 475.1 672.2 476.9 672 478.8C671.8 480.4 671.7 482 671.6 483.6C667.2 485.8 663.9 489.3 662 492.7C659 498.4 659.1 503.4 659.5 506.5C659.7 508.1 660 509.2 660.3 510C660.5 510.8 660.7 511.2 660.7 511.2C660.7 511.2 660.7 509.5 661.1 506.5C661.6 503.6 662.6 499.2 665.9 495.2C667.2 493.6 668.9 492 671 490.8C670.5 497.6 670 504.1 669.6 510.3C669.2 515.1 669 519.7 668.7 524C663.7 522.7 658.8 520.2 654.9 516.7Z" fill="#1C2628" stroke="#1C2628" stroke-width="2.13" stroke-linecap="round" stroke-linejoin="round"/>
<path d="M460 284C460 288.4 456.4 292 452 292C447.6 292 444 288.4 444 284C444 279.6 447.6 276 452 276" stroke="#C31626" stroke-width="2.13" stroke-linecap="round" stroke-linejoin="round"/>
<path d="M418.8 218.6C415 217.7 411.2 216.9 407.4 217.1C403.5 217.3 399.6 218.7 397.2 221.7C394.7 224.8 394.2 229.1 394 233.2C393.8 236.1 393.8 239.1 394.6 241.9C395.4 244.7 397.4 247.3 400.1 248.3" stroke="#1C2628" stroke-width="2.13" stroke-linecap="round" stroke-linejoin="round"/>
<path d="M385 250L439 264" stroke="#C31626" stroke-width="2.13" stroke-linecap="round" stroke-linejoin="round"/>
<path d="M457.6 265.7C458 266 439 264 439 264" stroke="#1C2628" stroke-width="2.13" stroke-linecap="round" stroke-linejoin="round"/>
<path fill-rule="evenodd" clip-rule="evenodd" d="M549.6 392.9C547.3 389.5 548.6 384 552.3 381.3C555.2 379.2 559.8 378.6 563 381.3C566.4 384.3 566.3 389.7 563.9 392.9C560.4 397.3 552.5 397.2 549.6 392.9Z" fill="#1C2628" stroke="#1C2628" stroke-width="2.13" stroke-linecap="round" stroke-linejoin="round"/>
<path fill-rule="evenodd" clip-rule="evenodd" d="M546.5 553.3C541.3 550.8 540 536.5 546.1 527.5C555 514.2 579.7 512.4 585.7 521.3C589.7 527.2 586.2 538.9 579.5 544C574.4 547.8 570.8 545.2 558.2 549.8C550.5 552.5 548.8 554.4 546.5 553.3Z" fill="#1C2628" stroke="#1C2628" stroke-width="2.13" stroke-linecap="round" stroke-linejoin="round"/>
</svg>
