<svg width="927" height="827" viewBox="0 0 927 827" fill="none" xmlns="http://www.w3.org/2000/svg">
<path fill-rule="evenodd" clip-rule="evenodd" d="M842.5 677.3C842.5 661.8 855.3 649.3 871 649.3C875.6 649.3 883.9 652.3 883.9 652.3L883.8 662.8L895.1 662.2C895.1 662.2 899.6 671.7 899.6 677.2C899.6 692.7 886.8 705.2 871.1 705.2C855.2 705.3 842.5 692.7 842.5 677.3Z" fill="#CE1626"/>
<path fill-rule="evenodd" clip-rule="evenodd" d="M774.6 722.4C789.9 721.3 803.2 733.3 804.3 749.1C804.6 753.8 802.2 762.3 802.2 762.3L791.8 762.9L793.2 774.2C793.2 774.2 784.1 779.4 778.6 779.7C763.3 780.8 750 768.8 748.9 753C747.7 737.2 759.3 723.5 774.6 722.4Z" fill="#CE1626"/>
<path d="M819.2 612.9L817.1 821.7" stroke="#1C2628" stroke-width="2.13" stroke-linecap="round" stroke-linejoin="round"/>
<path d="M798.7 636.8L817.7 665.8" stroke="#1C2628" stroke-width="2.13" stroke-linecap="round" stroke-linejoin="round"/>
<path d="M818.5 748.5L864.7 686.5" stroke="#1C2628" stroke-width="2.13" stroke-linecap="round" stroke-linejoin="round"/>
<path d="M776.8 745.9L817 802.5" stroke="#1C2628" stroke-width="2.13" stroke-linecap="round" stroke-linejoin="round"/>
<path fill-rule="evenodd" clip-rule="evenodd" d="M219.5 154.9H742.3V820.8H219.5V154.9Z" fill="#1ED760" stroke="#1C2628" stroke-width="2.13" stroke-linecap="round" stroke-linejoin="round"/>
<path d="M219.6 458.6L740.2 458.8" stroke="#1C2628" stroke-width="2.13" stroke-linecap="round" stroke-linejoin="round"/>
<path d="M219.6 636.3L740.2 636.5" stroke="#1C2628" stroke-width="2.13" stroke-linecap="round" stroke-linejoin="round"/>
<path fill-rule="evenodd" clip-rule="evenodd" d="M211.3 798.5H760.9V825.9H211.3V798.5Z" fill="#1C2628" stroke="#1C2628" stroke-width="2.13" stroke-linecap="round" stroke-linejoin="round"/>
<path d="M482.6 157.9L490.3 820.5" stroke="#1C2628" stroke-width="2.13" stroke-linecap="round" stroke-linejoin="round"/>
<path fill-rule="evenodd" clip-rule="evenodd" d="M411.9 611.4C396.8 636.5 347.9 736 347.9 736C347.9 736 319.6 753.2 284.4 767.5C261.9 776.6 227.6 781.8 224.9 789.8C217.6 811.6 297.7 793.9 327.1 791.6C357 789.2 405.6 823.6 433.2 805.3C451.2 793.4 432.5 764.6 434.1 748.4C435.7 732.2 445.7 622 455.9 608.6" fill="#F45B49"/>
<path d="M411.9 611.4C396.8 636.5 347.9 736 347.9 736C347.9 736 319.6 753.2 284.4 767.5C261.9 776.6 227.6 781.8 224.9 789.8C217.6 811.6 297.7 793.9 327.1 791.6C357 789.2 405.6 823.6 433.2 805.3C451.2 793.4 432.5 764.6 434.1 748.4C435.7 732.2 445.7 622 455.9 608.6" stroke="#1C2628" stroke-width="2.13" stroke-linecap="round" stroke-linejoin="round"/>
<path fill-rule="evenodd" clip-rule="evenodd" d="M566.6 652.7C566.6 652.7 437.1 428.9 357.1 496.1C313.5 532.7 275.3 735 275.3 735L353.8 752.2L406.2 666.8C406.2 666.8 429.5 772.4 472.7 792.6C497 804 595.3 810.4 642.9 799.4C679.9 790.9 679.2 755 679.2 755L566.6 652.7Z" fill="#1C2628" stroke="#1C2628" stroke-width="2.13" stroke-linecap="round" stroke-linejoin="round"/>
<path fill-rule="evenodd" clip-rule="evenodd" d="M372.1 619.7C357 644.8 308.1 744.3 308.1 744.3C308.1 744.3 279.8 761.5 244.6 775.8C222.1 784.9 187.8 790.1 185.1 798.1C177.7 819.9 242.7 810.6 272.1 808.3C302 805.9 354.8 819.4 371.8 806C388.8 792.6 376.7 774.8 388 752.1C402.4 723.2 427.1 687.4 437.3 674" fill="#F45B49"/>
<path d="M372.1 619.7C357 644.8 308.1 744.3 308.1 744.3C308.1 744.3 279.8 761.5 244.6 775.8C222.1 784.9 187.8 790.1 185.1 798.1C177.7 819.9 242.7 810.6 272.1 808.3C302 805.9 354.8 819.4 371.8 806C388.8 792.6 376.7 774.8 388 752.1C402.4 723.2 427.1 687.4 437.3 674" stroke="#1C2628" stroke-width="2.13" stroke-linecap="round" stroke-linejoin="round"/>
<path fill-rule="evenodd" clip-rule="evenodd" d="M489.6 426C450 386.4 455.6 328.4 462.3 322.8C533 264 573.3 333.3 591.9 332.2C637.5 337.8 670.6 358 674.4 389.9C677.7 417.9 674.4 487.6 620.1 480.2C586.6 468.7 493.3 490.1 464.6 466.6C449.1 453.9 459 361.7 448.5 344.8" fill="#1C2628"/>
<path d="M489.6 426C450 386.4 455.6 328.4 462.3 322.8C533 264 573.3 333.3 591.9 332.2C637.5 337.8 670.6 358 674.4 389.9C677.7 417.9 674.4 487.6 620.1 480.2C586.6 468.7 493.3 490.1 464.6 466.6C449.1 453.9 459 361.7 448.5 344.8" stroke="#1C2628" stroke-width="2.13" stroke-linecap="round" stroke-linejoin="round"/>
<path fill-rule="evenodd" clip-rule="evenodd" d="M742.5 751.1C742.5 751.1 741.7 751.6 740.1 752.4C730.1 757.2 690.2 772.1 647.6 730.2C642.3 725 637 718.9 631.7 711.9C577 638.9 540.4 626.6 540.4 626.6L468.7 494.6L465.4 488.6L418.6 433.9L476.7 395L616.3 423.7C616.3 423.7 648.6 395.9 684.1 440.7C692.2 451 700.5 465 708.7 484.1C725.7 524 727.2 613.3 728.7 678.3C729.8 720.2 742.5 751.1 742.5 751.1Z" fill="#FAF6EB" stroke="#1C2628" stroke-width="2.13" stroke-linecap="round" stroke-linejoin="round"/>
<path fill-rule="evenodd" clip-rule="evenodd" d="M560.1 385.4L579.8 422.9L613.7 440.3C613.7 440.3 600.5 471.4 573 481.4C545.5 491.4 531.9 483.1 520.8 479.2C509.6 475.3 498.7 457.9 498.7 457.9L511.2 437.7L499 421.7L560.1 385.4Z" fill="#F45B49" stroke="#1C2628" stroke-width="2.13" stroke-linecap="round" stroke-linejoin="round"/>
<path fill-rule="evenodd" clip-rule="evenodd" d="M552.7 358C549 346.9 555.4 343.5 547.3 336.5C532.9 323.9 513.2 319 494.9 325.3C474.3 332.3 451.5 337.7 449.5 359.5C448.7 367.9 459.1 390.4 462 399.1C472.4 430.1 504 447.4 532.6 437.7C550.9 431.5 562.6 421.6 566.6 402.8C568.7 392.4 556.4 369.2 552.7 358Z" fill="#F45B49" stroke="#1C2628" stroke-width="2.13" stroke-linecap="round" stroke-linejoin="round"/>
<path fill-rule="evenodd" clip-rule="evenodd" d="M485 393.6C487.1 404.5 483.6 416.3 489.9 417.5C498.2 419 503.9 401.3 503.5 399" fill="#F45B49"/>
<path d="M485 393.6C487.1 404.5 483.6 416.3 489.9 417.5C498.2 419 503.9 401.3 503.5 399" stroke="#1C2628" stroke-width="2.13" stroke-linecap="round" stroke-linejoin="round"/>
<path d="M526.7 394.8C528.2 404.3 523 409.9 514.7 411.9" stroke="#1C2628" stroke-width="2.13" stroke-linecap="round" stroke-linejoin="round"/>
<path fill-rule="evenodd" clip-rule="evenodd" d="M582.9 431.1L561.1 390.3C561.1 390.3 526 404.3 524.1 417.3C522.2 430.3 547.5 451.2 547.5 451.2L567.7 441.5" fill="#FB564C"/>
<path fill-rule="evenodd" clip-rule="evenodd" d="M546.7 344.1C512.1 375.2 467.9 354 467.9 354C467.9 354 474 388.5 459.2 403.2C444.4 417.8 426.7 395.8 433.4 361.6C440.2 327.5 484.1 299.3 508.8 301.8C529.5 304 574.1 319.4 546.7 344.1Z" fill="#1C2628" stroke="#1C2628" stroke-width="2.13" stroke-linecap="round" stroke-linejoin="round"/>
<path fill-rule="evenodd" clip-rule="evenodd" d="M538.3 351.4C536.6 345 545.6 341.1 550.4 342.7C560.5 345.9 569.9 362 552.6 369.1" fill="#F45B49"/>
<path d="M538.3 351.4C536.6 345 545.6 341.1 550.4 342.7C560.5 345.9 569.9 362 552.6 369.1" stroke="#1C2628" stroke-width="2.13" stroke-linecap="round" stroke-linejoin="round"/>
<path d="M627.3 388.2C645.8 401.1 651.8 400.4 669.7 407.4" stroke="#FAF6EB" stroke-width="2.13" stroke-linecap="round" stroke-linejoin="round"/>
<path fill-rule="evenodd" clip-rule="evenodd" d="M159 620.2C145.8 619.5 148.5 588.2 160.5 585.8C174.8 582.9 194.5 605.1 181.7 617.9C177.9 621.8 164.2 620.5 159 620.2Z" fill="#F3A13B"/>
<path fill-rule="evenodd" clip-rule="evenodd" d="M500.4 438.1L521 439.1L539.9 432.2C539.9 432.2 532.7 452.2 522.6 460.6C512.6 469 488.5 468.9 488.5 468.9L500.4 438.1Z" fill="#1C2628" stroke="#1C2628" stroke-width="2.13" stroke-linecap="round" stroke-linejoin="round"/>
<path d="M548.7 353.7C548.8 354.2 548.9 354.6 549 355.1" stroke="#1C2628" stroke-width="2.13" stroke-linecap="round" stroke-linejoin="round"/>
<path fill-rule="evenodd" clip-rule="evenodd" d="M685 804.8C637.4 815.8 536.6 816.3 512.3 805C469.1 784.8 437.8 680.4 437.8 680.4L395.8 757.6L305.2 728.7L303.3 728.1C303.3 728.1 357.7 518.4 399.3 479.5C480.6 423.7 608.7 658.2 608.7 658.2L674.5 718L721.3 760.5C721.3 760.5 722 796.3 685 804.8Z" fill="#1C2628" stroke="#1C2628" stroke-width="2.13" stroke-linecap="round" stroke-linejoin="round"/>
<path fill-rule="evenodd" clip-rule="evenodd" d="M608.6 658.2C608.6 658.2 480.5 423.8 399.2 479.5C357.6 518.3 305.6 719 305.6 719C306.6 719 308.6 718.5 311.1 717.7C337 709 355.9 684.4 354.5 657C351.6 603.1 404.3 457.1 465 528.1C485 551.5 516.4 553.7 526.6 571.4C534.6 585.6 525.6 603.8 532.6 619C539.6 636.2 560.8 636.2 575.9 644.3C600 656.5 610.1 728.7 674.5 718L608.6 658.2Z" fill="#FAF6EB"/>
<path d="M498.6 381.6C507.6 377.6 513 376.2 514.4 364.8" stroke="#1C2628" stroke-width="2.13" stroke-linecap="round" stroke-linejoin="round"/>
<path d="M465 406.1C469.9 403.9 473.2 402.5 475.2 397.3" stroke="#1C2628" stroke-width="2.13" stroke-linecap="round" stroke-linejoin="round"/>
<path d="M441.5 351.5C432 361.1 424.2 389.8 431.8 402.6C434.7 407.4 442.1 407.8 444.1 411.9C452.6 429 431.8 436.1 461.4 448.8" stroke="#1C2628" stroke-width="2.13" stroke-linecap="round" stroke-linejoin="round"/>
<path d="M530.1 307.9C542 307.2 556.8 306.9 568.4 311.3C581.8 316.3 593 325.4 606.3 330C635.1 339.9 669.6 333.9 669.6 385.5" stroke="#1C2628" stroke-width="2.13" stroke-linecap="round" stroke-linejoin="round"/>
<path fill-rule="evenodd" clip-rule="evenodd" d="M611.6 526.5C610.2 516.6 607.1 486.8 602.9 449.1C600.6 427.7 603.9 398.7 603.9 398.7C603.9 398.7 599.8 394 597 397.6C594.2 401.2 593.1 413 592.8 413C588 412 560.1 353.5 552.8 357.2C547.5 359.8 569.3 393.4 569.3 393.4C569.3 393.4 545.5 355.2 541.3 358.6C536.5 362.5 560.9 397.7 560.9 397.7C560.9 397.7 538.4 360.8 532.5 363.6C526.7 366.4 552.7 403.5 552 403.8C549.9 404.7 528.5 370.8 524.2 372.9C520.1 374.9 541.2 407.1 547.5 424.3C556.4 448.3 543.5 604.4 580 633.9C600.2 650.2 630.1 649 649.2 626.2C668.2 603.4 690.9 542.9 690.9 542.9L637.7 485.6C637.7 485.5 612.6 533.5 611.6 526.5Z" fill="#F45B49" stroke="#1C2628" stroke-width="2.13" stroke-linecap="round" stroke-linejoin="round"/>
<path fill-rule="evenodd" clip-rule="evenodd" d="M658.1 424C658.1 424 595 390.7 604.6 461.9C613.3 517.9 608.8 532.2 608.8 532.2C608.8 532.2 611.5 528.5 636.8 543.8C662.1 559.1 681 586.8 681 586.8C681 586.8 705.1 520 694.8 493.2" fill="#FAF6EB"/>
<path d="M658.1 424C658.1 424 595 390.7 604.6 461.9C613.3 517.9 608.8 532.2 608.8 532.2C608.8 532.2 611.5 528.5 636.8 543.8C662.1 559.1 681 586.8 681 586.8C681 586.8 705.1 520 694.8 493.2" stroke="#1C2628" stroke-width="2.13" stroke-linecap="round" stroke-linejoin="round"/>
<path fill-rule="evenodd" clip-rule="evenodd" d="M418.6 433.6C418.6 433.6 375.4 473.8 412.6 493.8C449.8 513.8 547.6 489.3 547.6 489.3L570.1 488.3C570.1 488.3 571.4 494.2 576.8 514.2C582.1 534.1 584.7 558 591.4 568.1C598.2 578.2 599.4 568.3 599.4 568.3L595.5 531.2C595.5 531.2 602.9 574.2 606.6 572.2C610.4 570.2 607.4 529.6 607.4 529.6C607.4 529.6 619.6 570.3 622 569.8C624.4 569.3 621.2 526.9 621.2 526.9C621.2 526.9 630.3 580.5 631.9 568.8C633.5 557.1 633.1 526.6 628.6 491.8C626.4 474.9 609.9 444.8 576.9 440C557.4 437.2 418.6 433.6 418.6 433.6Z" fill="#F45B49" stroke="#1C2628" stroke-width="2.13" stroke-linecap="round" stroke-linejoin="round"/>
<path fill-rule="evenodd" clip-rule="evenodd" d="M451.7 404.9C443 456.2 478.6 445 478.6 445L501.3 438.2C501.3 438.2 475.6 425.7 473.8 423.2C471.8 420.4 458.5 399.7 457 396.5" fill="#1C2628"/>
<path d="M451.7 404.9C443 456.2 478.6 445 478.6 445L501.3 438.2C501.3 438.2 475.6 425.7 473.8 423.2C471.8 420.4 458.5 399.7 457 396.5" stroke="#1C2628" stroke-width="2.13" stroke-linecap="round" stroke-linejoin="round"/>
<path d="M515.3 504.6C512 511.1 527 554 555.3 554Z" fill="#FAF6EB"/>
<path d="M515.3 504.6C512 511.1 527 554 555.3 554" stroke="#1C2628" stroke-width="2.13" stroke-linecap="round" stroke-linejoin="round"/>
<path d="M420 713.2C421.9 710.9 437.9 680.4 437.9 680.4C437.9 680.4 445.2 707.7 451 720.6C465.2 752.5 484.2 784.2 511.2 798.9" stroke="#FAF6EB" stroke-width="2.13" stroke-linecap="round" stroke-linejoin="round"/>
<path fill-rule="evenodd" clip-rule="evenodd" d="M696.7 528.1L687.6 608.7L651.5 624.9L675.9 578.9L681.3 586.9L696.7 528.1Z" fill="#1C2628" stroke="#1C2628" stroke-width="2.13" stroke-linecap="round" stroke-linejoin="round"/>
<path fill-rule="evenodd" clip-rule="evenodd" d="M603.5 644.2C608.7 658.2 626.1 672.9 631.8 684.5C658.3 738.1 658 784 729.8 755.3" fill="#FAF6EB"/>
<path d="M603.5 644.2C608.7 658.2 626.1 672.9 631.8 684.5C658.3 738.1 658 784 729.8 755.3" stroke="#1C2628" stroke-width="2.13" stroke-linecap="round" stroke-linejoin="round"/>
<path d="M637.5 669.5C644.1 682.3 650.2 695.6 655.9 708.9C664.3 728.7 674.6 761.4 704.4 750.9" stroke="#1C2628" stroke-width="2.13" stroke-linecap="round" stroke-linejoin="round"/>
<path fill-rule="evenodd" clip-rule="evenodd" d="M393.1 756.8C382.8 758.7 356.9 752.1 336 753C328.8 753.3 322.6 749.9 322.6 749.9C322.6 749.9 309.5 741.1 305.4 744C301.8 746.5 302.2 755.8 302.2 755.8C302.2 755.8 295 759.7 294.5 764.5C294.4 765.7 294.5 771.1 294.5 771.1C294.5 771.1 295.3 777.9 297.7 783.8C300.1 789.7 337.4 795.3 357.1 801.1C362.6 802.7 393.5 812.8 408.8 810" fill="#F45B49"/>
<path d="M393.1 756.8C382.8 758.7 356.9 752.1 336 753C328.8 753.3 322.6 749.9 322.6 749.9C322.6 749.9 309.5 741.1 305.4 744C301.8 746.5 302.2 755.8 302.2 755.8C302.2 755.8 295 759.7 294.5 764.5C294.4 765.7 294.5 771.1 294.5 771.1C294.5 771.1 295.3 777.9 297.7 783.8C300.1 789.7 337.4 795.3 357.1 801.1C362.6 802.7 393.5 812.8 408.8 810" stroke="#1C2628" stroke-width="2.13" stroke-linecap="round" stroke-linejoin="round"/>
<path d="M418.3 786.5C409.8 783 401.6 783.2 392.8 781.1C383.9 779 374.9 775.4 366.4 772" stroke="#1C2628" stroke-width="2.13" stroke-linecap="round" stroke-linejoin="round"/>
<path d="M305 767.3C302.5 772.6 301 776.1 299.3 781.7" stroke="#1C2628" stroke-width="2.13" stroke-linecap="round" stroke-linejoin="round"/>
<path d="M219.6 280.9L740.2 281.1" stroke="#1C2628" stroke-width="2.13" stroke-linecap="round" stroke-linejoin="round"/>
<path fill-rule="evenodd" clip-rule="evenodd" d="M529.6 345.5C529.6 335.3 538.1 327 548.6 327C559.1 327 567.6 335.3 567.6 345.5C567.6 355.7 559.1 364 548.6 364C538.1 363.9 529.6 355.7 529.6 345.5Z" fill="#FAF6EB" stroke="#1C2628" stroke-width="2.13" stroke-linecap="round" stroke-linejoin="round"/>
<path fill-rule="evenodd" clip-rule="evenodd" d="M431.5 367.3C431.5 367.3 420 329.3 459.5 307.5C506.1 281.7 547 335.7 547 335.7L540 346.8C540 346.8 487.9 306.9 445.1 336.8C424.7 351 431.5 367.3 431.5 367.3Z" fill="#FAF6EB" stroke="#1C2628" stroke-width="2.13" stroke-linecap="round" stroke-linejoin="round"/>
<path fill-rule="evenodd" clip-rule="evenodd" d="M538.4 344.2C538.4 338.4 543 333.6 548.6 333.6C554.2 333.6 558.8 338.3 558.8 344.2C558.8 350 554.2 354.8 548.6 354.8C543 354.8 538.4 350.1 538.4 344.2Z" fill="#FAF6EB" stroke="#1C2628" stroke-width="2.13" stroke-linecap="round" stroke-linejoin="round"/>
<path fill-rule="evenodd" clip-rule="evenodd" d="M230.2 367.2C212.9 346.1 189.1 334.4 171.8 311.8C131.1 258.5 149 194.4 170.7 137.6C211.2 215.4 230.2 293.2 230.2 367.2Z" fill="#CE1626"/>
<path fill-rule="evenodd" clip-rule="evenodd" d="M231.2 364.1C207.5 259.7 248.2 209.7 282.7 119.4C280.8 203 319.9 306 231.2 364.1Z" fill="#CE1626"/>
<path fill-rule="evenodd" clip-rule="evenodd" d="M229.5 378.4C229.2 319.7 298.3 273.7 314.4 219.8C336.9 274 300.4 382.4 229.5 378.4Z" fill="#CE1626"/>
<path fill-rule="evenodd" clip-rule="evenodd" d="M217.4 342.1H252C278.7 342.1 300.3 363.9 300.3 390.7C300.3 417.5 278.7 439.3 252 439.3H217.4C190.7 439.3 169.1 417.5 169.1 390.7C169.1 363.8 190.7 342.1 217.4 342.1Z" fill="#F45B49"/>
<path d="M155.3 421.4C221.1 292.8 208 594.1 177.5 442.7C166 385.7 265.5 347.7 302.7 357.7C335.7 366.5 283.6 412 259 443.9C255.8 448 249.1 445.7 249.2 439.9C241.1 385.9 317.6 371.2 356.3 379.2" stroke="#1C2628" stroke-width="2.13" stroke-linecap="round" stroke-linejoin="round"/>
<path d="M217.4 342.1H252C278.7 342.1 300.3 363.9 300.3 390.7C300.3 417.5 278.7 439.3 252 439.3H217.4C190.7 439.3 169.1 417.5 169.1 390.7C169.1 363.8 190.7 342.1 217.4 342.1Z" stroke="#1C2628" stroke-width="2.13" stroke-linecap="round" stroke-linejoin="round"/>
<path d="M799.3 343H882.9V381.5H799.3" stroke="#1C2628" stroke-width="2.13" stroke-linecap="round" stroke-linejoin="round"/>
<path d="M905.4 420.8H842V382.4H925.6V405.3" stroke="#1C2628" stroke-width="2.13" stroke-linecap="round" stroke-linejoin="round"/>
<path d="M128.3 680.1H44.7V718.5H128.3V680.1Z" stroke="#1C2628" stroke-width="2.13" stroke-linecap="round" stroke-linejoin="round"/>
<path d="M36.4 719.4H2V757.9" stroke="#1C2628" stroke-width="2.13" stroke-linecap="round" stroke-linejoin="round"/>
<path d="M85.6 757.9V738.7" stroke="#1C2628" stroke-width="2.13" stroke-linecap="round" stroke-linejoin="round"/>
<path d="M132.5 415.7H48.9V454.1H132.5V415.7Z" stroke="#1C2628" stroke-width="2.13" stroke-linecap="round" stroke-linejoin="round"/>
<path d="M490.2 500.9C490.2 500.9 535.1 545.9 556.7 577Z" fill="#FAF6EB"/>
<path d="M490.2 500.9C490.2 500.9 535.1 545.9 556.7 577" stroke="#1C2628" stroke-width="2.13" stroke-linecap="round" stroke-linejoin="round"/>
<path fill-rule="evenodd" clip-rule="evenodd" d="M708.8 484.2C700.7 465.1 692.4 451 684.2 440.8C675.5 446.2 668.5 454.1 666.3 462.7C660 486.8 694.8 499.5 708 550.4C710.6 560.4 716.5 583.9 710.4 611.6C707.2 626.4 700 645.6 695.1 658.7C688.3 677 697.7 697.7 716.2 703.6C716.7 703.8 717.2 703.9 717.6 704C722.1 705.3 726.7 706.5 731.3 707.7C729.9 698.8 728.9 689 728.7 678.4C727.3 613.5 725.8 524.2 708.8 484.2Z" fill="#1C2628" stroke="#1C2628" stroke-width="2.13" stroke-linecap="round" stroke-linejoin="round"/>
<path d="M482.9 569.6C489.8 571.3 497.4 573.4 501.4 579.3C504 583.1 504.6 587.8 505.2 592.4C506.3 600.7 507.5 609.2 511.1 616.7" stroke="white" stroke-width="2.13" stroke-linecap="round" stroke-linejoin="round"/>
<path d="M490.5 590.1C494.7 594.8 496.3 601.3 497 607.5C497.7 613.7 497.8 620.2 499.6 626.2" stroke="white" stroke-width="2.13" stroke-linecap="round" stroke-linejoin="round"/>
<path d="M540 646.3C541.9 650.2 546.1 652.3 550.2 653.6C554.3 654.9 558.7 655.4 562.5 657.3C569.9 661.1 573.9 669.1 578 676.4C582.3 683.9 587.4 691 593 697.6" stroke="white" stroke-width="2.13" stroke-linecap="round" stroke-linejoin="round"/>
<path d="M572.7 687.6C578.7 699.5 587.8 709.8 598.7 717.4" stroke="white" stroke-width="2.13" stroke-linecap="round" stroke-linejoin="round"/>
<path d="M493.4 760.2C506.5 783.7 532.9 799 559.7 798.5" stroke="white" stroke-width="2.13" stroke-linecap="round" stroke-linejoin="round"/>
<path d="M536.1 779.6C546.6 785.6 559 788.1 570.9 786.6" stroke="white" stroke-width="2.13" stroke-linecap="round" stroke-linejoin="round"/>
<path d="M314.8 623.9C312.2 635.3 309.6 646.7 306.9 658.1" stroke="white" stroke-width="2.13" stroke-linecap="round" stroke-linejoin="round"/>
<path d="M330.3 611L323.2 636.1" stroke="white" stroke-width="2.13" stroke-linecap="round" stroke-linejoin="round"/>
<path d="M694.6 636.1C686.5 651.9 682.6 669.8 683.3 687.5C683.5 692.1 684 696.9 686.3 700.9C688.6 704.9 693.1 707.9 697.7 707.2C698.6 707 699.6 706.7 700.3 706.1C702.1 704.5 701.8 701.2 699.9 699.6C698 698 695.2 697.9 693 698.8C690.3 704.2 693.7 711.1 698.9 714.3C704 717.5 710.3 717.9 716.3 718.3" stroke="#1C2628" stroke-width="2.13" stroke-linecap="round" stroke-linejoin="round"/>
<path fill-rule="evenodd" clip-rule="evenodd" d="M383.5 430.7C380.3 428.5 378.1 424.9 377.6 421C376.8 414.5 382.4 407.2 388.9 408.4C395.2 409.6 398 417.1 398.4 423.5C398.6 425.9 398.4 428.6 396.8 430.4C393.8 433.6 388.5 431.3 384.2 432.2" fill="#1C2628"/>
<path d="M383.5 430.7C380.3 428.5 378.1 424.9 377.6 421C376.8 414.5 382.4 407.2 388.9 408.4C395.2 409.6 398 417.1 398.4 423.5C398.6 425.9 398.4 428.6 396.8 430.4C393.8 433.6 388.5 431.3 384.2 432.2" stroke="#1C2628" stroke-width="2.13" stroke-linecap="round" stroke-linejoin="round"/>
<path d="M344.5 659.1C345.5 671 339.5 683.3 329.6 689.8" stroke="#1C2628" stroke-width="2.13" stroke-linecap="round" stroke-linejoin="round"/>
<path d="M331.7 667.6C332.4 670.8 331.4 674.3 329.1 676.6" stroke="#1C2628" stroke-width="2.13" stroke-linecap="round" stroke-linejoin="round"/>
<path d="M224.8 294.3C223.8 312.3 225.3 329.6 227.9 343.4" stroke="white" stroke-width="2.13" stroke-linecap="round" stroke-linejoin="round"/>
<path d="M171.6 182.2C171.8 202.7 174.9 223 178.1 243.2C179.9 254.6 181.7 266.1 185.2 277.1C188.3 286.9 192.7 296.1 197.1 305.4C202.7 317.1 208.3 328.9 216.6 338.8" stroke="white" stroke-width="2.13" stroke-linecap="round" stroke-linejoin="round"/>
<path d="M276.1 169.6C273.1 227.6 262.4 285.2 244.3 340.3" stroke="white" stroke-width="2.13" stroke-linecap="round" stroke-linejoin="round"/>
<path d="M314.8 221.8C312.4 266.3 293.5 309.8 262.7 341.8" stroke="white" stroke-width="2.13" stroke-linecap="round" stroke-linejoin="round"/>
<path d="M155.6 204.9C158.9 206 161.6 208.6 163 211.9C164.2 214.7 164.5 218.2 166.9 220.1C168.4 221.2 170.5 221.4 172.3 221.9C174.1 222.4 176.1 223.8 176.1 225.7C181.4 222.2 187.3 217.8 187.8 211.4C188 209.5 187.7 207.3 188.9 205.8C190 204.5 191.8 204.2 193.4 203.8C195 203.4 196.8 202.4 197 200.7" stroke="white" stroke-width="2.13" stroke-linecap="round" stroke-linejoin="round"/>
<path d="M150.7 239.6C155.5 241.3 159.6 244.9 161.9 249.4C162.3 250.1 162.6 250.9 163.2 251.5C165.7 254.2 170.5 252.2 173.7 254C176.5 255.6 177.7 259.7 180.8 260C183 256 188.8 254.6 189.9 250.2C190.1 249.5 190.1 248.7 190.5 248.1C191.9 245.6 195.8 247.2 198.4 246.3C202 245 202.5 239.3 206.2 238.2" stroke="white" stroke-width="2.13" stroke-linecap="round" stroke-linejoin="round"/>
<path d="M212.5 264.4C208.5 267.5 205.9 272.2 205.4 277.3C205.3 278.3 205.3 279.4 204.7 280.2C203.9 281.4 202.3 281.7 200.9 282.2C196.3 283.6 192 287.4 190.7 292C190.4 290.7 189 289.9 187.7 289.7C186.4 289.5 185.1 289.8 183.7 289.8C181.3 289.9 178.9 289.2 176.8 287.8C175.1 286.7 173.4 285.1 171.5 285.7C170.8 285.9 170.2 286.4 169.6 286.8C167.6 288 165.1 288.1 162.8 287.4C160.6 286.7 158.7 285.2 157 283.6" stroke="white" stroke-width="2.13" stroke-linecap="round" stroke-linejoin="round"/>
<path d="M221 296.6C219.6 302.3 217.6 308.6 212.4 311.2C211.3 311.8 210 312.1 209 312.8C207 314 203.2 317.6 203.1 320C201 320.2 199.3 318.5 197.4 317.7C194.2 316.4 191.3 319 187.8 319.2C184.3 319.5 180.1 317.4 176.7 316.5" stroke="white" stroke-width="2.13" stroke-linecap="round" stroke-linejoin="round"/>
<path d="M199 333.1C201.5 334.4 204.4 335.4 207.2 335C208.4 334.8 209.5 334.4 210.7 334.5C212.7 334.7 214.3 336.3 215.6 337.9C215.8 335.7 216 333.2 217.8 331.9C218.7 331.2 220 330.9 220.9 330.2C221.9 329.5 222.5 328 221.6 327.1" stroke="white" stroke-width="2.13" stroke-linecap="round" stroke-linejoin="round"/>
<path d="M263.7 174C266.1 175.8 267.6 178.8 267.6 181.8C267.6 182.5 267.5 183.3 267.8 184C268.6 186.1 271.9 186.1 272.9 188.1C273.5 189.4 273.1 191.2 274.2 192.1C274.8 190.8 275.4 189.5 276.7 188.9C278.1 188.2 279.7 188.8 281.3 188.5C283.3 188.2 284.9 186.4 285 184.4" stroke="white" stroke-width="2.13" stroke-linecap="round" stroke-linejoin="round"/>
<path d="M249 211.5C249.8 214.3 252.4 216.5 255.3 216.7C256.9 216.8 258.6 216.3 260.1 216.9C261.8 217.6 262.8 219.4 263.3 221.3C263.8 223.2 264 225 264.8 226.7C265.6 228.4 268.4 231.8 270.3 231.4C271.7 231.1 271.7 227.8 273.1 227.4C275.1 226.8 277.5 228.3 279.3 227.2C280.4 226.5 280.8 225.1 281.7 224.4C283.5 223 287 223.6 287.6 221.4" stroke="white" stroke-width="2.13" stroke-linecap="round" stroke-linejoin="round"/>
<path d="M234.8 256.7C238.7 256.8 242.5 259.2 244.3 262.7C245.9 265.7 246.2 269.8 249.2 271.5C250.5 272.3 252.2 272.4 253.7 272.8C257.2 273.8 260 276.7 260.8 280.2C262.3 277.4 266 277 269.2 277C272.4 277 275.9 277.1 278 274.7C278.6 274 284.5 266.1 289.8 265.4" stroke="white" stroke-width="2.13" stroke-linecap="round" stroke-linejoin="round"/>
<path d="M227.6 294.6C229.2 294.7 230.3 296.2 230.9 297.7C231.5 299.2 232 300.8 233.4 301.7C235.3 302.9 237.8 302.1 240 302.5C245.5 303.6 246.4 311.7 251.2 314.7" stroke="white" stroke-width="2.13" stroke-linecap="round" stroke-linejoin="round"/>
<path d="M296.1 262.2C296.9 264.1 297.3 266.2 297.3 268.3C297.3 270.4 297.1 272.7 298.4 274.3C299.2 275.3 300.5 275.8 301.1 276.9C301.3 277.2 301.4 277.6 301.6 277.9C302.1 278.5 303 278.4 303.8 278.3C305.7 278 307.7 278 309.6 278C311.1 278.1 312.7 278.2 314.1 277.8C315.5 277.4 317 276.2 317.1 274.7" stroke="white" stroke-width="2.13" stroke-linecap="round" stroke-linejoin="round"/>
<path d="M277.7 289.5C280.6 290 283.2 292 284.4 294.7C285.2 296.5 285.5 298.7 286.8 300.2C288.9 302.5 292.5 302.1 295.6 302.7C298.4 303.2 301 304.7 303.9 304.9C307.1 305.1 310.4 303.6 312.3 301" stroke="white" stroke-width="2.13" stroke-linecap="round" stroke-linejoin="round"/>
<path d="M257.8 322C262.3 321.6 266.8 324.2 268.9 328.2C269.3 329 269.6 329.8 270.3 330.5C272.2 332.4 275.4 331 278 331.4C279.7 331.7 281.1 332.7 282.7 333.4C287 335.3 292.4 334.2 295.7 330.8" stroke="white" stroke-width="2.13" stroke-linecap="round" stroke-linejoin="round"/>
<path d="M289.8 265.3C270.5 284.8 251.2 314.7 243.5 343" stroke="white" stroke-width="2.13" stroke-linecap="round" stroke-linejoin="round"/>
<path d="M434.2 230.4L444 261.9" stroke="#1C2628" stroke-width="2.13" stroke-linecap="round" stroke-linejoin="round"/>
<path d="M521.8 212.4L513.8 265.5" stroke="#1C2628" stroke-width="2.13" stroke-linecap="round" stroke-linejoin="round"/>
<path d="M548.6 244.8L541.5 269.1" stroke="#1C2628" stroke-width="2.13" stroke-linecap="round" stroke-linejoin="round"/>
<path d="M626.4 192.6L587.1 270.9" stroke="#1C2628" stroke-width="2.13" stroke-linecap="round" stroke-linejoin="round"/>
<path d="M657.7 258.3L613.9 302.4" stroke="#1C2628" stroke-width="2.13" stroke-linecap="round" stroke-linejoin="round"/>
<path d="M649.7 316.8L682.7 300.6" stroke="#1C2628" stroke-width="2.13" stroke-linecap="round" stroke-linejoin="round"/>
<path d="M593 798.9L704.4 798.5" stroke="white" stroke-width="2.13" stroke-linecap="round" stroke-linejoin="round"/>
<path d="M326.7 137.6H761V681.9" stroke="#1C2628" stroke-width="2.13" stroke-linecap="round" stroke-linejoin="round"/>
<path d="M204.1 480.8V760.2" stroke="#1C2628" stroke-width="2.13" stroke-linecap="round" stroke-linejoin="round"/>
<path d="M230.7 19.6C235.505 19.6 239.4 15.6601 239.4 10.8C239.4 5.93989 235.505 2 230.7 2C225.895 2 222 5.93989 222 10.8C222 15.6601 225.895 19.6 230.7 19.6Z" fill="#1C2628" stroke="#1C2628" stroke-width="2.13" stroke-linecap="round" stroke-linejoin="round"/>
<path d="M274.1 553.6L286.6 497.8C287.9 500.5 290.3 503.6 294.5 508L295.9 509.4C301.7 515.1 311.4 524.8 305.1 534.4C304.6 535.1 304.8 536.1 305.5 536.5C305.8 536.7 306.1 536.8 306.3 536.8C306.8 536.8 307.3 536.6 307.6 536.1C315.3 524.4 304 513.2 298 507.2L296.6 505.8C288.9 497.9 288.1 494.6 287.9 491.3L291.2 476.7C292.5 479.4 294.9 482.5 299.2 486.9L300.7 488.4C306.5 494.1 316.2 503.8 309.9 513.4C309.4 514.1 309.6 515.1 310.3 515.5C310.6 515.7 310.9 515.8 311.1 515.8C311.6 515.8 312.1 515.6 312.4 515.1C320.1 503.4 308.8 492.2 302.8 486.3L301.4 484.9C293.6 476.9 292.9 473.7 292.7 470.3C292.7 469.5 292.1 468.9 291.1 468.8C290.3 468.8 289.6 469.5 289.6 470.4C289.5 470.5 289.5 470.6 289.4 470.8L272 549.3C268.5 545.2 261.9 543.2 254.9 544.6C245.6 546.5 239.1 553.7 240.5 560.7C241.9 567.8 250.6 572 259.9 570.1C269.2 568.3 275.7 561 274.3 554C274.2 553.9 274.2 553.8 274.1 553.6Z" fill="#1C2628" stroke="#1C2628" stroke-width="2.13" stroke-linecap="round" stroke-linejoin="round"/>
<path d="M183.5 355.1L230.3 10.4L286.1 357" stroke="#1C2628" stroke-width="2.13" stroke-linecap="round" stroke-linejoin="round"/>
</svg>
