<svg width="956" height="905" viewBox="0 0 956 905" fill="none" xmlns="http://www.w3.org/2000/svg">
<path fill-rule="evenodd" clip-rule="evenodd" d="M256.2 788.5C256.2 788.5 230.9 828.8 234 837.2C237.5 846.9 263 876.2 263 876.2L335.7 874.3L303.3 863.3L285.8 833.7L306.9 795.1L256.2 788.5Z" fill="#F45B49" stroke="#1C2628" stroke-width="2.13" stroke-linecap="round" stroke-linejoin="round"/>
<path fill-rule="evenodd" clip-rule="evenodd" d="M349.5 873.5L305 874.5L219.8 873.3L228.1 829.6L266 828.6C266 828.6 264.7 818.6 274.6 819C282.2 819.3 304.6 842.5 325.3 848.9C353.7 857.7 349.5 873.5 349.5 873.5Z" fill="#C31626"/>
<path fill-rule="evenodd" clip-rule="evenodd" d="M349 867.8L252.7 867.3C249.9 867.3 247.7 869.3 247.6 871.8V873.4C247.6 875.9 249.8 877.9 252.6 877.9L348.9 878.4C351.7 878.4 353.9 876.4 354 873.9V872.3C354 869.8 351.8 867.8 349 867.8Z" fill="#1C2628" stroke="#1C2628" stroke-width="2.13" stroke-linecap="round" stroke-linejoin="round"/>
<path fill-rule="evenodd" clip-rule="evenodd" d="M260.8 878L215.3 877.3L218.1 853.4C218.1 853.4 241.2 852.1 249.1 859.5C257.1 867.1 260.8 878 260.8 878Z" fill="#1C2628" stroke="#1C2628" stroke-width="2.13" stroke-linecap="round" stroke-linejoin="round"/>
<path fill-rule="evenodd" clip-rule="evenodd" d="M329.8 850.3L276.4 817.6C276.4 817.6 267.9 818.9 265.7 822.4C263.5 825.8 267.4 831.3 267.4 831.3C267.4 831.3 297.9 851.7 310.9 855.8C320 858.7 329.8 850.3 329.8 850.3Z" fill="#1C2628" stroke="#1C2628" stroke-width="2.13" stroke-linecap="round" stroke-linejoin="round"/>
<path d="M281.8 837.4L263.2 872" stroke="#1C2628" stroke-width="2.13" stroke-linecap="round" stroke-linejoin="round"/>
<path d="M228.1 829.6L223.6 861.3" stroke="#1C2628" stroke-width="2.13" stroke-linecap="round" stroke-linejoin="round"/>
<path d="M519.1 421.4C485 471.1 438.9 523.9 361.7 565.4C284.5 606.9 175.7 637 127.6 593.7C79.3999 550.9 92.5999 434.1 101.1 343.6C109.6 253.6 114 190 140.5 137.2C167 85 215.2 43.5 265.4 39.1C315 34.6 366.5 67.8 446.7 68.5C527 69.2 636 37.4 666.1 67C696.2 96.6 646.9 187.6 611.3 256.1C575.8 324.5 553.2 371.6 519.1 421.4Z" fill="#1ED760"/>
<path fill-rule="evenodd" clip-rule="evenodd" d="M673.2 59.6C666.3 52.7 605 96.4 605 96.4C605 96.4 566.5 205.9 557 227.3C547.4 248.9 512.6 305.7 512.6 305.7C512.6 305.7 442.3 301.1 409 330.3C389.5 347.4 366.7 410.6 366.7 410.6C366.7 410.6 335.1 416.4 317.5 400.3C307.4 391.1 296.4 364.2 289.2 351.7C283.8 342.5 280.8 345.9 280.8 345.9L288.3 395.5L270.3 391.7L290.2 423.7C290.2 423.7 356.5 481.3 382.6 464.1C408.7 446.9 428.9 416.4 428.9 416.4L429 489.5L551.9 448.8L553.3 369.5C553.3 369.5 595.7 303 615 232.6C624.1 199.2 634.6 131.4 634.6 131.4C634.6 131.4 674.9 118.8 679.9 88.3C683.1 68.6 681.5 67.9 673.2 59.6Z" fill="#F45B49" stroke="#1C2628" stroke-width="2.13" stroke-linecap="round" stroke-linejoin="round"/>
<path d="M669.6 69.3C665.6 67.2 661.1 66.8 657.2 67.7C654.9 68.2 652.9 69.1 651.2 70.2C651.1 69.2 650.9 68.2 650.8 67.1C650.6 65.1 650.4 63.1 650.2 61.1C652.1 59.4 653.9 57.7 655.6 55.7C659.7 51.1 662.7 45.5 663.6 39.3C664.5 33.2 665.2 27 663.5 21.4C663.1 19.9 662.6 19 661.7 17.1C661.4 16.4 660.8 15.1 660 14C659.2 12.9 657.7 12 656 12.1C652.7 12.5 651.1 14.4 650 15.8C649.5 16.6 649.1 17.3 648.7 18.1C648.5 18.5 648.4 18.8 648.2 19.1L648.1 19.3C648 19.5 648 19.5 648 19.7L647.8 20.3C646.8 23.4 646.8 26.3 646.9 29.1C646.9 31.8 647 34.5 647 37.2C646.9 41.4 647.1 45.6 647.3 49.7C645.8 51.4 644.3 53 642.6 54.5L639.6 57.2C638.6 58.1 637.5 59.1 636.4 60.2C632.2 64.5 628.6 69.5 626.4 75.3C624.1 81 623.9 88 626.6 93.7C629.2 99.4 634 103.4 639.1 105.7C644.1 107.9 649.3 108.8 654.4 108.7C654.8 111.4 655.1 113.9 655.4 116.4C656.7 122.9 654.2 128.5 650.1 130.3C647.1 131.5 644.3 130.7 642.5 129.4C642.7 129.4 642.9 129.5 643.1 129.5C646.1 129.7 648.7 127.5 648.9 124.5C649.1 121.5 646.9 119 643.9 118.7C640.9 118.5 638.4 120.7 638.1 123.7C638.1 123.9 638.1 124.2 638.1 124.4C638.2 125.5 638.6 126.6 639.3 127.4C639.5 127.7 639.6 127.9 639.9 128.2C640.7 129.3 642 130.5 643.9 131.3C645.8 132.1 648.1 132.5 650.7 131.8C653.3 131.1 655.8 129 657.1 126C657.7 124.5 658.2 122.9 658.3 121.2C658.3 119.4 658.2 117.8 658 116.1C657.7 113.7 657.4 111.2 657 108.6C661.5 108.2 665.9 106.9 669.8 104.9C674.2 102.4 677.7 98.4 679.1 93.7C680.7 89 680.4 84 678.7 79.6C676.9 75.2 673.7 71.4 669.6 69.3ZM652.1 25.9C653 23.8 654.8 18 658.1 19.2C660.2 20 660.3 22.8 660.2 24.7C659.9 29 658.7 33.3 656.4 37C654.2 40.6 652 43.9 649.5 47.2C649.4 44 649.4 40.7 649.6 37.5C649.8 33.5 650.7 29.5 652.1 25.9ZM641.2 101.8C637.1 99.4 633.6 95.8 632.1 91.5C630.6 87.2 631.2 82.6 633.3 78.3C635.5 74.1 639 70.4 642.8 67.1C643.7 66.3 644.7 65.5 645.8 64.7L647.4 63.5C647.8 63.2 648.2 62.9 648.5 62.6C648.7 64.2 648.8 65.8 649 67.3C649.2 68.7 649.3 70 649.5 71.4C646.2 74 644 77.5 643.1 80.6C641.6 85.9 642.5 90 643.4 92.5C643.8 93.8 644.3 94.7 644.6 95.3C644.9 95.9 645.1 96.2 645.1 96.2C645.1 96.2 644.8 94.8 644.7 92.2C644.6 89.7 644.7 85.9 646.7 82C647.5 80.4 648.7 78.8 650.2 77.5C650.9 83.2 651.7 88.7 652.4 93.9C652.9 97.9 653.5 101.8 654 105.5C649.5 105.3 645.1 104.1 641.2 101.8ZM676.1 92.9C675.3 96.9 672.5 100.7 668.5 102.7C665 104.6 660.8 105.5 656.5 105.6C655.9 101.8 655.3 97.8 654.6 93.6C653.7 88.1 652.8 82.2 652 76.1C653.8 74.9 655.9 73.9 658.4 73.5C663.9 72.7 670.4 75.2 674 81.6C675.8 84.8 676.8 88.9 676.1 92.9Z" fill="#1C2628" stroke="#1C2628" stroke-width="2.13" stroke-linecap="round" stroke-linejoin="round"/>
<path fill-rule="evenodd" clip-rule="evenodd" d="M689.5 58.2L688.7 56.3C687.5 53.4 684.2 52 681.3 53.2L664.4 59.7C661.5 60.8 660.1 64 661.3 66.9L662 68.8C663.2 71.7 666.5 73.1 669.4 71.9L686.3 65.4C689.3 64.2 690.7 61 689.5 58.2Z" fill="#F45B49" stroke="#1C2628" stroke-width="2.13" stroke-linecap="round" stroke-linejoin="round"/>
<path fill-rule="evenodd" clip-rule="evenodd" d="M689.6 71.4L688.8 69.5C687.6 66.6 684.3 65.2 681.4 66.4L664.5 72.9C661.6 74 660.2 77.2 661.4 80.1L662.2 82C663.4 84.9 666.7 86.3 669.6 85.1L686.5 78.6C689.4 77.5 690.8 74.3 689.6 71.4Z" fill="#F45B49" stroke="#1C2628" stroke-width="2.13" stroke-linecap="round" stroke-linejoin="round"/>
<path fill-rule="evenodd" clip-rule="evenodd" d="M689 86L688.2 84.1C687 81.2 683.7 79.8 680.8 81L663.9 87.5C661 88.6 659.6 91.8 660.8 94.7L661.6 96.6C662.8 99.5 666.1 100.9 669 99.7L685.9 93.2C688.7 92.1 690.1 88.9 689 86Z" fill="#F45B49" stroke="#1C2628" stroke-width="2.13" stroke-linecap="round" stroke-linejoin="round"/>
<path fill-rule="evenodd" clip-rule="evenodd" d="M629.7 119.5C630.7 112.5 631.7 98.4 626.7 92.8C621.7 87.2 639.1 74 634.2 67.9C626.1 57.9 606.7 96.3 606.7 96.3" fill="#F45B49"/>
<path d="M629.7 119.5C630.7 112.5 631.7 98.4 626.7 92.8C621.7 87.2 639.1 74 634.2 67.9C626.1 57.9 606.7 96.3 606.7 96.3" stroke="#1C2628" stroke-width="2.13" stroke-linecap="round" stroke-linejoin="round"/>
<path fill-rule="evenodd" clip-rule="evenodd" d="M441.2 252.3C431.5 220.9 444.3 196.7 489.1 202.4C494.3 203.1 500.5 203.7 505.2 206.4C526.4 218.8 522.4 233.2 525 236.1C532.6 244.8 536.2 278.3 539.4 287.7L434.4 286.6L441.2 252.3Z" fill="#1C2628" stroke="#1C2628" stroke-width="2.13" stroke-linecap="round" stroke-linejoin="round"/>
<path fill-rule="evenodd" clip-rule="evenodd" d="M468.2 707.1C468.2 707.1 484.8 790 499.4 835.3C509.9 867.9 515.1 880.6 489.8 883.2C464.4 885.8 437.5 882 437.5 882L391.2 887C391.2 887 373.6 886.4 391.6 874C409.4 861.7 438.5 859.2 446.3 843C454 826.6 404.4 735 404.4 735L468.2 707.1Z" fill="#F45B49" stroke="#1C2628" stroke-width="2.13" stroke-linecap="round" stroke-linejoin="round"/>
<path fill-rule="evenodd" clip-rule="evenodd" d="M745.9 482.7C745.9 482.7 784 444.1 805.4 415.6C822.6 392.6 824.6 383.8 843.5 392.8C860.8 401 929 370.9 933.9 386C939.5 403.3 874.3 424.5 832.2 454.2C800.8 476.3 790 510.8 790 510.8L745.9 482.7Z" fill="#F45B49" stroke="#1C2628" stroke-width="2.13" stroke-linecap="round" stroke-linejoin="round"/>
<path fill-rule="evenodd" clip-rule="evenodd" d="M23.9 643.7C17.9 648.2 10.5 653.2 6.49998 659.9C6.09998 660.5 -0.400018 666.6 1.89998 667.5C10.7 671 23.8 655.3 29.7 651.3C32.1 649.7 34.3 647.7 36.7 646.1C37.7 645.4 40.1 642.8 39.7 644C37.8 649.7 28.9 653.9 25.3 658.7C18.5 667.8 30.5 663.1 34.2 659.9C36 658.4 37.9 657.1 39.7 655.6C42.1 653.7 44.2 651.5 46.4 649.5C50 646.2 53.9 643.3 58 640.6" fill="#F45B49"/>
<path d="M23.9 643.7C17.9 648.2 10.5 653.2 6.49998 659.9C6.09998 660.5 -0.400018 666.6 1.89998 667.5C10.7 671 23.8 655.3 29.7 651.3C32.1 649.7 34.3 647.7 36.7 646.1C37.7 645.4 40.1 642.8 39.7 644C37.8 649.7 28.9 653.9 25.3 658.7C18.5 667.8 30.5 663.1 34.2 659.9C36 658.4 37.9 657.1 39.7 655.6C42.1 653.7 44.2 651.5 46.4 649.5C50 646.2 53.9 643.3 58 640.6" stroke="#1C2628" stroke-width="2.13" stroke-linecap="round" stroke-linejoin="round"/>
<path fill-rule="evenodd" clip-rule="evenodd" d="M169.3 216.4C169.5 205.2 151.5 199.8 136.3 208.1C121.1 216.4 120.2 240.6 117.5 245.7C102.5 274.3 125 297 159.5 301.3C169.5 302.5 202.3 289.2 201 276.9C199.7 264.5 163 270.6 160.4 259.3" fill="#1C2628"/>
<path d="M169.3 216.4C169.5 205.2 151.5 199.8 136.3 208.1C121.1 216.4 120.2 240.6 117.5 245.7C102.5 274.3 125 297 159.5 301.3C169.5 302.5 202.3 289.2 201 276.9C199.7 264.5 163 270.6 160.4 259.3" stroke="#1C2628" stroke-width="2.13" stroke-linecap="round" stroke-linejoin="round"/>
<path fill-rule="evenodd" clip-rule="evenodd" d="M112.3 519.2C112.3 519.2 102.7 628 93.1999 639.5C87.9999 645.8 19.9 649.4 19.9 649.4C19.9 649.4 26.6999 654.5 26.9999 658.6C27.2999 662.7 24.4999 664.1 24.4999 664.1C24.4999 664.1 6.19995 658.8 3.99995 653.2C2.59995 649.6 17.7999 637.8 24.5999 633.8C42.0999 623.6 59.5999 623.2 63.5999 612.2C67.5999 601.2 76.4999 512.4 76.4999 512.4L112.3 519.2Z" fill="#F45B49" stroke="#1C2628" stroke-width="2.13" stroke-linecap="round" stroke-linejoin="round"/>
<path fill-rule="evenodd" clip-rule="evenodd" d="M176.9 813.8C176.9 813.8 137.9 881.2 142.4 892.8L254.6 896L208 862L227.6 820.4L176.9 813.8Z" fill="#F45B49" stroke="#1C2628" stroke-width="2.13" stroke-linecap="round" stroke-linejoin="round"/>
<path fill-rule="evenodd" clip-rule="evenodd" d="M496.2 273.5L495.8 301.1L502.8 309.2C502.8 309.2 506.2 336.7 495.3 343.1C483.4 350.2 456.6 336.3 447.5 334C439.3 331.9 452.4 314.7 452.4 314.7L453.3 283L452.5 270.7L496.2 273.5Z" fill="#F45B49" stroke="#1C2628" stroke-width="2.13" stroke-linecap="round" stroke-linejoin="round"/>
<path fill-rule="evenodd" clip-rule="evenodd" d="M501.8 257.1C503.7 250.2 503 236.4 501.3 230.1C498.2 218.7 495 223.7 483.4 220.5C470.5 216.9 464.2 211.8 455.8 222.1C452.5 226.1 442.8 241.1 441.3 246.5C436 265.8 446.2 285.5 464.1 290.5C475.6 293.7 485 292.7 493.4 284.5C498.3 280 499.9 264 501.8 257.1Z" fill="#F45B49" stroke="#1C2628" stroke-width="2.13" stroke-linecap="round" stroke-linejoin="round"/>
<path fill-rule="evenodd" clip-rule="evenodd" d="M475.8 255.3C476.7 252.6 474.2 249.4 470.3 248.1C466.4 246.8 462.5 247.9 461.6 250.6C460.7 253.3 463.2 256.5 467.1 257.8C471.1 259.1 474.9 258 475.8 255.3Z" fill="#FAFCFF" stroke="#1C2628" stroke-width="2.13" stroke-linecap="round" stroke-linejoin="round"/>
<path fill-rule="evenodd" clip-rule="evenodd" d="M452.5 244.6C453.4 241.9 450.9 238.7 447 237.4C443.1 236.1 439.2 237.2 438.3 239.9C437.4 242.6 439.9 245.8 443.8 247.1C447.8 248.4 451.6 247.2 452.5 244.6Z" fill="#FAFCFF" stroke="#1C2628" stroke-width="2.13" stroke-linecap="round" stroke-linejoin="round"/>
<path fill-rule="evenodd" clip-rule="evenodd" d="M492.2 304.3L495 276.1C495 276.1 472.3 271.1 466.8 277C461.4 282.9 467.1 302.3 467.1 302.3L480.8 304.4" fill="#FB564C"/>
<path fill-rule="evenodd" clip-rule="evenodd" d="M515.5 254.2C510.1 263.8 501 242.2 501 242.2L464.3 233.5L461.7 214.8L453.1 235.7L440 235.4C440 235.4 450.4 209.4 453 206.9C463.7 196.7 481.9 197.2 493.7 207C503.6 215.2 526.7 234.4 515.5 254.2Z" fill="#1C2628" stroke="#1C2628" stroke-width="2.13" stroke-linecap="round" stroke-linejoin="round"/>
<path fill-rule="evenodd" clip-rule="evenodd" d="M498.2 259.1C500.8 256 505.9 259.1 506.9 262.1C508.9 268.3 504.2 278.8 494.5 272.5" fill="#F45B49"/>
<path d="M498.2 259.1C500.8 256 505.9 259.1 506.9 262.1C508.9 268.3 504.2 278.8 494.5 272.5" stroke="#1C2628" stroke-width="2.13" stroke-linecap="round" stroke-linejoin="round"/>
<path fill-rule="evenodd" clip-rule="evenodd" d="M463.6 256.4C465.5 257.6 467.8 257.3 468.8 255.8C469.8 254.3 469 252.1 467.1 250.9C465.2 249.7 462.9 250 461.9 251.5C460.9 253 461.7 255.2 463.6 256.4Z" fill="#1C2628" stroke="#1C2628" stroke-width="2.13" stroke-linecap="round" stroke-linejoin="round"/>
<path fill-rule="evenodd" clip-rule="evenodd" d="M445.2 244.9C446.4 243 446.1 240 441.1 239.1C439.3 238.8 439.5 239.7 438.2 241.5C437 243.4 438.6 245.4 440.1 246.4C441.7 247.4 444 246.8 445.2 244.9Z" fill="#1C2628" stroke="#1C2628" stroke-width="2.13" stroke-linecap="round" stroke-linejoin="round"/>
<path fill-rule="evenodd" clip-rule="evenodd" d="M352.8 543C340.2 548.8 340.3 525.3 348.8 519.7C364.5 509.4 379.9 530.6 352.8 543Z" fill="#FAF6EB"/>
<path d="M500.8 265.2C500.6 265.4 500.4 265.6 500.3 265.9" stroke="#1C2628" stroke-width="2.13" stroke-linecap="round" stroke-linejoin="round"/>
<path fill-rule="evenodd" clip-rule="evenodd" d="M843.6 464.9C843.6 464.9 842.5 466.6 840.5 469.6C826.6 490.7 768 575 712.6 588C700.1 590.9 685 590.9 668.8 589.1C603.3 581.6 519.7 543.5 518.4 542.9L458.7 627.7L502.1 752.6L480.8 755.8L407.2 767C407.2 767 348.1 664.9 350.3 639.7C353.8 598.9 427.6 465.9 427.6 465.9L493.8 447.6L556.6 430.2L620.8 461.5L624.4 463.2L707 490.9L786.3 414.4L843.6 464.9Z" fill="#1ED760" stroke="#1C2628" stroke-width="2.13" stroke-linecap="round" stroke-linejoin="round"/>
<path fill-rule="evenodd" clip-rule="evenodd" d="M574.3 409.1C574.3 409.1 542.4 415.1 527.8 417.9C517.1 419.9 505 428.8 479.4 435.7C477.7 436.2 475.9 436.6 474.1 437.1C462.4 440 426.9 446.1 426.9 446.1L424.1 403.4L418.5 388.2C415.9 381.1 415.9 373.4 418.4 366.3L430.3 333.3L438.2 311.2L452.2 307.1L449.2 331L490.8 330.9L501 304.5L514.2 303.1L514.9 314.1C515.9 329.3 523.8 343.3 536.2 352.1L553.9 364.6L557 371.3L574.3 409.1Z" fill="#C31626" stroke="#1C2628" stroke-width="2.13" stroke-linecap="round" stroke-linejoin="round"/>
<path fill-rule="evenodd" clip-rule="evenodd" d="M383.6 661.9C374 698.5 324.7 798.8 324.7 798.8L264 793L249 815L158.4 812.6L170.1 787.4L226.2 666.3L145.9 561.7L149.3 509.3L149.5 505.9L204.7 500.5L269.1 490.4C269.1 490.3 393.2 625.3 383.6 661.9Z" fill="#1ED760" stroke="#1C2628" stroke-width="2.13" stroke-linecap="round" stroke-linejoin="round"/>
<path fill-rule="evenodd" clip-rule="evenodd" d="M252.6 673.3C251 687.4 245.8 685.9 235.2 715.8C226.4 740.4 229.6 742.5 222.7 752.7C211.2 769.7 193.5 777.5 185.1 781.3C178.8 784.1 174 786.2 170.2 787.4L226.3 666.3L146 561.7L149.4 509.3C159.6 510.6 171.6 513.1 185.9 516.9C203.3 540.3 206 558.3 204.7 570.9C203.7 580.7 200.3 587.3 204 596C209.2 608.4 221.3 606.9 234 618.3C249.6 632.6 254.5 656.5 252.6 673.3Z" fill="#1C2628" stroke="#1C2628" stroke-width="2.13" stroke-linecap="round" stroke-linejoin="round"/>
<path fill-rule="evenodd" clip-rule="evenodd" d="M255.9 805C260.9 826 241.9 827 241.9 827L167.2 826.2C160.6 826.2 155.2 820.8 155.2 814.2C155.2 807.6 160.6 802.2 167.2 802.2" fill="#47584E"/>
<path d="M255.9 805C260.9 826 241.9 827 241.9 827L167.2 826.2C160.6 826.2 155.2 820.8 155.2 814.2C155.2 807.6 160.6 802.2 167.2 802.2" stroke="#1C2628" stroke-width="2.13" stroke-linecap="round" stroke-linejoin="round"/>
<path fill-rule="evenodd" clip-rule="evenodd" d="M320 781.2C326 781.2 330.9 786.1 330.9 792.1C330.9 798.1 326 803 320 803H269C263 803 263.9 792.9 263.9 792.9" fill="#47584E"/>
<path d="M320 781.2C326 781.2 330.9 786.1 330.9 792.1C330.9 798.1 326 803 320 803H269C263 803 263.9 792.9 263.9 792.9" stroke="#1C2628" stroke-width="2.13" stroke-linecap="round" stroke-linejoin="round"/>
<path fill-rule="evenodd" clip-rule="evenodd" d="M135.2 536.1L135.3 536.9L134.1 564.7L254.3 539.1L256.7 512.3C248.1 514.4 232.8 512.3 208.1 516.8C176.3 522.6 167.5 535.5 135.2 536.1Z" fill="#F3A140" stroke="#1C2628" stroke-width="2.13" stroke-linecap="round" stroke-linejoin="round"/>
<path fill-rule="evenodd" clip-rule="evenodd" d="M257.9 512.1L266.4 532.8L305.7 517.3L303.2 498.6C288.5 504 273.5 508.2 257.9 512.1Z" fill="#F3A140" stroke="#1C2628" stroke-width="2.13" stroke-linecap="round" stroke-linejoin="round"/>
<path fill-rule="evenodd" clip-rule="evenodd" d="M298.8 464.9L294.2 429.6L292.4 415.9L288.3 384.6L283.5 348.5C283.5 348.5 303.1 312.9 311.4 264.7C314.1 249.2 315.2 229.8 315.5 210.6C315.6 205.5 315.6 200.4 315.5 195.4C315.3 160.9 312.9 130.8 312.9 130.8L254.9 133.7C254.9 133.7 254.9 181.7 247.1 222.5C239.3 263.2 227 296.6 227 296.6L208.2 312.9L161.2 323.5C161.2 323.5 98.8 335.9 89.2 365.2C84.6 379.1 80.8 396.7 77.7 414C77.1 417.3 76.6 420.5 76.1 423.7C74.3 434.5 72.9 444.9 71.8 453.7C71.3 457.3 70.9 460.6 70.6 463.6C69.4 473.5 68.8 479.8 68.8 479.8L50.2 592.9L113.2 596.7L125.2 522.7L131.4 476.8L135.3 536.4C167.6 535.8 184.2 518.9 216.4 517.3C242.8 516 248 514.8 256.7 512.7C256.7 512.7 288.6 504.3 303.3 498.8L298.8 464.9Z" fill="#C31626" stroke="#1C2628" stroke-width="2.13" stroke-linecap="round" stroke-linejoin="round"/>
<path d="M257.7 298.3L244.7 289.9L246 305.3L234 315.1L249.1 318.7L254.7 333.1L262.7 319.9L278.2 319L268.1 307.3L272 292.3L257.7 298.3Z" fill="#49574E"/>
<path d="M315.5 210.6L312.3 210L311.1 211L304.5 216.5L304 206.4L295.4 201L304.9 197.4L307.3 187.6L312.6 194.3L313.6 195.5L315.4 195.4C315.6 200.4 315.6 205.5 315.5 210.6Z" fill="#49574E"/>
<path d="M298.8 464.9C297.6 465.1 296.2 464.9 295.2 464.1L275.6 450.5L260 456.4L253.3 459C251.6 459.6 249.6 459.3 248.3 458C246.9 456.7 246.4 454.8 247 453.1L253.9 430.2L239 411.6C238.3 410.7 237.9 409.6 237.9 408.6C237.9 407.9 238 407.2 238.3 406.6C239.1 404.9 240.7 403.8 242.6 403.8L266.5 403.3L279.6 383.4C280.6 381.9 282.4 381 284.2 381.2C286 381.4 287.6 382.7 288.2 384.4L288.3 384.7L292.4 416L291 415.6C289.5 415.2 288.2 414 287.7 412.5L284.6 403.8L282.2 396.9L273.1 410.8C272.2 412.1 270.7 413 269.1 413L252.5 413.3L262.9 426.3C263.9 427.5 264.2 429.2 263.8 430.7L259 446.6L265.9 444L274.6 440.7C276.1 440.1 277.8 440.3 279.1 441.3L292.7 450.8L291.9 434.2C291.9 433.4 292 432.6 292.3 431.9C292.6 431.2 293.1 430.6 293.8 430.1L294.2 429.8L298.8 464.9Z" fill="#49574E"/>
<path d="M183.6 476L169.3 482L156.3 473.6L157.6 489L145.6 498.9L158 501.8L160.7 502.4L166.3 516.9L174.4 503.6L189.8 502.7L179.7 491L180.4 488.3L183.6 476Z" fill="#49574E"/>
<path d="M153.7 365.2L145.2 359.7L146 369.8L138.2 376.2L148 378.5L151.7 388L157 379.3L167.1 378.7L160.5 371L163 361.2L153.7 365.2Z" fill="#49574E"/>
<path d="M101 421.8L86.4 440.7L93.7 463.4C94.3 465.2 93.8 467.1 92.5 468.4C91.2 469.7 89.2 470.1 87.5 469.5L70.5 463.4C70.9 460.4 71.3 457.1 71.7 453.5L81.5 457L76.4 441.2C75.9 439.7 76.2 438 77.2 436.8L87.3 423.7H76C76.5 420.5 77.1 417.3 77.6 414H97.1C98.9 414 100.6 415.1 101.4 416.7C102.3 418.3 102.1 420.3 101 421.8Z" fill="#49574E"/>
<path fill-rule="evenodd" clip-rule="evenodd" d="M166.2 278.2L164.3 319.5C164.3 319.5 193 323.4 201.4 319.8C209.8 316.2 222.9 309.5 222.9 309.5L206.3 270.2L166.2 278.2Z" fill="#F45B49" stroke="#1C2628" stroke-width="2.13" stroke-linecap="round" stroke-linejoin="round"/>
<path d="M262.7 537.5C262.7 537.5 345.1 643 340.8 663.1C336.5 683.2 255.7 805.2 255.7 805.2L186.7 803" stroke="#1C2628" stroke-width="2.13" stroke-linecap="round" stroke-linejoin="round"/>
<path fill-rule="evenodd" clip-rule="evenodd" d="M200.7 333.5L187.7 342L200 346.5L200.7 333.5Z" fill="#1C2628" stroke="#1C2628" stroke-width="2.13" stroke-linecap="round" stroke-linejoin="round"/>
<path fill-rule="evenodd" clip-rule="evenodd" d="M201.4 319.7L163.8 307.9L159.2 321.3C157.5 326.3 160.1 331.8 165.1 333.6L187.7 341.9L200.7 333.5L201.4 319.7Z" fill="#FAF6EB" stroke="#1C2628" stroke-width="2.13" stroke-linecap="round" stroke-linejoin="round"/>
<path fill-rule="evenodd" clip-rule="evenodd" d="M211.1 343.9L221.2 333.9L207.1 332.4L211.1 343.9Z" fill="#1C2628" stroke="#1C2628" stroke-width="2.13" stroke-linecap="round" stroke-linejoin="round"/>
<path fill-rule="evenodd" clip-rule="evenodd" d="M221.5 301.1L202.4 319L207 332.3L221.2 333.9L229.2 326.1C232.9 322.5 233.4 316.6 230.2 312.5L221.5 301.1Z" fill="#FAF6EB" stroke="#1C2628" stroke-width="2.13" stroke-linecap="round" stroke-linejoin="round"/>
<path d="M120.8 389.6C120.8 389.6 126.3 400 131.1 431.9C132.8 443 131.4 503.4 131.4 503.4" stroke="#1C2628" stroke-width="2.13" stroke-linecap="round" stroke-linejoin="round"/>
<path fill-rule="evenodd" clip-rule="evenodd" d="M165.3 289.1C144.5 282.6 132.5 261.7 138.5 242.4C141.5 232.8 139.1 220.8 147.8 216.6C156.6 212.4 176.6 216 187 219.2C207.8 225.7 219.8 246.6 213.8 265.9C210.5 276.4 206.7 286.4 196.9 290.4C188.6 293.7 174.8 292.1 165.3 289.1Z" fill="#F45B49" stroke="#1C2628" stroke-width="2.13" stroke-linecap="round" stroke-linejoin="round"/>
<path fill-rule="evenodd" clip-rule="evenodd" d="M177.5 225.6C184.7 223.8 199.7 216.8 202.2 220.3C205.5 224.9 195.9 232.3 194.4 232.7" fill="#F45B49"/>
<path d="M177.5 225.6C184.7 223.8 199.7 216.8 202.2 220.3C205.5 224.9 195.9 232.3 194.4 232.7" stroke="#1C2628" stroke-width="2.13" stroke-linecap="round" stroke-linejoin="round"/>
<path fill-rule="evenodd" clip-rule="evenodd" d="M193.5 264.6C187.8 267.7 181.2 260.1 181.2 260.1L196 249C196.1 248.9 204.2 258.8 193.5 264.6Z" fill="#1C2628" stroke="#1C2628" stroke-width="2.13" stroke-linecap="round" stroke-linejoin="round"/>
<path fill-rule="evenodd" clip-rule="evenodd" d="M162.7 252.4C160.1 250.7 160 246.3 162.5 242.6C164.9 238.8 169 237.1 171.6 238.8C174.2 240.5 174.3 244.9 171.8 248.6C169.3 252.4 165.3 254.1 162.7 252.4Z" fill="#FAFCFF" stroke="#1C2628" stroke-width="2.13" stroke-linecap="round" stroke-linejoin="round"/>
<path fill-rule="evenodd" clip-rule="evenodd" d="M175.9 225.3C173.5 223.8 173.1 220.2 175.1 217.2C177.1 214.3 180.6 213.1 183.1 214.7C185.5 216.2 185.9 219.8 183.9 222.8C181.9 225.7 178.3 226.8 175.9 225.3Z" fill="#FAFCFF" stroke="#1C2628" stroke-width="2.13" stroke-linecap="round" stroke-linejoin="round"/>
<path fill-rule="evenodd" clip-rule="evenodd" d="M166.9 296.4L165.5 281.4C165.5 281.4 182.5 268.7 189.7 273.6C196.9 278.6 195.5 300.4 195.5 300.4L181.5 305.9" fill="#FB564C"/>
<path fill-rule="evenodd" clip-rule="evenodd" d="M148.1 210.1C151.4 208.3 143.5 206 147.5 206.5C160.3 207.9 160.6 218.7 156.6 227.3C152.8 235.5 146.7 242.6 146.7 242.6C146.7 242.6 163.8 267.2 153.3 277.9C146.4 284.9 134.1 283.6 130.1 275.3C126.8 268.5 126.6 261 127.7 253.7C128.8 246.2 133 239.1 133.8 231.7" fill="#1C2628"/>
<path d="M148.1 210.1C151.4 208.3 143.5 206 147.5 206.5C160.3 207.9 160.6 218.7 156.6 227.3C152.8 235.5 146.7 242.6 146.7 242.6C146.7 242.6 163.8 267.2 153.3 277.9C146.4 284.9 134.1 283.6 130.1 275.3C126.8 268.5 126.6 261 127.7 253.7C128.8 246.2 133 239.1 133.8 231.7" stroke="#1C2628" stroke-width="2.13" stroke-linecap="round" stroke-linejoin="round"/>
<path fill-rule="evenodd" clip-rule="evenodd" d="M135.8 226.7C105.5 220.8 101 244.3 114.6 252.4C98.1 256.4 96.6 288 125 287.6C121.1 291.1 138.9 308.1 145.6 283.1" fill="#1C2628"/>
<path d="M135.8 226.7C105.5 220.8 101 244.3 114.6 252.4C98.1 256.4 96.6 288 125 287.6C121.1 291.1 138.9 308.1 145.6 283.1" stroke="#1C2628" stroke-width="2.13" stroke-linecap="round" stroke-linejoin="round"/>
<path fill-rule="evenodd" clip-rule="evenodd" d="M155 275.8C155.7 274.8 148.9 277.3 152.8 285.8C155.5 291.8 170.2 293.6 169.9 282.7" fill="#F45B49"/>
<path d="M155 275.8C155.7 274.8 148.9 277.3 152.8 285.8C155.5 291.8 170.2 293.6 169.9 282.7" stroke="#1C2628" stroke-width="2.13" stroke-linecap="round" stroke-linejoin="round"/>
<path d="M158.8 283.2L159.7 283.3H161.2L162.9 282.7" stroke="#1C2628" stroke-width="2.13" stroke-linecap="round" stroke-linejoin="round"/>
<path fill-rule="evenodd" clip-rule="evenodd" d="M170.8 239.8C169 238.8 166.7 239.5 165.8 241.4C164.9 243.2 165.5 245.5 167.4 246.4C169.2 247.4 171.5 246.7 172.4 244.8C173.3 243 172.6 240.7 170.8 239.8Z" fill="#1C2628" stroke="#1C2628" stroke-width="2.13" stroke-linecap="round" stroke-linejoin="round"/>
<path fill-rule="evenodd" clip-rule="evenodd" d="M182.4 215.5C180.7 214.6 178.7 215 178 216.5C177.2 217.9 178 219.8 179.7 220.7C181.4 221.6 183.4 221.2 184.1 219.7C184.9 218.3 184.1 216.4 182.4 215.5Z" fill="#1C2628" stroke="#1C2628" stroke-width="2.13" stroke-linecap="round" stroke-linejoin="round"/>
<path d="M159.2 216.1C159.9 212.1 156 208.4 153.6 205.7" stroke="#FAF6EB" stroke-width="2.13" stroke-linecap="round" stroke-linejoin="round"/>
<path d="M127.2 271.5C124.6 266.2 120.8 246.9 127.4 243.7C133.4 240.7 136 255.7 133.3 254C123 247.4 131 224.7 140 219.9" stroke="#FAF6EB" stroke-width="2.13" stroke-linecap="round" stroke-linejoin="round"/>
<path fill-rule="evenodd" clip-rule="evenodd" d="M188.3 291.4L210.4 279.1L214.8 294.6C214.8 294.6 207 295.2 199.8 293.9C192.7 292.6 188.3 291.4 188.3 291.4Z" fill="#1C2628" stroke="#1C2628" stroke-width="2.13" stroke-linecap="round" stroke-linejoin="round"/>
<path fill-rule="evenodd" clip-rule="evenodd" d="M158.9 279.8C158.9 276.9 161.3 274.6 164.3 274.6C167.3 274.6 169.7 276.9 169.7 279.8C169.7 282.7 167.3 285 164.3 285C161.3 285 158.9 282.6 158.9 279.8Z" fill="#1C2628" stroke="#1C2628" stroke-width="2.13" stroke-linecap="round" stroke-linejoin="round"/>
<path d="M167.7 279.2C175.4 286.9 186.5 305.9 194 326C200.6 343.8 173.9 384.7 172.6 400.6C171.1 417.7 198.6 470.2 182.8 500.6C169.4 526.4 143 523.8 129.2 552.9C115.4 582 102 641.8 37.2999 650.7" stroke="#1C2628" stroke-width="2.13" stroke-linecap="round" stroke-linejoin="round"/>
<path d="M439.1 264.5C448.2 287 360.4 295.7 320.2 344.8C280 393.9 199.8 345.8 187.4 364.9" stroke="#1C2628" stroke-width="2.13" stroke-linecap="round" stroke-linejoin="round"/>
<path d="M273.2 780.2C273.2 780.2 307.1 781.6 314.3 780.7" stroke="#1C2628" stroke-width="2.13" stroke-linecap="round" stroke-linejoin="round"/>
<path d="M54.2 567.5L108.7 575" stroke="#1C2628" stroke-width="2.13" stroke-linecap="round" stroke-linejoin="round"/>
<path d="M255.9 157.2L313.9 155.2" stroke="#1C2628" stroke-width="2.13" stroke-linecap="round" stroke-linejoin="round"/>
<path fill-rule="evenodd" clip-rule="evenodd" d="M473.6 265.4C471.1 270.7 463.8 268.9 458.7 270.7C458.7 270.7 462.7 279.5 471.4 274.9C477.1 271.8 473.6 265.4 473.6 265.4Z" fill="#1C2628" stroke="#1C2628" stroke-width="2.13" stroke-linecap="round" stroke-linejoin="round"/>
<path d="M452.6 503.3C452.6 503.3 472.1 508.2 478.4 514.9C485.6 522.7 509.8 537.8 518.4 542.9" stroke="#1C2628" stroke-width="2.13" stroke-linecap="round" stroke-linejoin="round"/>
<path d="M457.4 252.7C457.4 245.1 464 239 472.2 239C480.4 239 487 245.1 487 252.7C487 260.3 480.4 266.4 472.2 266.4C464 266.4 457.4 260.3 457.4 252.7Z" stroke="#FAF6EB" stroke-width="2.13" stroke-linecap="round" stroke-linejoin="round"/>
<path d="M428 243.8C428 236.2 434.6 230.1 442.8 230.1C451 230.1 457.6 236.2 457.6 243.8C457.6 251.4 451 257.5 442.8 257.5C434.6 257.5 428 251.3 428 243.8Z" stroke="#FAF6EB" stroke-width="2.13" stroke-linecap="round" stroke-linejoin="round"/>
<path fill-rule="evenodd" clip-rule="evenodd" d="M454.7 253.6C448 252.4 442.1 247.7 440 251.1C437.3 255.5 446.1 262.7 447.5 263.1" fill="#F45B49"/>
<path d="M454.7 253.6C448 252.4 442.1 247.7 440 251.1C437.3 255.5 446.1 262.7 447.5 263.1" stroke="#1C2628" stroke-width="2.13" stroke-linecap="round" stroke-linejoin="round"/>
<path d="M465 210C471 210 470.9 228.3 472 235" stroke="#FAF6EB" stroke-width="2.13" stroke-linecap="round" stroke-linejoin="round"/>
<path d="M489 202C511 223 509 252.5 511.8 267.7" stroke="#FAF6EB" stroke-width="2.13" stroke-linecap="round" stroke-linejoin="round"/>
<path d="M519.7 243.7C521.8 255.3 524.5 266.8 527 278.4" stroke="#FAF6EB" stroke-width="2.13" stroke-linecap="round" stroke-linejoin="round"/>
<path d="M456.5 356C453.8 373.8 443.9 393.2 434.6 403.2C432.9 405 430.6 407.2 428.1 409" stroke="#1C2628" stroke-width="2.13" stroke-linecap="round" stroke-linejoin="round"/>
<path d="M424.1 377C435.4 361.7 467.9 328.7 489.4 345C509.1 359.9 472.4 414.5 460.7 430" stroke="#1C2628" stroke-width="2.13" stroke-linecap="round" stroke-linejoin="round"/>
<path d="M445.9 429.3C449.5 421.1 455.7 412.1 457.2 410C469.7 392.3 505.3 346.9 531.7 355.3C532.2 355.4 532.6 355.6 533 355.8" stroke="#1C2628" stroke-width="2.13" stroke-linecap="round" stroke-linejoin="round"/>
<path d="M541.8 356C542 359.4 533 398.3 517 419.8" stroke="#1C2628" stroke-width="2.13" stroke-linecap="round" stroke-linejoin="round"/>
<path d="M502.1 417.9C503.2 415.1 504.4 412.3 505.7 409.6C512.9 394.1 523.6 377 537.4 364.8" stroke="#1C2628" stroke-width="2.13" stroke-linecap="round" stroke-linejoin="round"/>
<path fill-rule="evenodd" clip-rule="evenodd" d="M23.0999 644.8H52.5999C56.0999 644.8 58.8999 647.6 58.8999 651.1C58.8999 654.6 56.0999 657.4 52.5999 657.4H23.0999C19.5999 657.4 16.7999 654.6 16.7999 651.1C16.7999 647.6 19.6999 644.8 23.0999 644.8Z" fill="#1C2628" stroke="#1C2628" stroke-width="2.13" stroke-linecap="round" stroke-linejoin="round"/>
<path d="M578 480.1C606.3 487.6 695.1 528 715 521.7C734.9 515.3 756.8 485.3 776.2 473.9" stroke="#1C2628" stroke-width="2.13" stroke-linecap="round" stroke-linejoin="round"/>
<path d="M428.4 507.5C435.1 535.9 383.2 566.2 376.8 598.3C370 632.4 402.5 593.3 415 593.3C427.3 593.3 409.2 627 407 634.5C400.5 656.7 402.1 665.1 413.3 685.5" stroke="#1C2628" stroke-width="2.13" stroke-linecap="round" stroke-linejoin="round"/>
<path d="M188.2 366.3C184.3 367.6 180.7 363.9 184.4 361.4C189.6 357.9 189.4 365.9 188.2 366.3Z" stroke="#1C2628" stroke-width="2.13" stroke-linecap="round" stroke-linejoin="round"/>
<path fill-rule="evenodd" clip-rule="evenodd" d="M154.2 730.9C149.5 732.8 150.1 740 147.7 744.4C143.4 752.5 135.1 759.7 127.4 764.5C118.1 770.2 105.6 784.2 102.2 794.6C97.8 808.2 105.4 823.1 121.7 819.3C137.4 815.6 136.6 795.3 142.1 783.9C147.5 772.7 180.8 745.2 167.3 732.2C163.2 728.2 158.5 729.2 154.2 730.9Z" fill="#1ED760"/>
<path fill-rule="evenodd" clip-rule="evenodd" d="M356.3 383.1C343.7 390.3 316.1 375.6 331.7 360.9C339.6 353.4 343.8 363.2 351.1 360.9C359.5 358.3 359.3 346 368.1 343.3C373.8 341.5 375.1 349.9 374.6 353.3C372.8 364 365.9 377.6 356.3 383.1Z" fill="#FAF6EB"/>
<path d="M463 470.8L574.3 438.7" stroke="#1C2628" stroke-width="2.13" stroke-linecap="round" stroke-linejoin="round"/>
<path fill-rule="evenodd" clip-rule="evenodd" d="M440.9 819.4L448.2 860.4L508 854.9L493.8 808.7L440.9 819.4Z" fill="white" stroke="#1C2628" stroke-width="2.13" stroke-linecap="round" stroke-linejoin="round"/>
<path fill-rule="evenodd" clip-rule="evenodd" d="M483.7 810.7C488.9 821.7 492.9 842.2 496.3 854.3Z" fill="#FAF6EB"/>
<path d="M483.7 810.7C488.9 821.7 492.9 842.2 496.3 854.3" stroke="#1C2628" stroke-width="2.13" stroke-linecap="round" stroke-linejoin="round"/>
<path fill-rule="evenodd" clip-rule="evenodd" d="M473.2 813.5C477.3 828 483.9 844.1 485.6 859Z" fill="#FAF6EB"/>
<path d="M473.2 813.5C477.3 828 483.9 844.1 485.6 859" stroke="#1C2628" stroke-width="2.13" stroke-linecap="round" stroke-linejoin="round"/>
<path fill-rule="evenodd" clip-rule="evenodd" d="M462.6 815.3C466.9 830.5 471.1 846.9 474.5 862.3Z" fill="#FAF6EB"/>
<path d="M462.6 815.3C466.9 830.5 471.1 846.9 474.5 862.3" stroke="#1C2628" stroke-width="2.13" stroke-linecap="round" stroke-linejoin="round"/>
<path fill-rule="evenodd" clip-rule="evenodd" d="M451.8 817.2C455.7 830.9 458.3 846.8 461.4 860.9Z" fill="#FAF6EB"/>
<path d="M451.8 817.2C455.7 830.9 458.3 846.8 461.4 860.9" stroke="#1C2628" stroke-width="2.13" stroke-linecap="round" stroke-linejoin="round"/>
<path fill-rule="evenodd" clip-rule="evenodd" d="M429.4 848.1L440.1 829.7C440.1 829.7 454.9 829.6 454.4 833.4C453.9 837.2 448.1 853.2 448.1 853.2L429.4 848.1Z" fill="#FAF6EB" stroke="#1C2628" stroke-width="2.13" stroke-linecap="round" stroke-linejoin="round"/>
<path fill-rule="evenodd" clip-rule="evenodd" d="M433.9 841.5L462.7 850.4C462.7 850.4 487.6 855.9 492.8 854.5C498.1 853 496.8 848.9 499.7 846.6C502.6 844.3 508.1 844.8 508.1 844.8C508.1 844.8 509.3 849.8 510.2 861.1C511.1 872.4 506.9 885.7 506.9 885.7L418.2 889.1L373 889.3C373 889.3 364.6 872.4 377.1 867C389.8 861.5 401.6 859.7 419.4 852.4C428.3 848.7 433.9 841.5 433.9 841.5Z" fill="#C31626" stroke="#1C2628" stroke-width="2.13" stroke-linecap="round" stroke-linejoin="round"/>
<path fill-rule="evenodd" clip-rule="evenodd" d="M507.4 881.9C505.1 881.3 465.8 880.7 465.8 880.7C465.8 880.7 458.7 884.1 436.9 886.6C415.1 889.1 373 888.6 373 888.6C373 888.6 381.9 895.6 401.4 894.1C424 892.4 506.3 891.8 506.3 891.8C506.3 891.8 510.8 889.9 511.1 887.7C511.2 885.5 509.9 882.6 507.4 881.9Z" fill="#FAF6EB" stroke="#1C2628" stroke-width="2.13" stroke-linecap="round" stroke-linejoin="round"/>
<path d="M431.5 852.7C431.5 851.5 432.5 850.5 433.8 850.5C435.1 850.5 436.1 851.5 436.1 852.7C436.1 853.9 435.1 854.9 433.8 854.9C432.6 854.9 431.5 853.9 431.5 852.7Z" fill="#FAF6EB" stroke="#1C2628" stroke-width="2.13" stroke-linecap="round" stroke-linejoin="round"/>
<path d="M417.6 859C417.6 857.8 418.6 856.8 419.9 856.8C421.2 856.8 422.2 857.8 422.2 859C422.2 860.2 421.2 861.2 419.9 861.2C418.7 861.2 417.6 860.2 417.6 859Z" fill="#FAF6EB" stroke="#1C2628" stroke-width="2.13" stroke-linecap="round" stroke-linejoin="round"/>
<path d="M403.5 864.5C403.5 863.3 404.5 862.3 405.8 862.3C407.1 862.3 408.1 863.3 408.1 864.5C408.1 865.7 407.1 866.7 405.8 866.7C404.6 866.7 403.5 865.7 403.5 864.5Z" fill="#FAF6EB" stroke="#1C2628" stroke-width="2.13" stroke-linecap="round" stroke-linejoin="round"/>
<path fill-rule="evenodd" clip-rule="evenodd" d="M428.6 844.7L433 851.4Z" fill="#FAF6EB"/>
<path d="M428.6 844.7L433 851.4" stroke="#1C2628" stroke-width="2.13" stroke-linecap="round" stroke-linejoin="round"/>
<path fill-rule="evenodd" clip-rule="evenodd" d="M415.2 851L419.6 857.7Z" fill="#FAF6EB"/>
<path d="M415.2 851L419.6 857.7" stroke="#1C2628" stroke-width="2.13" stroke-linecap="round" stroke-linejoin="round"/>
<path fill-rule="evenodd" clip-rule="evenodd" d="M401.1 856.3L405.5 863Z" fill="#FAF6EB"/>
<path d="M401.1 856.3L405.5 863" stroke="#1C2628" stroke-width="2.13" stroke-linecap="round" stroke-linejoin="round"/>
<path fill-rule="evenodd" clip-rule="evenodd" d="M462.3 850.1C462.3 850.1 457.5 858 462.9 863.8C468.3 869.5 481.1 880.2 481.1 880.2C481.1 880.2 480.9 872.1 486.9 868.9C492.9 865.8 509.2 861.8 509.2 861.8L510.1 853.5L496.1 853.3C496.1 853.3 486.5 854.4 478.5 853.3C470.4 852.2 462.3 850.1 462.3 850.1Z" fill="#FAF6EB" stroke="#1C2628" stroke-width="2.13" stroke-linecap="round" stroke-linejoin="round"/>
<path fill-rule="evenodd" clip-rule="evenodd" d="M371.1 871.9C371.1 871.9 375.1 876.2 384.4 875.9C393.7 875.6 399.4 875.4 399.4 875.4L399.9 870.2C399.9 870.2 393.5 871.2 393 868.1C392.5 865 391 861.5 391 861.5C391 861.5 385.7 862.9 377.2 866.5C372.2 868.6 371.1 871.9 371.1 871.9Z" fill="#FAF6EB" stroke="#1C2628" stroke-width="2.13" stroke-linecap="round" stroke-linejoin="round"/>
<path d="M399.3 870.2L429.4 868L444.2 885.1" stroke="#1C2628" stroke-width="2.13" stroke-linecap="round" stroke-linejoin="round"/>
<path fill-rule="evenodd" clip-rule="evenodd" d="M841.5 448.5L893.1 417.3L835.1 376.7L805.8 415L841.5 448.5Z" fill="white" stroke="#1C2628" stroke-width="2.13" stroke-linecap="round" stroke-linejoin="round"/>
<path fill-rule="evenodd" clip-rule="evenodd" d="M813.3 422.1C819.2 411.5 833.7 396.4 841.5 386.5Z" fill="#FAF6EB"/>
<path d="M813.3 422.1C819.2 411.5 833.7 396.4 841.5 386.5" stroke="#1C2628" stroke-width="2.13" stroke-linecap="round" stroke-linejoin="round"/>
<path fill-rule="evenodd" clip-rule="evenodd" d="M821.7 429.1C831.1 417.3 852.1 398.5 863.2 388.5Z" fill="#FAF6EB"/>
<path d="M821.7 429.1C831.1 417.3 852.1 398.5 863.2 388.5" stroke="#1C2628" stroke-width="2.13" stroke-linecap="round" stroke-linejoin="round"/>
<path fill-rule="evenodd" clip-rule="evenodd" d="M829.3 436.6C839.1 424.3 859.7 409.5 870.3 397.8Z" fill="#FAF6EB"/>
<path d="M829.3 436.6C839.1 424.3 859.7 409.5 870.3 397.8" stroke="#1C2628" stroke-width="2.13" stroke-linecap="round" stroke-linejoin="round"/>
<path fill-rule="evenodd" clip-rule="evenodd" d="M837.1 444.3C846 433.1 871.1 419.2 880.8 408.5Z" fill="#FAF6EB"/>
<path d="M837.1 444.3C846 433.1 871.1 419.2 880.8 408.5" stroke="#1C2628" stroke-width="2.13" stroke-linecap="round" stroke-linejoin="round"/>
<path fill-rule="evenodd" clip-rule="evenodd" d="M893.2 417.3L880.9 434.6C880.9 434.6 866.1 433.4 867 429.7C867.8 425.9 875 410.5 875 410.5L893.2 417.3Z" fill="#FAF6EB" stroke="#1C2628" stroke-width="2.13" stroke-linecap="round" stroke-linejoin="round"/>
<path fill-rule="evenodd" clip-rule="evenodd" d="M888.2 423.4L860.3 412C860.3 412 836 404.3 830.7 405.3C825.3 406.3 826.2 410.5 823.1 412.5C820 414.5 807.6 408.8 807.6 408.8C807.6 408.8 813.8 408.5 813.9 397.2C814 385.9 819.4 373 819.4 373L908.1 377.5L953.1 381.3C953.1 381.3 959.9 398.8 947 403.2C933.9 407.5 921.9 408.3 903.6 414C894.4 416.8 888.2 423.4 888.2 423.4Z" fill="#C31626" stroke="#1C2628" stroke-width="2.13" stroke-linecap="round" stroke-linejoin="round"/>
<path fill-rule="evenodd" clip-rule="evenodd" d="M818.6 376.7C820.8 377.5 859.9 381.6 859.9 381.6C859.9 381.6 867.3 378.8 889.2 378.3C911.2 377.8 953 382 953 382C953 382 944.8 374.2 925.2 374C902.5 373.7 820.6 366.9 820.6 366.9C820.6 366.9 815.9 368.4 815.5 370.5C815.1 372.7 816.1 375.8 818.6 376.7Z" fill="#FAF6EB" stroke="#1C2628" stroke-width="2.13" stroke-linecap="round" stroke-linejoin="round"/>
<path d="M891.5 412.5C891.4 413.7 890.3 414.6 889 414.5C887.7 414.4 886.8 413.3 886.9 412.1C887 410.9 888.1 410 889.4 410.1C890.7 410.2 891.6 411.3 891.5 412.5Z" fill="#FAF6EB" stroke="#1C2628" stroke-width="2.13" stroke-linecap="round" stroke-linejoin="round"/>
<path d="M905.9 407.5C905.8 408.7 904.7 409.6 903.4 409.5C902.1 409.4 901.2 408.3 901.3 407.1C901.4 405.9 902.5 405 903.8 405.1C905.1 405.2 906 406.2 905.9 407.5Z" fill="#FAF6EB" stroke="#1C2628" stroke-width="2.13" stroke-linecap="round" stroke-linejoin="round"/>
<path d="M920.5 403.2C920.4 404.4 919.3 405.3 918 405.2C916.7 405.1 915.8 404 915.9 402.8C916 401.6 917.1 400.7 918.4 400.8C919.6 400.9 920.6 402 920.5 403.2Z" fill="#FAF6EB" stroke="#1C2628" stroke-width="2.13" stroke-linecap="round" stroke-linejoin="round"/>
<path fill-rule="evenodd" clip-rule="evenodd" d="M893.7 420.8L889.9 413.7Z" fill="#FAF6EB"/>
<path d="M893.7 420.8L889.9 413.7" stroke="#1C2628" stroke-width="2.13" stroke-linecap="round" stroke-linejoin="round"/>
<path fill-rule="evenodd" clip-rule="evenodd" d="M907.6 415.6L903.8 408.5Z" fill="#FAF6EB"/>
<path d="M907.6 415.6L903.8 408.5" stroke="#1C2628" stroke-width="2.13" stroke-linecap="round" stroke-linejoin="round"/>
<path fill-rule="evenodd" clip-rule="evenodd" d="M922.2 411.6L918.5 404.5Z" fill="#FAF6EB"/>
<path d="M922.2 411.6L918.5 404.5" stroke="#1C2628" stroke-width="2.13" stroke-linecap="round" stroke-linejoin="round"/>
<path fill-rule="evenodd" clip-rule="evenodd" d="M860.6 412.3C860.6 412.3 866.1 404.8 861.2 398.6C856.3 392.4 844.5 380.7 844.5 380.7C844.5 380.7 844 388.8 837.7 391.4C831.4 394 814.9 396.5 814.9 396.5L813.3 404.7L827.2 406.1C827.2 406.1 836.9 405.8 844.7 407.7C852.7 409.6 860.6 412.3 860.6 412.3Z" fill="#FAF6EB" stroke="#1C2628" stroke-width="2.13" stroke-linecap="round" stroke-linejoin="round"/>
<path fill-rule="evenodd" clip-rule="evenodd" d="M953.5 398.7C953.5 398.7 949.9 394 940.6 393.5C931.3 393 925.6 392.7 925.6 392.7L924.6 397.8C924.6 397.8 931 397.4 931.3 400.5C931.5 403.6 932.7 407.2 932.7 407.2C932.7 407.2 938.1 406.3 946.9 403.5C952.1 401.9 953.5 398.7 953.5 398.7Z" fill="#FAF6EB" stroke="#1C2628" stroke-width="2.13" stroke-linecap="round" stroke-linejoin="round"/>
<path d="M925.1 397.9L894.9 397.4L881.8 379" stroke="#1C2628" stroke-width="2.13" stroke-linecap="round" stroke-linejoin="round"/>
<path fill-rule="evenodd" clip-rule="evenodd" d="M268.6 898.8L224.1 899.8L138.9 898.6L147.2 854.9L185.1 853.9C185.1 853.9 183.8 843.9 193.7 844.3C201.3 844.6 223.7 867.8 244.4 874.2C272.8 883.1 268.6 898.8 268.6 898.8Z" fill="#C31626"/>
<path fill-rule="evenodd" clip-rule="evenodd" d="M268.1 893.1L171.8 892.6C169 892.6 166.8 894.6 166.7 897.1V898.7C166.7 901.2 168.9 903.2 171.7 903.2L268 903.7C270.8 903.7 273 901.7 273.1 899.2V897.6C273.1 895.2 270.9 893.1 268.1 893.1Z" fill="#1C2628" stroke="#1C2628" stroke-width="2.13" stroke-linecap="round" stroke-linejoin="round"/>
<path fill-rule="evenodd" clip-rule="evenodd" d="M179.9 903.3L134.4 902.6L137.2 878.7C137.2 878.7 160.3 877.4 168.2 884.8C176.2 892.5 179.9 903.3 179.9 903.3Z" fill="#1C2628" stroke="#1C2628" stroke-width="2.13" stroke-linecap="round" stroke-linejoin="round"/>
<path fill-rule="evenodd" clip-rule="evenodd" d="M248.9 875.7L195.5 843C195.5 843 187 844.3 184.8 847.8C182.6 851.2 186.5 856.7 186.5 856.7C186.5 856.7 217 877.1 230 881.2C239.1 884 248.9 875.7 248.9 875.7Z" fill="#1C2628" stroke="#1C2628" stroke-width="2.13" stroke-linecap="round" stroke-linejoin="round"/>
<path d="M200.9 862.8L182.4 897.4" stroke="#1C2628" stroke-width="2.13" stroke-linecap="round" stroke-linejoin="round"/>
<path d="M147.2 854.9L142.7 886.6" stroke="#1C2628" stroke-width="2.13" stroke-linecap="round" stroke-linejoin="round"/>
<path d="M145.8 561.6L226.1 666.2L203.9 714.3" stroke="#1C2628" stroke-width="2.13" stroke-linecap="round" stroke-linejoin="round"/>
<path fill-rule="evenodd" clip-rule="evenodd" d="M840.5 469.6C826.6 490.7 768 575 712.6 588C700.1 590.9 685 590.9 668.8 589.1C678.5 579.2 694.2 573.3 708.2 568.1C733.5 558.7 739.3 563.2 749.3 554.2C762.8 542.1 755.8 530.8 768.8 508.9C772.7 502.3 788.7 477.5 817.2 471.3C822.6 470.1 831.6 469 840.5 469.6Z" fill="#1C2628" stroke="#1C2628" stroke-width="2.13" stroke-linecap="round" stroke-linejoin="round"/>
<path fill-rule="evenodd" clip-rule="evenodd" d="M518.4 542.9L458.7 627.7L502.1 752.6L480.8 755.8C459.3 745.9 443.1 725.8 440.9 705.7C439.7 694.5 444.1 694.6 443.3 680.3C441.9 652 424.6 646.7 427.6 629.1C430.4 612.6 446.3 613.3 453.4 590.5C457.6 576.9 453.2 572.7 457.2 561.7C460.8 552 470 540 495.2 530.5C501.9 532.7 510.5 536.4 518.4 542.9Z" fill="#1C2628" stroke="#1C2628" stroke-width="2.13" stroke-linecap="round" stroke-linejoin="round"/>
<path fill-rule="evenodd" clip-rule="evenodd" d="M620.8 461.4C609.4 467.3 600 468.5 592.9 468.2C575.3 467.4 567.5 457 549.4 460.2C535.5 462.6 532.8 470 522.6 469.6C511 469.2 501.3 459.1 493.8 447.6L556.6 430.2L620.8 461.4Z" fill="#1C2628" stroke="#1C2628" stroke-width="2.13" stroke-linecap="round" stroke-linejoin="round"/>
<path fill-rule="evenodd" clip-rule="evenodd" d="M574.3 409.1C574.3 409.1 542.4 415.1 527.8 417.9C517.1 419.9 505 428.8 479.4 435.7C478.6 432.6 478.3 429.3 479.9 426.6C482.7 421.7 488.9 423.3 499.6 418.6C510.9 413.6 509.7 409.4 518.4 406.9C529.8 403.7 534.7 410.3 541.2 406.6C549.2 402 544.8 390.4 551.3 378.6C552.8 375.9 554.7 373.5 556.9 371.2L574.3 409.1Z" fill="#1C2628" stroke="#1C2628" stroke-width="2.13" stroke-linecap="round" stroke-linejoin="round"/>
<path fill-rule="evenodd" clip-rule="evenodd" d="M290 51C290 51 292.7 18.6 284.9 10.1C278.4 3.1 249.2 -4.1 240.5 9.7C231.8 23.5 251.5 65.8 251.5 65.8L258.8 133.5L312.9 130.8C304.3 89.9 290 51 290 51Z" fill="#F45B49" stroke="#1C2628" stroke-width="2.13" stroke-linecap="round" stroke-linejoin="round"/>
<path d="M254.1 40.2C261.8 26.8 253.6 18.4 253.6 18.4C253.6 18.4 270.4 19.5 273.1 11.1C276.7 -0.399996 251.6 2.40001 251.6 2.40001" fill="#F45B49"/>
<path d="M254.1 40.2C261.8 26.8 253.6 18.4 253.6 18.4C253.6 18.4 270.4 19.5 273.1 11.1C276.7 -0.399996 251.6 2.40001 251.6 2.40001" stroke="#1C2628" stroke-width="2.13" stroke-linecap="round" stroke-linejoin="round"/>
<path d="M269.2 31C270.3 26.8 268.5 21.1 266.9 17.2Z" fill="#F45B49"/>
<path d="M269.2 31C270.3 26.8 268.5 21.1 266.9 17.2" stroke="#1C2628" stroke-width="2.13" stroke-linecap="round" stroke-linejoin="round"/>
<path d="M278.9 26C279.9 20.5 278.7 13.1 274.3 9.2Z" fill="#F45B49"/>
<path d="M278.9 26C279.9 20.5 278.7 13.1 274.3 9.2" stroke="#1C2628" stroke-width="2.13" stroke-linecap="round" stroke-linejoin="round"/>
<path d="M547.7 89.8L533.8 34.1L534.6 33.7L531 19L475.3 47.2L479.1 62.6L479.9 62.2L492.6 113.4C488.9 112.4 484.3 113.4 480.3 116.5C474.5 121.1 472.5 128.3 475.9 132.7C479.3 137.1 486.8 137 492.7 132.4C498.6 127.9 500.5 120.6 497.1 116.2C497 116 496.8 115.9 496.6 115.7L484.7 67.9L532.6 43.5L543.5 87.5C539.8 86.5 535.1 87.5 531.1 90.6C525.2 95.2 523.3 102.4 526.7 106.8C530.1 111.2 537.6 111.1 543.5 106.5C549.4 101.9 551.3 94.7 547.9 90.3C548 90 547.8 89.9 547.7 89.8ZM484 64.5L483 60.5L530.8 35.7L531.9 40L484 64.5Z" fill="#1C2628" stroke="#1C2628" stroke-width="2.13" stroke-linecap="round" stroke-linejoin="round"/>
<path d="M388.8 148.3C388.4 148.2 387.9 148.3 387.7 148.7C382.6 155.8 377.5 159.7 372.3 160.3C371.4 160.4 370.6 160.4 369.7 160.4C372.2 159 373.9 156.4 374.1 153.4C374.4 148.7 370.7 144.6 366 144.4C361.3 144.1 357.2 147.8 357 152.5C356.7 157.2 360.4 161.3 365.1 161.5C365.3 161.5 365.5 161.5 365.7 161.5C368 162.3 370.3 162.6 372.6 162.3C377.6 161.7 382.6 158.3 387.4 152.4L386.4 170.9C381.4 177.8 376.3 181.6 371.2 182.3C370.3 182.4 369.5 182.4 368.6 182.4C371.1 181 372.8 178.4 373 175.4C373.2 170.7 369.6 166.6 364.9 166.4C360.2 166.2 356.1 169.8 355.9 174.5C355.6 179.2 359.3 183.3 364 183.5C364.2 183.5 364.4 183.5 364.6 183.5C366.3 184.1 367.9 184.4 369.6 184.4C370.2 184.4 370.8 184.4 371.5 184.3C376.5 183.7 381.5 180.3 386.3 174.4L384.6 206.8L386.5 206.9L389.6 149.4C389.4 148.9 389.2 148.5 388.8 148.3Z" fill="#1C2628" stroke="#1C2628" stroke-width="2.13" stroke-linecap="round" stroke-linejoin="round"/>
<path d="M590 273.3C582.6 293 574.2 312.4 564.9 331.3" stroke="#1C2628" stroke-width="2.13" stroke-linecap="round" stroke-linejoin="round"/>
<path d="M605.5 229.6C605.4 233.6 604.6 237.7 603.2 241.4C602.3 243.6 601.2 245.9 601.4 248.2C603.7 249.1 606.6 246.9 606.4 244.4C605.9 244.1 605.2 244.5 604.8 245C600.8 249.3 598.5 255 598.4 260.8" stroke="#1C2628" stroke-width="2.13" stroke-linecap="round" stroke-linejoin="round"/>
<path d="M588.9 244.4C583.4 257.6 578 270.7 572.5 283.9" stroke="#1C2628" stroke-width="2.13" stroke-linecap="round" stroke-linejoin="round"/>
<path d="M186.7 751.4L162.8 803" stroke="#1C2628" stroke-width="2.13" stroke-linecap="round" stroke-linejoin="round"/>
<path d="M629.5 565.3C633.3 566.6 637.2 567.5 641.1 568C647.4 568.8 654 568.7 660 570.9" stroke="#1C2628" stroke-width="2.13" stroke-linecap="round" stroke-linejoin="round"/>
<path d="M660.1 564C669.4 563.8 678.7 562.7 687.4 559.5C691.7 557.9 695.8 555.8 700 554C710.6 549.5 722 547.1 733.3 545.3" stroke="#1C2628" stroke-width="2.13" stroke-linecap="round" stroke-linejoin="round"/>
<path d="M728 537.6C712.1 545.1 694.6 549.2 677 549.6" stroke="#1C2628" stroke-width="2.13" stroke-linecap="round" stroke-linejoin="round"/>
<path d="M183.1 732.6C182.2 732.5 181.4 733.1 180.7 733.8C178 736.4 180.4 739.3 178.3 742.5" stroke="white" stroke-width="2.13" stroke-linecap="round" stroke-linejoin="round"/>
<path d="M213.7 574.9C219.2 585.8 206 591 233.4 605.7" stroke="#1C2628" stroke-width="2.13" stroke-linecap="round" stroke-linejoin="round"/>
</svg>
