<svg width="282" height="317" viewBox="0 0 282 317" fill="none" xmlns="http://www.w3.org/2000/svg">
<path d="M249.9 286.718C226.129 300.126 182.701 278.467 150.984 272.199C119.267 266.13 99.6119 275.651 92.9431 264.9C86.2743 254.15 92.624 223.208 81.5518 197.463C70.4796 171.717 41.7302 151.327 31.0728 117.49C20.224 83.8899 27.4672 36.8026 50.154 14.7068C72.8409 -7.19055 111.195 -4.37404 131.807 21.4109C152.612 46.9182 155.898 95.3939 177.883 124.908C200.091 154.184 241.03 164.736 259.409 194.368C277.788 224.001 273.672 273.072 249.9 286.718Z" fill="#1ED760"/>
<path d="M21.4365 64.809C25.2336 56.5181 31.4557 54.376 42.145 58.9379C39.9753 52.8685 46.4527 40.8885 56.791 53.5826C53.6958 33.2323 78.2334 30.8918 77.0208 50.5677C83.1472 41.0471 99.3567 46.4818 93.0707 57.8272C102.548 54.8917 106.377 57.6288 112.599 64.8486H21.4365V64.809Z" fill="#FAF6EB"/>
<path d="M94.2513 93.6882H56.8866C55.4827 87.6981 56.3442 80.9147 71.5964 86.389C76.3826 75.3213 85.6999 86.3494 94.2513 93.6882Z" fill="#FAF6EB"/>
<path d="M282 239.076H212.791C214.929 231.142 227.437 224.596 243.008 230.071C247.571 219.558 254.91 221.463 261.802 233.205C270.928 226.143 280.756 236.497 282 239.076Z" fill="#FAF6EB"/>
<path fill-rule="evenodd" clip-rule="evenodd" d="M209.632 244.629C203.601 247.009 206.664 253.674 205.133 260.695C204.846 262.004 204.431 263.195 204.016 264.385L203.665 265.337L204.622 266.844L202.995 267.201C202.995 267.201 202.835 267.637 202.772 267.875C202.293 269.502 201.942 271.208 202.07 273.191C202.421 279.459 207.175 283.743 212.44 282.632C214.578 282.196 215.982 281.323 216.971 280.49L216.747 277.237L218.662 277.912C218.662 277.912 219.747 274.58 219.428 271.287C218.981 266.804 216.939 261.608 216.014 257.958C214.897 253.476 215.854 242.17 209.632 244.629Z" fill="#FAF6EB"/>
<path fill-rule="evenodd" clip-rule="evenodd" d="M210.621 257.839L210.812 289.495Z" fill="#FAF6EB"/>
<path d="M210.621 257.839L210.812 289.495" stroke="#1C2628" stroke-width="2.13" stroke-linecap="round" stroke-linejoin="round"/>
<path d="M87.7101 103.883C94.4428 109.397 98.208 120.505 94.1237 136.372C90.5181 150.296 74.3406 163.466 89.5608 176.438C114.832 198.058 154.111 157.199 164.386 140.617C179.032 117.014 199.676 125.662 195.943 133.794C190.71 145.139 187.87 151.526 201.559 156.405C220.13 162.99 250.443 137.047 256.473 175.169C257.175 179.572 257.08 184.094 257.399 188.537" stroke="#1C2628" stroke-width="2.13" stroke-linecap="round" stroke-linejoin="round"/>
<path fill-rule="evenodd" clip-rule="evenodd" d="M119.267 133.516C113.141 138.038 106.887 142.362 100.856 147.123C86.6571 158.309 94.7618 178.779 91.1881 185.205C82.1899 201.469 64.6403 206.15 57.78 224.557C52.9938 237.41 61.5133 250.223 69.4585 257.085C70.9901 258.434 72.7131 260.259 74.5638 260.021C78.1695 259.545 81.0731 255.697 84.6469 255.062C90.9966 253.912 97.5697 256.094 103.92 254.785C117.353 251.928 130.212 245.78 143.582 242.606C154.43 240.028 165.598 239.909 176.479 237.568C179.542 236.894 183.18 230.666 184.201 228.167C185.924 223.922 187.328 219.4 188.221 214.758C190.774 201.866 193.39 183.459 187.902 171.043C182.701 159.341 169.172 168.107 164.226 157.913C158.834 146.805 149.931 132.167 137.391 132.723C134.041 132.881 130.722 133.873 127.404 134.468" fill="#FAF6EB"/>
<path fill-rule="evenodd" clip-rule="evenodd" d="M116.013 137.483C116.013 136.531 115.47 135.737 114.768 135.737C114.098 135.737 112.567 136.214 112.503 137.166C112.28 140.26 111.801 145.337 111.801 145.337C111.801 145.337 113.109 147.678 114.003 145.337C114.545 143.949 114.577 139.268 114.736 139.268C115.438 139.268 116.013 138.475 116.013 137.483Z" fill="#FAF6EB" stroke="#1C2628" stroke-width="2.13" stroke-linecap="round" stroke-linejoin="round"/>
<path fill-rule="evenodd" clip-rule="evenodd" d="M183.786 193.099L173.32 211.03L144.698 233.403L124.277 235.664L133.307 224.041L150.282 220.272L150.952 208.332L137.711 190.719L145.177 174.336L149.293 165.251C149.293 165.251 151.718 162.832 160.78 168.623C165.184 171.44 170.736 177.271 175.267 182.547C180.085 188.14 183.786 193.099 183.786 193.099Z" fill="#47584E" stroke="#1C2628" stroke-width="2.13" stroke-linecap="round" stroke-linejoin="round"/>
<path fill-rule="evenodd" clip-rule="evenodd" d="M175.235 182.547C175.107 184.808 174.628 186.474 173.799 186.99C172.331 187.902 170.512 184.61 164.162 181.595C162.886 181 162.695 181 157.94 179.413C147.857 176.002 145.911 175.01 145.177 174.336L149.293 165.251C149.293 165.251 151.718 162.832 160.78 168.623C165.152 171.479 170.704 177.311 175.235 182.547Z" fill="#1C2628" stroke="#1C2628" stroke-width="2.13" stroke-linecap="round" stroke-linejoin="round"/>
<path fill-rule="evenodd" clip-rule="evenodd" d="M114.577 129.43C111.546 127.764 112.343 120.941 116.46 117.172C120.544 113.404 127.245 115.506 128.936 115.387C138.444 114.792 141.635 127.09 138.508 139.228C137.615 142.759 129.957 151.565 126.862 149.265C123.703 146.924 129.861 135.658 127.181 133.08" fill="#FAF6EB"/>
<path fill-rule="evenodd" clip-rule="evenodd" d="M130.084 143.394L131.265 155.532L134.711 160.967C134.711 160.967 131.425 166.56 125.713 165.727C119.969 164.934 118.215 160.451 118.215 160.451L117.768 144.663L130.084 143.394Z" fill="#F45B49" stroke="#1C2628" stroke-width="2.13" stroke-linecap="round" stroke-linejoin="round"/>
<path fill-rule="evenodd" clip-rule="evenodd" d="M134.52 139.268C134.137 142.878 133.499 145.972 131.552 148.233C129.287 150.891 125.49 152.359 122.299 151.843C117.417 151.05 114.066 147.519 113.524 141.886C113.396 140.696 113.428 139.427 113.556 138.038C113.971 134.071 113.588 126.098 114.545 124.908C115.853 123.559 122.203 121.734 122.203 121.734C122.203 121.734 127.723 124.313 128.904 124.511C131.776 125.265 135.349 131.374 134.52 139.268Z" fill="#47584E" stroke="#1C2628" stroke-width="2.13" stroke-linecap="round" stroke-linejoin="round"/>
<path fill-rule="evenodd" clip-rule="evenodd" d="M120.288 133.595C119.236 135.182 116.396 138.118 116.874 139.149C117.481 140.498 119.906 138.951 120.129 138.633" fill="#47584E"/>
<path d="M120.288 133.595C119.236 135.182 116.396 138.118 116.874 139.149C117.481 140.498 119.906 138.951 120.129 138.633" stroke="#1C2628" stroke-width="2.13" stroke-linecap="round" stroke-linejoin="round"/>
<path fill-rule="evenodd" clip-rule="evenodd" d="M131.488 157.675L131.871 146.17C131.871 146.17 124.5 143.552 122.714 146.765C120.927 149.979 124.181 158.904 124.181 158.904L129.574 158.984" fill="#49574E"/>
<path fill-rule="evenodd" clip-rule="evenodd" d="M133.307 133.437C132.956 133.516 134.488 131.652 136.275 134.23C137.519 136.055 136.211 141.212 133.339 139.427" fill="#47584E"/>
<path d="M133.307 133.437C132.956 133.516 134.488 131.652 136.275 134.23C137.519 136.055 136.211 141.212 133.339 139.427" stroke="#1C2628" stroke-width="2.13" stroke-linecap="round" stroke-linejoin="round"/>
<path d="M134.966 135.658L134.903 135.975L134.711 136.491L134.36 136.967" stroke="#1C2628" stroke-width="2.13" stroke-linecap="round" stroke-linejoin="round"/>
<path fill-rule="evenodd" clip-rule="evenodd" d="M125.17 151.724L117.449 150.336L117.353 158.785C117.353 158.785 120.097 157.913 122.363 156.286C124.66 154.66 125.17 151.724 125.17 151.724Z" fill="#1C2628" stroke="#1C2628" stroke-width="2.13" stroke-linecap="round" stroke-linejoin="round"/>
<path fill-rule="evenodd" clip-rule="evenodd" d="M182.637 237.886C180.468 253.595 183.116 273.31 170.991 280.966C162.79 286.163 148.974 284.735 136.881 282.593C130.659 281.482 124.883 280.173 120.608 279.459C113.237 278.229 105.802 278.705 98.4951 276.841C94.6342 275.849 90.9328 274.897 87.1038 273.746C84.9021 273.072 81.5518 274.302 79.5415 273.112C78.0418 272.199 78.6162 262.322 78.2652 260.378C77.8823 258.236 74.149 249.31 74.7234 247.803C75.2977 246.295 82.509 244.788 83.6577 244.352C93.1664 240.821 96.8997 237.211 106.855 236.695C111.003 236.497 149.102 235.109 153.154 230.745C156.09 227.572 159.44 222.653 159.504 218.289C159.536 216.901 172.459 221.066 179.383 222.692C181.903 223.287 183.69 223.763 183.978 223.962C185.605 225.152 182.861 236.219 182.637 237.886Z" fill="#C31626" stroke="#1C2628" stroke-width="2.13" stroke-linecap="round" stroke-linejoin="round"/>
<path fill-rule="evenodd" clip-rule="evenodd" d="M182.637 237.886C180.468 253.595 183.116 273.31 170.991 280.966C162.79 286.163 148.974 284.735 136.881 282.593C142.943 273.548 157.015 281.68 167.991 268.947C171.725 264.583 168.821 261.846 170.257 256.332C172.203 248.755 167.672 244.55 168.374 238.044C169.044 231.697 174.214 225.588 179.415 222.732C181.935 223.327 183.722 223.803 184.009 224.001C185.605 225.152 182.861 236.219 182.637 237.886Z" fill="#1C2628" stroke="#1C2628" stroke-width="2.13" stroke-linecap="round" stroke-linejoin="round"/>
<path fill-rule="evenodd" clip-rule="evenodd" d="M158.61 304.807C155.515 309.409 134.169 292.589 128.808 292.827C125.873 292.946 121.852 293.422 117.066 294.097C94.0918 297.27 54.4297 304.609 43.2299 297.508C37.295 293.74 33.5617 289.971 31.5834 286.361C19.2987 263.948 72.2665 245.304 72.2665 245.304L78.9672 263.313C78.9672 263.313 116.491 260.735 129.893 263.075C136.434 264.226 144.188 267.28 144.188 267.36C144.316 271.089 161.706 300.166 158.61 304.807Z" fill="#47584E" stroke="#1C2628" stroke-width="2.13" stroke-linecap="round" stroke-linejoin="round"/>
<path fill-rule="evenodd" clip-rule="evenodd" d="M117.066 294.097C94.0918 297.27 54.4297 304.609 43.2299 297.508C37.295 293.74 33.5617 289.971 31.5834 286.361C34.7742 283.029 39.4328 281.363 43.198 282.791C47.6652 284.497 47.1227 289.257 51.3346 291.241C57.6844 294.295 62.5664 285.211 71.9474 285.131C78.2334 285.092 79.1587 291.677 85.7637 291.479C89.8799 291.36 91.0924 289.138 95.3043 287.948C102.771 285.806 109.248 289.733 112.886 291.717C113.875 292.232 115.438 293.065 117.066 294.097Z" fill="#1C2628" stroke="#1C2628" stroke-width="2.13" stroke-linecap="round" stroke-linejoin="round"/>
<path fill-rule="evenodd" clip-rule="evenodd" d="M159.504 218.329C159.504 218.329 175.203 139.466 203.314 158.904C222.906 172.431 200.123 246.494 200.953 273.588C201.144 280.292 219.97 290.05 215.886 293.184C211.77 296.358 178.808 288.305 175.841 287.591C175.777 287.591 175.043 273.945 175.043 265.773C175.043 248.953 175.394 220.828 175.394 220.828L159.504 218.329Z" fill="#47584E" stroke="#1C2628" stroke-width="2.13" stroke-linecap="round" stroke-linejoin="round"/>
<path fill-rule="evenodd" clip-rule="evenodd" d="M137.455 263.512L149.453 295.961L140.104 299.016C140.104 299.016 154.016 308.417 160.94 312.583C163.11 313.892 164.673 314.526 165.822 314.844L143.422 263.274L137.455 263.512Z" fill="#FAF6EB" stroke="#1C2628" stroke-width="2.13" stroke-linecap="round" stroke-linejoin="round"/>
<path fill-rule="evenodd" clip-rule="evenodd" d="M147.06 263.076L143.422 263.234L165.822 314.804C168.343 315.439 168.789 314.328 168.789 314.328L147.06 263.076Z" fill="#1C2628" stroke="#1C2628" stroke-width="2.13" stroke-linecap="round" stroke-linejoin="round"/>
<path fill-rule="evenodd" clip-rule="evenodd" d="M219.587 291.36C214.035 284.735 201.495 273.389 201.495 273.389L203.027 283.743L174.373 281.046L174.309 288.265L223.193 296.755C222.65 295.485 221.566 293.74 219.587 291.36Z" fill="#FAF6EB" stroke="#1C2628" stroke-width="2.13" stroke-linecap="round" stroke-linejoin="round"/>
<path fill-rule="evenodd" clip-rule="evenodd" d="M174.341 288.345L174.309 291.518L223.672 299.928C223.672 299.928 224.278 299.135 223.225 296.794L174.341 288.345Z" fill="#1C2628" stroke="#1C2628" stroke-width="2.13" stroke-linecap="round" stroke-linejoin="round"/>
<path fill-rule="evenodd" clip-rule="evenodd" d="M154.526 231.578C154.526 231.578 140.455 239.433 129.191 241.019C117.927 242.606 106.983 236.814 106.983 236.814L108.259 210.831L103.632 206.19L95.1129 233.76C95.1129 233.76 80.3393 271.644 65.821 259.347C51.3027 247.089 51.0475 207.499 49.8988 201.747C49.133 197.939 49.1968 183.697 48.1119 172.074C47.5376 166.203 47.6971 163.427 47.6971 163.427C47.6971 163.427 49.7073 161.126 51.8452 166.441L52.3238 173.344L53.8873 179.334C53.8873 179.334 60.4285 174.217 63.4279 175.565C66.4592 176.914 66.4911 182.825 66.4911 182.944C66.4911 182.944 65.9806 184.412 64.0661 183.221C63.1088 182.626 61.8006 179.651 61.8006 179.651L58.9927 183.856L59.6627 190.005L62.5345 188.14C62.5345 188.14 63.1088 186.593 64.1937 185.364C65.2786 184.094 66.8421 184.808 66.8421 184.808L65.7572 191.79L61.5134 196.114L70.703 228.841C70.703 228.841 70.8945 228.444 71.2455 227.73C73.2876 223.406 80.5946 207.34 84.2002 191.076C87.7102 175.367 96.5488 170.765 99.4843 169.655C100.091 169.417 100.442 169.337 100.442 169.337L145.751 168.187L148.336 206.428L154.526 231.578Z" fill="#47584E" stroke="#1C2628" stroke-width="2.13" stroke-linecap="round" stroke-linejoin="round"/>
<path fill-rule="evenodd" clip-rule="evenodd" d="M101.463 177.826C97.7931 182.269 91.8263 186.633 89.9437 191.076C87.5825 196.55 89.3055 198.375 87.2315 208.689C86.1466 214.124 85.1893 218.725 82.2857 223.168C80.0202 226.58 75.3935 231.658 72.6494 230.031C72.2346 229.793 71.6921 229.277 71.2135 227.73C73.2556 223.406 80.5626 207.34 84.1683 191.076C87.6782 175.367 96.5168 170.765 99.4524 169.655C99.6119 169.536 99.8034 169.417 99.9629 169.337L101.463 177.826Z" fill="#1C2628" stroke="#1C2628" stroke-width="2.13" stroke-linecap="round" stroke-linejoin="round"/>
<path d="M48.3352 199.803C27.9139 214.282 67.3526 215.115 68.5332 197.542" stroke="#1C2628" stroke-width="2.13" stroke-linecap="round" stroke-linejoin="round"/>
<path fill-rule="evenodd" clip-rule="evenodd" d="M151.846 203.81C151.144 204.563 150.25 205.079 149.134 205.357C145.911 206.23 129.095 208.372 117.768 209.8C117.672 209.8 117.544 209.839 117.449 209.839C111.514 210.593 107.174 211.109 107.174 211.109C107.174 211.109 106.408 210.95 105.451 210.117C103.951 208.848 101.973 205.952 101.686 199.565C101.463 194.805 102.516 183.896 102.516 183.896L101.463 177.866L99.9629 169.377V169.298C99.9629 169.298 108.068 167.195 112.216 163.903C116.396 160.61 116.619 156.167 116.619 156.167L132.477 154.541L132.956 154.501C132.956 154.501 134.679 157.397 137.487 159.539C137.934 159.856 138.381 160.174 138.859 160.451C139.625 160.888 140.455 161.245 141.348 161.443C141.922 161.602 142.529 161.721 143.135 161.879C147.347 162.911 152.133 164.101 152.133 164.101L148.049 177.033C148.049 177.033 151.495 184.055 152.484 188.101C154.399 195.995 154.303 201.231 151.846 203.81Z" fill="#C31626" stroke="#1C2628" stroke-width="2.13" stroke-linecap="round" stroke-linejoin="round"/>
<path d="M176.064 210.792L175.171 224.12" stroke="#1C2628" stroke-width="2.13" stroke-linecap="round" stroke-linejoin="round"/>
<path d="M92.7836 237.806C96.8997 236.021 103.696 235.148 103.696 235.148C103.696 235.148 103.154 240.781 113.971 243.281C124.788 245.78 133.339 244.074 133.339 244.074" stroke="#1C2628" stroke-width="2.13" stroke-linecap="round" stroke-linejoin="round"/>
<path fill-rule="evenodd" clip-rule="evenodd" d="M119.555 111.143C119.555 107.89 121.82 105.232 124.628 105.232C127.436 105.232 129.702 107.89 129.702 111.143C129.702 114.395 127.436 117.053 124.628 117.053C121.82 117.014 119.555 114.395 119.555 111.143Z" fill="#FAF6EB"/>
<path fill-rule="evenodd" clip-rule="evenodd" d="M114.577 133.437C115.662 134.111 117.098 133.675 118.087 132.842Z" fill="#47584E"/>
<path d="M114.577 133.437C115.662 134.111 117.098 133.675 118.087 132.842" stroke="#1C2628" stroke-width="2.13" stroke-linecap="round" stroke-linejoin="round"/>
<path fill-rule="evenodd" clip-rule="evenodd" d="M124.532 132.366C126.415 133.516 127.308 132.881 129.127 131.81Z" fill="#47584E"/>
<path d="M124.532 132.366C126.415 133.516 127.308 132.881 129.127 131.81" stroke="#1C2628" stroke-width="2.13" stroke-linecap="round" stroke-linejoin="round"/>
<path d="M63.4279 266.289C60.7476 266.09 57.7801 267.598 55.3551 269.185C54.4298 269.78 51.909 271.961 52.8344 271.406C63.6194 264.781 75.9679 262.48 87.8059 262.123" stroke="#1C2628" stroke-width="2.13" stroke-linecap="round" stroke-linejoin="round"/>
<path d="M56.4718 290.288C57.2376 296.794 65.9805 293.224 68.8841 292.232C74.7234 290.169 80.4988 287.472 86.4976 286.044C95.3362 283.902 104.239 285.29 112.854 288.027" stroke="#1C2628" stroke-width="2.13" stroke-linecap="round" stroke-linejoin="round"/>
<path d="M94.4429 290.685C98.6867 289.654 101.303 290.685 105.611 291.082" stroke="#1C2628" stroke-width="2.13" stroke-linecap="round" stroke-linejoin="round"/>
<path d="M203.601 177.588C201.655 182.269 197.028 190.6 200.347 196.233C203.25 201.192 206.154 192.068 205.165 191.552C204.176 191.036 204.112 193.892 203.761 195.162C202.804 198.454 201.846 201.787 201.24 205.198C199.868 213.092 198.911 232.768 198.464 239.909" stroke="#1C2628" stroke-width="2.13" stroke-linecap="round" stroke-linejoin="round"/>
<path d="M201.974 222.851C201.974 232.768 199.198 247.962 198.624 253" stroke="#1C2628" stroke-width="2.13" stroke-linecap="round" stroke-linejoin="round"/>
<path fill-rule="evenodd" clip-rule="evenodd" d="M50.1221 187.387C50.505 184.094 52.2599 181.198 54.3021 179.294Z" fill="#47584E"/>
<path d="M50.1221 187.387C50.505 184.094 52.2599 181.198 54.3021 179.294" stroke="#1C2628" stroke-width="2.13" stroke-linecap="round" stroke-linejoin="round"/>
<path fill-rule="evenodd" clip-rule="evenodd" d="M121.565 113.642H127.5C128.298 113.642 128.936 114.435 128.936 115.427C128.936 116.419 128.298 117.212 127.5 117.212H121.565C120.767 117.212 120.129 116.419 120.129 115.427C120.129 114.435 120.767 113.642 121.565 113.642Z" fill="#F45B49" stroke="#1C2628" stroke-width="2.13" stroke-linecap="round" stroke-linejoin="round"/>
<path fill-rule="evenodd" clip-rule="evenodd" d="M127.564 215.314C128.68 216.028 146.198 229.119 146.198 229.119C149.389 231.895 147.123 234.395 144.89 238.401L143.199 241.495C140.965 245.462 136.945 241.218 133.754 238.401L120.289 227.81C118.087 224.953 126.447 214.639 127.564 215.314Z" fill="#1C2628" stroke="#1C2628" stroke-width="2.13" stroke-linecap="round" stroke-linejoin="round"/>
<path fill-rule="evenodd" clip-rule="evenodd" d="M154.367 198.891L158.004 212.894C154.654 219.082 146.166 222.375 146.166 222.375C146.166 222.375 137.391 222.573 135.03 225.231C132.541 228.048 143.709 226.501 142.688 227.373C140.646 229.119 137.487 231.935 137.487 231.935L131.648 233.681C131.648 233.681 124.979 231.856 123.32 231.539C121.661 231.221 120.129 233.205 120.129 233.205C120.129 233.205 129.446 238.719 132.382 238.441C145.369 237.172 149.74 234.831 149.74 234.831L156.09 231.697L159.663 219.241" fill="#47584E"/>
<path d="M154.367 198.891L158.004 212.894C154.654 219.082 146.166 222.375 146.166 222.375C146.166 222.375 137.391 222.573 135.03 225.231C132.541 228.048 143.709 226.501 142.688 227.373C140.646 229.119 137.487 231.935 137.487 231.935L131.648 233.681C131.648 233.681 124.979 231.856 123.32 231.539C121.661 231.221 120.129 233.205 120.129 233.205C120.129 233.205 129.446 238.719 132.382 238.441C145.369 237.172 149.74 234.831 149.74 234.831L156.09 231.697L159.663 219.241" stroke="#FAF6EB" stroke-width="2.13" stroke-linecap="round" stroke-linejoin="round"/>
<path d="M159.536 218.487L152.612 243.122" stroke="#1C2628" stroke-width="2.13" stroke-linecap="round" stroke-linejoin="round"/>
<path d="M140.104 254.309C140.838 257.958 144.475 261.013 146.326 264.107" stroke="#1C2628" stroke-width="2.13" stroke-linecap="round" stroke-linejoin="round"/>
<path fill-rule="evenodd" clip-rule="evenodd" d="M133.658 135.658C133.658 134.706 134.201 133.913 134.902 133.913C135.573 133.913 137.104 134.389 137.168 135.341C137.391 138.435 137.87 143.513 137.87 143.513C137.87 143.513 136.562 145.853 135.668 143.513C135.126 142.124 135.094 137.443 134.902 137.443C134.232 137.404 133.658 136.61 133.658 135.658Z" fill="#FAF6EB" stroke="#1C2628" stroke-width="2.13" stroke-linecap="round" stroke-linejoin="round"/>
<path d="M2.99348 209.72C1.33425 219.717 1.39807 231.618 5.96096 240.067C10.5558 248.596 19.2667 255.34 27.5629 255.261C41.8259 255.181 54.2064 238.758 68.4375 239.671C75.4254 240.107 78.01 252.404 82.7962 258.752" stroke="#1C2628" stroke-width="2.13" stroke-linecap="round" stroke-linejoin="round"/>
<path d="M201.974 144.703C209.632 160.61 246.709 127.01 261.324 159.38" stroke="#1C2628" stroke-width="2.13" stroke-linecap="round" stroke-linejoin="round"/>
<path d="M218.247 164.299C232.574 164.379 247.603 154.62 250.698 182.19" stroke="#1C2628" stroke-width="2.13" stroke-linecap="round" stroke-linejoin="round"/>
<path d="M82.6047 107.215C86.6252 111.777 89.0183 116.538 90.167 125.662" stroke="#1C2628" stroke-width="2.13" stroke-linecap="round" stroke-linejoin="round"/>
<path d="M82.9878 117.014C89.9757 132.009 83.4664 141.172 79.4459 151.843" stroke="#1C2628" stroke-width="2.13" stroke-linecap="round" stroke-linejoin="round"/>
<path d="M9.34326 236.18C14.7039 247.605 26.4461 250.937 35.2847 249.152" stroke="#1C2628" stroke-width="2.13" stroke-linecap="round" stroke-linejoin="round"/>
<path d="M9.98145 254.309C20.7026 267.161 34.6147 260.933 42.0174 258.156" stroke="#1C2628" stroke-width="2.13" stroke-linecap="round" stroke-linejoin="round"/>
<path d="M175.299 277.039C175.299 277.039 172.81 280.213 170.289 281.363C167.8 282.553 162.631 284.06 160.653 284.219" stroke="#1C2628" stroke-width="2.13" stroke-linecap="round" stroke-linejoin="round"/>
<path fill-rule="evenodd" clip-rule="evenodd" d="M153.218 212.458C149.07 216.504 146.166 216.901 144.22 216.464C142.178 215.988 141.603 214.719 138.381 213.211C137.455 212.775 134.392 211.426 130.85 211.307C124.532 211.109 121.533 214.957 119.204 212.815C118.661 212.339 118.087 211.466 117.768 209.76C129.095 208.372 145.911 206.19 149.134 205.317C150.251 205.039 151.144 204.524 151.846 203.77C152.835 206.904 153.122 210.157 153.218 212.458Z" fill="#1C2628" stroke="#1C2628" stroke-width="2.13" stroke-linecap="round" stroke-linejoin="round"/>
<path fill-rule="evenodd" clip-rule="evenodd" d="M151.431 219.043L148.272 205.555C148.272 205.555 151.527 204.801 152.324 203.81C153.122 202.818 154.047 199.089 154.047 199.089L157.781 212.854C157.781 212.854 156.76 215.195 154.781 216.583C152.771 218.011 151.431 219.043 151.431 219.043Z" fill="#1C2628"/>
<path fill-rule="evenodd" clip-rule="evenodd" d="M165.662 263.79C166.492 264.345 164.641 268.55 162.28 270.176C160.557 271.366 158.738 271.089 159.025 269.661C159.217 268.709 160.27 267.558 160.812 266.963C162.44 265.178 164.992 263.353 165.662 263.79Z" fill="#1C2628" stroke="#1C2628" stroke-width="2.13" stroke-linecap="round" stroke-linejoin="round"/>
<path fill-rule="evenodd" clip-rule="evenodd" d="M166.173 253.555C165.503 252.96 166.045 250.104 166.938 249.826C167.258 249.747 167.609 250.024 167.768 250.143C168.215 250.5 168.534 251.175 168.502 251.809C168.406 253.198 166.715 254.071 166.173 253.555Z" fill="#1C2628" stroke="#1C2628" stroke-width="2.13" stroke-linecap="round" stroke-linejoin="round"/>
<path d="M63.1088 64.809H112.599" stroke="#1C2628" stroke-width="2.13" stroke-linecap="round" stroke-linejoin="round"/>
<path d="M85.1575 70.1246H120.129" stroke="#1C2628" stroke-width="2.13" stroke-linecap="round" stroke-linejoin="round"/>
<path d="M52.228 93.6882H81.1051" stroke="#1C2628" stroke-width="2.13" stroke-linecap="round" stroke-linejoin="round"/>
<path d="M63.1088 97.2584H88.9226" stroke="#1C2628" stroke-width="2.13" stroke-linecap="round" stroke-linejoin="round"/>
<path d="M26.7333 239.353L26.8929 239.314L26.5419 251.73C25.9356 251.254 25.0103 251.175 24.1168 251.611C22.8086 252.285 22.0747 253.793 22.4895 254.983C22.8724 256.213 24.2445 256.649 25.5527 256.014C26.861 255.38 27.5948 253.872 27.18 252.642C27.18 252.603 27.1481 252.563 27.1162 252.523L27.4672 239.155L37.4864 236.418L37.1354 248.676C36.5292 248.16 35.5719 248.081 34.6785 248.517C33.3703 249.152 32.6364 250.659 33.0193 251.889C33.4022 253.119 34.7742 253.555 36.0825 252.92C37.3907 252.285 38.1246 250.778 37.7098 249.548L37.6779 249.509L38.0289 236.259L47.027 233.8L46.7079 245.224C46.1017 244.748 45.1763 244.629 44.251 245.105C42.9428 245.74 42.2089 247.247 42.6237 248.477C43.0066 249.707 44.3786 250.143 45.6869 249.509C46.9951 248.874 47.729 247.366 47.3142 246.137C47.3142 246.097 47.2823 246.097 47.2823 246.057L47.6333 233.681L47.8247 233.641L47.9524 229.595L26.7333 235.942V239.353Z" fill="#1C2628" stroke="#1C2628" stroke-width="2.13" stroke-linecap="round" stroke-linejoin="round"/>
<path d="M15.5016 231.459C12.7256 232.848 10.492 233.046 8.83273 232.094C8.54556 231.935 8.29029 231.697 8.06693 231.499C9.088 231.657 10.141 231.142 10.7791 230.031C11.7045 228.405 11.4173 226.143 10.1091 224.993C8.80082 223.843 6.98205 224.2 6.05671 225.826C5.16327 227.373 5.41854 229.436 6.53533 230.666C6.98205 231.499 7.65213 232.332 8.54556 232.848C10.141 233.8 12.215 233.72 14.7039 232.689L3.98267 251.294L4.52511 251.77L15.8526 232.094C15.9483 231.935 15.9483 231.737 15.8526 231.618C15.7888 231.459 15.6292 231.38 15.5016 231.459Z" fill="#1C2628" stroke="#1C2628" stroke-width="2.13" stroke-linecap="round" stroke-linejoin="round"/>
<path d="M223.065 156.246C223.065 156.246 213.684 162.792 221.023 169.456C218.439 162.713 225.746 156.524 225.746 156.524C221.853 151.407 225.937 151.129 228.234 146.686C231.904 139.625 226.256 138.673 226.256 138.673C229.16 143.592 222.587 144.98 220.768 149.304C219.109 153.271 221.055 155.096 223.065 156.246Z" fill="#1C2628" stroke="#1C2628" stroke-width="2.13" stroke-linecap="round" stroke-linejoin="round"/>
<path fill-rule="evenodd" clip-rule="evenodd" d="M109.631 172.828C109.28 173.106 109.216 174.177 109.344 175.169C108.865 174.693 108.355 174.296 108.004 174.256C107.015 174.177 107.302 175.327 107.94 176.398C107.461 176.319 107.047 176.359 106.759 176.517C105.77 177.073 106.727 178.064 107.876 178.62C107.302 178.898 106.791 179.294 106.6 179.691C106.025 180.841 107.238 181 108.451 180.683C108.1 181.317 107.844 181.952 107.844 182.428C107.876 183.777 108.961 183.102 109.823 181.992C109.791 182.745 109.886 183.459 110.078 183.856C110.684 184.967 111.322 183.658 111.546 182.15C111.865 182.785 112.248 183.38 112.599 183.539C113.62 184.055 113.524 182.507 113.077 181.119C113.62 181.436 114.194 181.674 114.577 181.595C115.662 181.357 114.928 180.088 113.907 179.255C114.513 179.175 115.087 178.937 115.343 178.62C116.14 177.668 114.96 177.152 113.747 177.112C114.226 176.636 114.577 176.041 114.673 175.605C114.928 174.256 113.715 174.613 112.662 175.407C112.822 174.693 112.918 173.939 112.79 173.502C112.407 172.233 111.546 173.344 111.035 174.693C110.876 173.979 110.588 173.304 110.301 173.026C110.014 172.709 109.791 172.669 109.631 172.828ZM110.525 177.588C110.684 177.628 110.844 177.549 110.939 177.43C111.067 177.588 111.227 177.628 111.354 177.588C111.418 177.787 111.514 177.945 111.609 178.025C111.546 178.223 111.578 178.421 111.641 178.58C111.514 178.739 111.45 178.898 111.45 179.056C111.258 179.096 111.131 179.175 111.067 179.334C110.907 179.255 110.748 179.215 110.62 179.294C110.525 179.096 110.397 179.017 110.269 178.977C110.269 178.739 110.237 178.58 110.11 178.461C110.205 178.302 110.237 178.144 110.205 177.985C110.397 177.866 110.461 177.747 110.525 177.588Z" fill="#FAF6EB" stroke="#1C2628" stroke-width="2.13" stroke-linecap="round" stroke-linejoin="round"/>
<path fill-rule="evenodd" clip-rule="evenodd" d="M131.137 181.397C130.595 181.873 130.499 183.459 130.691 185.086C129.957 184.332 129.159 183.737 128.585 183.697C127.053 183.578 127.5 185.364 128.489 187.03C127.755 186.911 127.085 186.95 126.67 187.188C125.107 188.061 126.606 189.608 128.393 190.441C127.5 190.878 126.702 191.473 126.415 192.107C125.49 193.892 127.436 194.17 129.287 193.654C128.744 194.607 128.329 195.638 128.329 196.392C128.361 198.534 130.084 197.423 131.424 195.717C131.393 196.907 131.488 198.018 131.839 198.653C132.797 200.398 133.754 198.335 134.137 195.995C134.615 197.026 135.222 197.899 135.764 198.177C137.328 199.01 137.232 196.59 136.498 194.408C137.359 194.924 138.253 195.241 138.827 195.122C140.518 194.726 139.338 192.782 137.774 191.433C138.731 191.274 139.593 190.957 140.04 190.441C141.284 188.973 139.465 188.14 137.551 188.061C138.285 187.307 138.859 186.435 139.019 185.721C139.402 183.658 137.519 184.174 135.892 185.443C136.179 184.293 136.275 183.182 136.083 182.468C135.509 180.484 134.137 182.19 133.339 184.332C133.052 183.182 132.669 182.19 132.19 181.714C131.712 181.198 131.361 181.159 131.137 181.397ZM132.477 188.854C132.765 188.894 132.988 188.815 133.148 188.656C133.371 188.894 133.562 188.973 133.786 188.934C133.881 189.251 134.009 189.489 134.201 189.608C134.137 189.926 134.169 190.203 134.264 190.441C134.041 190.679 133.945 190.917 133.945 191.195C133.658 191.235 133.467 191.393 133.339 191.592C133.084 191.433 132.86 191.433 132.669 191.512C132.509 191.235 132.35 191.036 132.126 190.997C132.126 190.64 132.063 190.362 131.903 190.203C132.031 189.965 132.095 189.688 132.063 189.45C132.286 189.291 132.414 189.092 132.477 188.854Z" fill="#FAF6EB" stroke="#1C2628" stroke-width="2.13" stroke-linecap="round" stroke-linejoin="round"/>
<path fill-rule="evenodd" clip-rule="evenodd" d="M116.013 206.785C116.747 206.031 117.321 205.158 117.449 204.444C117.832 202.382 115.949 202.897 114.322 204.167C114.609 203.016 114.705 201.906 114.513 201.192C113.939 199.208 112.567 200.914 111.769 203.056C111.482 201.906 111.099 200.874 110.62 200.438C110.174 200.041 109.855 200.002 109.599 200.2C109.057 200.676 108.961 202.263 109.153 203.889C108.419 203.135 107.621 202.54 107.047 202.501C105.515 202.382 105.962 204.167 106.951 205.833C106.217 205.714 105.547 205.754 105.1 205.992C103.537 206.904 105.036 208.411 106.823 209.244C106.313 209.482 105.834 209.8 105.451 210.117C106.408 210.95 107.174 211.109 107.174 211.109C107.174 211.109 111.514 210.593 117.449 209.839C117.895 209.681 118.246 209.443 118.47 209.165C119.714 207.697 117.927 206.864 116.013 206.785ZM112.439 209.998C112.152 210.038 111.96 210.196 111.833 210.395C111.578 210.236 111.354 210.236 111.163 210.315C111.003 209.998 110.844 209.839 110.62 209.8C110.62 209.443 110.557 209.205 110.397 209.006C110.525 208.768 110.588 208.491 110.557 208.253C110.78 208.094 110.908 207.896 110.971 207.658C111.259 207.697 111.482 207.618 111.641 207.42C111.865 207.658 112.088 207.737 112.28 207.697C112.375 208.015 112.503 208.253 112.694 208.372C112.631 208.689 112.662 208.967 112.758 209.205C112.567 209.482 112.471 209.72 112.439 209.998Z" fill="#FAF6EB" stroke="#1C2628" stroke-width="2.13" stroke-linecap="round" stroke-linejoin="round"/>
<path fill-rule="evenodd" clip-rule="evenodd" d="M142.433 161.999C142.688 161.959 142.912 161.919 143.167 161.84C142.561 161.681 141.954 161.522 141.38 161.403C140.487 161.165 139.657 160.848 138.891 160.412C138.859 160.65 138.891 160.888 138.987 161.086C138.763 161.324 138.668 161.562 138.668 161.84C138.381 161.88 138.189 162.038 138.062 162.237C137.806 162.078 137.583 162.078 137.391 162.157C137.232 161.84 137.072 161.681 136.849 161.642C136.849 161.284 136.785 161.046 136.626 160.848C136.753 160.61 136.817 160.332 136.785 160.094C137.009 159.936 137.136 159.737 137.2 159.499C137.328 159.499 137.423 159.499 137.519 159.499C134.679 157.397 132.988 154.461 132.988 154.461L132.509 154.501C131.967 154.977 132.382 156.365 133.18 157.635C132.446 157.516 131.776 157.556 131.329 157.794C129.765 158.666 131.265 160.213 133.052 161.046C132.158 161.483 131.361 162.078 131.074 162.673C130.148 164.498 132.095 164.736 133.945 164.22C133.403 165.172 132.988 166.203 132.988 166.957C133.02 169.099 134.743 167.989 136.083 166.283C136.051 167.473 136.147 168.584 136.498 169.218C137.455 170.964 138.412 168.901 138.795 166.56C139.274 167.592 139.88 168.465 140.423 168.742C142.018 169.575 141.891 167.156 141.157 164.974C142.018 165.489 142.912 165.807 143.486 165.688C145.145 165.291 143.996 163.347 142.433 161.999Z" fill="#FAF6EB" stroke="#1C2628" stroke-width="2.13" stroke-linecap="round" stroke-linejoin="round"/>
<path d="M128.872 204.722C128.553 205.278 128.648 206.071 128.999 206.626C129.319 207.182 129.829 207.499 130.34 207.777C131.233 208.253 132.222 208.57 133.179 208.649" stroke="#1C2628" stroke-width="2.13" stroke-linecap="round" stroke-linejoin="round"/>
<path d="M144.954 173.066C145.049 174.851 145.911 176.557 147.187 177.39" stroke="#1C2628" stroke-width="2.13" stroke-linecap="round" stroke-linejoin="round"/>
<path d="M146.613 171.678C146.421 173.066 147.315 176.2 148.049 177.231" stroke="#1C2628" stroke-width="2.13" stroke-linecap="round" stroke-linejoin="round"/>
<path d="M104.111 181.912C104.111 183.102 103.313 184.174 102.388 184.332" stroke="#1C2628" stroke-width="2.13" stroke-linecap="round" stroke-linejoin="round"/>
<path d="M114.194 160.848C114.96 161.919 116.013 162.594 117.13 162.752C119.395 163.07 121.533 161.364 123.799 161.403C125.873 161.443 127.819 162.911 129.893 162.673" stroke="#1C2628" stroke-width="2.13" stroke-linecap="round" stroke-linejoin="round"/>
<path d="M115.853 157.913C115.726 158.428 116.172 158.865 116.587 159.063C119.618 160.531 123.033 157.992 126.223 158.666" stroke="#1C2628" stroke-width="2.13" stroke-linecap="round" stroke-linejoin="round"/>
<path fill-rule="evenodd" clip-rule="evenodd" d="M67.608 147.757C64.4171 146.21 62.5026 141.132 63.6832 138.356C65.1191 134.904 71.5008 134.349 73.8939 138.356C75.1064 140.379 75.4893 143.909 73.8939 146.289C72.2347 148.789 69.331 148.59 67.608 147.757Z" fill="#FAF6EB"/>
<path fill-rule="evenodd" clip-rule="evenodd" d="M213.971 218.924C212.44 216.781 213.365 210.831 216.556 208.689C220.736 205.912 226.065 211.347 225.905 214.322C225.746 218.17 216.333 222.216 213.971 218.924Z" fill="#1C2628" stroke="#1C2628" stroke-width="2.13" stroke-linecap="round" stroke-linejoin="round"/>
<path fill-rule="evenodd" clip-rule="evenodd" d="M224.788 284.854C223.48 283.941 223.289 280.966 224.214 279.935C225.426 278.586 228.649 280.332 228.745 282.037C228.841 283.624 226.352 285.925 224.788 284.854Z" fill="#1C2628" stroke="#1C2628" stroke-width="2.13" stroke-linecap="round" stroke-linejoin="round"/>
<path d="M40.9644 158.547L29.5093 150.336L40.9644 142.085V158.547Z" fill="#1C2628" stroke="#1C2628" stroke-width="2.13" stroke-linecap="round" stroke-linejoin="round"/>
<path d="M151.559 123.162L173.288 107.572L151.559 91.9824V123.162Z" fill="#1C2628" stroke="#1C2628" stroke-width="2.13" stroke-linecap="round" stroke-linejoin="round"/>
<path d="M127.149 141.926C128.294 141.926 129.223 141.038 129.223 139.942C129.223 138.847 128.294 137.959 127.149 137.959C126.003 137.959 125.075 138.847 125.075 139.942C125.075 141.038 126.003 141.926 127.149 141.926Z" fill="#FAF6EB"/>
<path d="M114.066 137.959C115.215 137.959 116.14 138.832 116.14 139.942C116.14 141.053 115.215 141.926 114.066 141.926" fill="#FAF6EB"/>
<path d="M124.118 120.504C124.118 120.504 122.522 123.281 125.075 124.868C127.627 126.455 129.319 125.661 130.18 127.645C132.414 132.802 135.924 130.422 135.924 130.422" stroke="#FAF6EB" stroke-width="2.13" stroke-linecap="round" stroke-linejoin="round"/>
</svg>
