<svg width="1920" height="1080" viewBox="0 0 1920 1080" fill="none" xmlns="http://www.w3.org/2000/svg">
<g clip-path="url(#clip0_189_38)">
<path d="M0 773L24.7 770.3C49.3 767.7 98.7 762.3 147.8 763.8C197 765.3 246 773.7 295.2 769.3C344.3 765 393.7 748 443 739.3C492.3 730.7 541.7 730.3 590.8 737.7C640 745 689 760 738.2 750.2C787.3 740.3 836.7 705.7 886 700.8C935.3 696 984.7 721 1034 735.2C1083.3 749.3 1132.7 752.7 1181.8 755.8C1231 759 1280 762 1329.2 762.3C1378.3 762.7 1427.7 760.3 1477 742.5C1526.3 724.7 1575.7 691.3 1624.8 694.5C1674 697.7 1723 737.3 1772.2 737.7C1821.3 738 1870.7 699 1895.3 679.5L1920 660V1081H1895.3C1870.7 1081 1821.3 1081 1772.2 1081C1723 1081 1674 1081 1624.8 1081C1575.7 1081 1526.3 1081 1477 1081C1427.7 1081 1378.3 1081 1329.2 1081C1280 1081 1231 1081 1181.8 1081C1132.7 1081 1083.3 1081 1034 1081C984.7 1081 935.3 1081 886 1081C836.7 1081 787.3 1081 738.2 1081C689 1081 640 1081 590.8 1081C541.7 1081 492.3 1081 443 1081C393.7 1081 344.3 1081 295.2 1081C246 1081 197 1081 147.8 1081C98.7 1081 49.3 1081 24.7 1081H0V773Z" fill="#C31626"/>
<path d="M0 768L24.7 755.3C49.3 742.7 98.7 717.3 147.8 715C197 712.7 246 733.3 295.2 732.5C344.3 731.7 393.7 709.3 443 719.8C492.3 730.3 541.7 773.7 590.8 795.8C640 818 689 819 738.2 813.2C787.3 807.3 836.7 794.7 886 777.2C935.3 759.7 984.7 737.3 1034 726.5C1083.3 715.7 1132.7 716.3 1181.8 717.5C1231 718.7 1280 720.3 1329.2 717.5C1378.3 714.7 1427.7 707.3 1477 724C1526.3 740.7 1575.7 781.3 1624.8 792.7C1674 804 1723 786 1772.2 770C1821.3 754 1870.7 740 1895.3 733L1920 726V1081H1895.3C1870.7 1081 1821.3 1081 1772.2 1081C1723 1081 1674 1081 1624.8 1081C1575.7 1081 1526.3 1081 1477 1081C1427.7 1081 1378.3 1081 1329.2 1081C1280 1081 1231 1081 1181.8 1081C1132.7 1081 1083.3 1081 1034 1081C984.7 1081 935.3 1081 886 1081C836.7 1081 787.3 1081 738.2 1081C689 1081 640 1081 590.8 1081C541.7 1081 492.3 1081 443 1081C393.7 1081 344.3 1081 295.2 1081C246 1081 197 1081 147.8 1081C98.7 1081 49.3 1081 24.7 1081H0V768Z" fill="#B41529"/>
<path d="M0 821L24.7 820.7C49.3 820.3 98.7 819.7 147.8 822.2C197 824.7 246 830.3 295.2 836.8C344.3 843.3 393.7 850.7 443 832.8C492.3 815 541.7 772 590.8 753.5C640 735 689 741 738.2 744.7C787.3 748.3 836.7 749.7 886 762C935.3 774.3 984.7 797.7 1034 806.8C1083.3 816 1132.7 811 1181.8 804.5C1231 798 1280 790 1329.2 796.7C1378.3 803.3 1427.7 824.7 1477 818.2C1526.3 811.7 1575.7 777.3 1624.8 768C1674 758.7 1723 774.3 1772.2 784C1821.3 793.7 1870.7 797.3 1895.3 799.2L1920 801V1081H1895.3C1870.7 1081 1821.3 1081 1772.2 1081C1723 1081 1674 1081 1624.8 1081C1575.7 1081 1526.3 1081 1477 1081C1427.7 1081 1378.3 1081 1329.2 1081C1280 1081 1231 1081 1181.8 1081C1132.7 1081 1083.3 1081 1034 1081C984.7 1081 935.3 1081 886 1081C836.7 1081 787.3 1081 738.2 1081C689 1081 640 1081 590.8 1081C541.7 1081 492.3 1081 443 1081C393.7 1081 344.3 1081 295.2 1081C246 1081 197 1081 147.8 1081C98.7 1081 49.3 1081 24.7 1081H0V821Z" fill="#A6162B"/>
<path d="M0 824L24.7 828.7C49.3 833.3 98.7 842.7 147.8 848.7C197 854.7 246 857.3 295.2 850.3C344.3 843.3 393.7 826.7 443 823C492.3 819.3 541.7 828.7 590.8 836.7C640 844.7 689 851.3 738.2 844.8C787.3 838.3 836.7 818.7 886 816.5C935.3 814.3 984.7 829.7 1034 836C1083.3 842.3 1132.7 839.7 1181.8 828.7C1231 817.7 1280 798.3 1329.2 801.2C1378.3 804 1427.7 829 1477 841.5C1526.3 854 1575.7 854 1624.8 854.8C1674 855.7 1723 857.3 1772.2 845.7C1821.3 834 1870.7 809 1895.3 796.5L1920 784V1081H1895.3C1870.7 1081 1821.3 1081 1772.2 1081C1723 1081 1674 1081 1624.8 1081C1575.7 1081 1526.3 1081 1477 1081C1427.7 1081 1378.3 1081 1329.2 1081C1280 1081 1231 1081 1181.8 1081C1132.7 1081 1083.3 1081 1034 1081C984.7 1081 935.3 1081 886 1081C836.7 1081 787.3 1081 738.2 1081C689 1081 640 1081 590.8 1081C541.7 1081 492.3 1081 443 1081C393.7 1081 344.3 1081 295.2 1081C246 1081 197 1081 147.8 1081C98.7 1081 49.3 1081 24.7 1081H0V824Z" fill="#97172C"/>
<path d="M0 859L24.7 851.3C49.3 843.7 98.7 828.3 147.8 823C197 817.7 246 822.3 295.2 823.2C344.3 824 393.7 821 443 826.8C492.3 832.7 541.7 847.3 590.8 860.2C640 873 689 884 738.2 882C787.3 880 836.7 865 886 854C935.3 843 984.7 836 1034 831.7C1083.3 827.3 1132.7 825.7 1181.8 833.3C1231 841 1280 858 1329.2 859.5C1378.3 861 1427.7 847 1477 839.7C1526.3 832.3 1575.7 831.7 1624.8 827.7C1674 823.7 1723 816.3 1772.2 825.8C1821.3 835.3 1870.7 861.7 1895.3 874.8L1920 888V1081H1895.3C1870.7 1081 1821.3 1081 1772.2 1081C1723 1081 1674 1081 1624.8 1081C1575.7 1081 1526.3 1081 1477 1081C1427.7 1081 1378.3 1081 1329.2 1081C1280 1081 1231 1081 1181.8 1081C1132.7 1081 1083.3 1081 1034 1081C984.7 1081 935.3 1081 886 1081C836.7 1081 787.3 1081 738.2 1081C689 1081 640 1081 590.8 1081C541.7 1081 492.3 1081 443 1081C393.7 1081 344.3 1081 295.2 1081C246 1081 197 1081 147.8 1081C98.7 1081 49.3 1081 24.7 1081H0V859Z" fill="#88182C"/>
<path d="M0 940L24.7 926.5C49.3 913 98.7 886 147.8 884C197 882 246 905 295.2 916.5C344.3 928 393.7 928 443 924.5C492.3 921 541.7 914 590.8 906.7C640 899.3 689 891.7 738.2 888C787.3 884.3 836.7 884.7 886 883C935.3 881.3 984.7 877.7 1034 878.2C1083.3 878.7 1132.7 883.3 1181.8 888.5C1231 893.7 1280 899.3 1329.2 907.2C1378.3 915 1427.7 925 1477 927.7C1526.3 930.3 1575.7 925.7 1624.8 924.5C1674 923.3 1723 925.7 1772.2 915C1821.3 904.3 1870.7 880.7 1895.3 868.8L1920 857V1081H1895.3C1870.7 1081 1821.3 1081 1772.2 1081C1723 1081 1674 1081 1624.8 1081C1575.7 1081 1526.3 1081 1477 1081C1427.7 1081 1378.3 1081 1329.2 1081C1280 1081 1231 1081 1181.8 1081C1132.7 1081 1083.3 1081 1034 1081C984.7 1081 935.3 1081 886 1081C836.7 1081 787.3 1081 738.2 1081C689 1081 640 1081 590.8 1081C541.7 1081 492.3 1081 443 1081C393.7 1081 344.3 1081 295.2 1081C246 1081 197 1081 147.8 1081C98.7 1081 49.3 1081 24.7 1081H0V940Z" fill="#791A2B"/>
<path d="M0 894L24.7 908.3C49.3 922.7 98.7 951.3 147.8 963.3C197 975.3 246 970.7 295.2 957.8C344.3 945 393.7 924 443 910.5C492.3 897 541.7 891 590.8 902.5C640 914 689 943 738.2 955.5C787.3 968 836.7 964 886 949.5C935.3 935 984.7 910 1034 906.7C1083.3 903.3 1132.7 921.7 1181.8 925.7C1231 929.7 1280 919.3 1329.2 919.3C1378.3 919.3 1427.7 929.7 1477 934.8C1526.3 940 1575.7 940 1624.8 936C1674 932 1723 924 1772.2 924.3C1821.3 924.7 1870.7 933.3 1895.3 937.7L1920 942V1081H1895.3C1870.7 1081 1821.3 1081 1772.2 1081C1723 1081 1674 1081 1624.8 1081C1575.7 1081 1526.3 1081 1477 1081C1427.7 1081 1378.3 1081 1329.2 1081C1280 1081 1231 1081 1181.8 1081C1132.7 1081 1083.3 1081 1034 1081C984.7 1081 935.3 1081 886 1081C836.7 1081 787.3 1081 738.2 1081C689 1081 640 1081 590.8 1081C541.7 1081 492.3 1081 443 1081C393.7 1081 344.3 1081 295.2 1081C246 1081 197 1081 147.8 1081C98.7 1081 49.3 1081 24.7 1081H0V894Z" fill="#6A1A2A"/>
<path d="M0 988L24.7 988.5C49.3 989 98.7 990 147.8 986.7C197 983.3 246 975.7 295.2 965.3C344.3 955 393.7 942 443 945.8C492.3 949.7 541.7 970.3 590.8 972.7C640 975 689 959 738.2 961.3C787.3 963.7 836.7 984.3 886 986C935.3 987.7 984.7 970.3 1034 967.5C1083.3 964.7 1132.7 976.3 1181.8 971.3C1231 966.3 1280 944.7 1329.2 933.8C1378.3 923 1427.7 923 1477 922.8C1526.3 922.7 1575.7 922.3 1624.8 933C1674 943.7 1723 965.3 1772.2 968.2C1821.3 971 1870.7 955 1895.3 947L1920 939V1081H1895.3C1870.7 1081 1821.3 1081 1772.2 1081C1723 1081 1674 1081 1624.8 1081C1575.7 1081 1526.3 1081 1477 1081C1427.7 1081 1378.3 1081 1329.2 1081C1280 1081 1231 1081 1181.8 1081C1132.7 1081 1083.3 1081 1034 1081C984.7 1081 935.3 1081 886 1081C836.7 1081 787.3 1081 738.2 1081C689 1081 640 1081 590.8 1081C541.7 1081 492.3 1081 443 1081C393.7 1081 344.3 1081 295.2 1081C246 1081 197 1081 147.8 1081C98.7 1081 49.3 1081 24.7 1081H0V988Z" fill="#5B1A28"/>
<path d="M0 1046L24.7 1044.3C49.3 1042.7 98.7 1039.3 147.8 1026.3C197 1013.3 246 990.7 295.2 980.2C344.3 969.7 393.7 971.3 443 977.3C492.3 983.3 541.7 993.7 590.8 999.8C640 1006 689 1008 738.2 1010.2C787.3 1012.3 836.7 1014.7 886 1012C935.3 1009.3 984.7 1001.7 1034 1002.3C1083.3 1003 1132.7 1012 1181.8 1017.8C1231 1023.7 1280 1026.3 1329.2 1028.3C1378.3 1030.3 1427.7 1031.7 1477 1033.5C1526.3 1035.3 1575.7 1037.7 1624.8 1038C1674 1038.3 1723 1036.7 1772.2 1031.5C1821.3 1026.3 1870.7 1017.7 1895.3 1013.3L1920 1009V1081H1895.3C1870.7 1081 1821.3 1081 1772.2 1081C1723 1081 1674 1081 1624.8 1081C1575.7 1081 1526.3 1081 1477 1081C1427.7 1081 1378.3 1081 1329.2 1081C1280 1081 1231 1081 1181.8 1081C1132.7 1081 1083.3 1081 1034 1081C984.7 1081 935.3 1081 886 1081C836.7 1081 787.3 1081 738.2 1081C689 1081 640 1081 590.8 1081C541.7 1081 492.3 1081 443 1081C393.7 1081 344.3 1081 295.2 1081C246 1081 197 1081 147.8 1081C98.7 1081 49.3 1081 24.7 1081H0V1046Z" fill="#4C1A25"/>
<path d="M0 1001L24.7 1011.5C49.3 1022 98.7 1043 147.8 1053.8C197 1064.7 246 1065.3 295.2 1064C344.3 1062.7 393.7 1059.3 443 1055C492.3 1050.7 541.7 1045.3 590.8 1049.2C640 1053 689 1066 738.2 1060.8C787.3 1055.7 836.7 1032.3 886 1026.8C935.3 1021.3 984.7 1033.7 1034 1040.2C1083.3 1046.7 1132.7 1047.3 1181.8 1050.5C1231 1053.7 1280 1059.3 1329.2 1062.5C1378.3 1065.7 1427.7 1066.3 1477 1062.7C1526.3 1059 1575.7 1051 1624.8 1051.2C1674 1051.3 1723 1059.7 1772.2 1054.2C1821.3 1048.7 1870.7 1029.3 1895.3 1019.7L1920 1010V1081H1895.3C1870.7 1081 1821.3 1081 1772.2 1081C1723 1081 1674 1081 1624.8 1081C1575.7 1081 1526.3 1081 1477 1081C1427.7 1081 1378.3 1081 1329.2 1081C1280 1081 1231 1081 1181.8 1081C1132.7 1081 1083.3 1081 1034 1081C984.7 1081 935.3 1081 886 1081C836.7 1081 787.3 1081 738.2 1081C689 1081 640 1081 590.8 1081C541.7 1081 492.3 1081 443 1081C393.7 1081 344.3 1081 295.2 1081C246 1081 197 1081 147.8 1081C98.7 1081 49.3 1081 24.7 1081H0V1001Z" fill="#3E1921"/>
</g>
<defs>
<clipPath id="clip0_189_38">
<rect width="1920" height="1080" fill="white"/>
</clipPath>
</defs>
</svg>
