<?xml version="1.0" encoding="utf-8"?>
<svg xmlns="http://www.w3.org/2000/svg" width="243.75" viewBox="67.5 67.5 243.75 240" height="240" version="1.0">
  <defs>
    <clipPath id="a">
      <path d="M 124.839844 124.839844 L 250.089844 124.839844 L 250.089844 250.089844 L 124.839844 250.089844 Z M 124.839844 124.839844" />
    </clipPath>
  </defs>
  <path d="M 187.566406 68.316406 C 121.707031 68.316406 68.316406 121.707031 68.316406 187.566406 C 68.316406 253.425781 121.707031 306.816406 187.566406 306.816406 C 253.425781 306.816406 306.816406 253.425781 306.816406 187.566406 C 306.816406 121.707031 253.425781 68.316406 187.566406 68.316406" />
  <path fill="#CDDFE3" d="M 187.421875 126.96875 C 153.25 126.96875 125.546875 154.667969 125.546875 188.84375 C 125.546875 223.015625 153.25 250.71875 187.421875 250.71875 C 221.597656 250.71875 249.296875 223.015625 249.296875 188.84375 C 249.296875 154.667969 221.597656 126.96875 187.421875 126.96875" />
  <path d="M 187.355469 178.277344 C 181.558594 178.277344 176.855469 182.976562 176.855469 188.777344 C 176.855469 194.574219 181.558594 199.277344 187.355469 199.277344 C 193.15625 199.277344 197.855469 194.574219 197.855469 188.777344 C 197.855469 182.976562 193.15625 178.277344 187.355469 178.277344" />
  <g fill="#FFF">
    <g>
      <g>
        <path d="M -14.59375 -21.90625 C -11.632812 -21.664062 -9.5 -20.789062 -8.1875 -19.28125 C -6.875 -17.78125 -6.347656 -15.46875 -6.609375 -12.34375 L -6.953125 -8.265625 L 0.625 -7.640625 L 0.21875 -2.65625 L -24.3125 -4.6875 L -23.546875 -13.890625 C -23.316406 -16.671875 -22.488281 -18.757812 -21.0625 -20.15625 C -19.632812 -21.5625 -17.476562 -22.144531 -14.59375 -21.90625 Z M -14.96875 -16.765625 C -16.363281 -16.878906 -17.398438 -16.578125 -18.078125 -15.859375 C -18.753906 -15.148438 -19.175781 -13.804688 -19.34375 -11.828125 L -19.5625 -9.3125 L -11.3125 -8.625 L -11.140625 -10.671875 C -10.984375 -12.503906 -11.003906 -13.78125 -11.203125 -14.5 C -11.398438 -15.226562 -11.785156 -15.765625 -12.359375 -16.109375 C -12.941406 -16.453125 -13.8125 -16.671875 -14.96875 -16.765625 Z M -14.96875 -16.765625" transform="translate(113.698 187.818)" />
      </g>
    </g>
  </g>
  <g fill="#FFF">
    <g>
      <g>
        <path d="M 1.0625 -2.453125 L -21.53125 -12.1875 L -19.5625 -16.78125 L -1.1875 -8.859375 L 2.921875 -18.375 L 7.140625 -16.5625 Z M 1.0625 -2.453125" transform="translate(116.545 162.926)" />
      </g>
    </g>
  </g>
  <g fill="#FFF">
    <g>
      <g>
        <path d="M 8.109375 -23.734375 C 10.929688 -21.109375 12.425781 -18.648438 12.59375 -16.359375 C 12.757812 -14.066406 11.609375 -11.601562 9.140625 -8.96875 C 6.691406 -6.34375 4.320312 -5.019531 2.03125 -5 C -0.257812 -4.988281 -2.832031 -6.3125 -5.6875 -8.96875 L -16.15625 -18.765625 L -12.75 -22.421875 L -2.53125 -12.859375 C -1.3125 -11.722656 -0.238281 -10.941406 0.6875 -10.515625 C 1.613281 -10.097656 2.476562 -9.988281 3.28125 -10.1875 C 4.082031 -10.394531 4.941406 -10.988281 5.859375 -11.96875 C 7.160156 -13.363281 7.703125 -14.679688 7.484375 -15.921875 C 7.265625 -17.171875 6.269531 -18.625 4.5 -20.28125 L -5.765625 -29.875 L -2.359375 -33.53125 Z M 8.109375 -23.734375" transform="translate(124.895 143.256)" />
      </g>
    </g>
  </g>
  <g fill="#FFF">
    <g>
      <g>
        <path d="M 15.171875 -15.34375 C 16.242188 -13.132812 16.335938 -11.078125 15.453125 -9.171875 C 14.578125 -7.273438 12.722656 -5.632812 9.890625 -4.25 C 7.929688 -3.300781 6.070312 -2.796875 4.3125 -2.734375 C 2.5625 -2.679688 0.875 -3.164062 -0.75 -4.1875 L 1.4375 -8.5 C 2.3125 -8.03125 3.0625 -7.726562 3.6875 -7.59375 C 4.320312 -7.457031 5.003906 -7.441406 5.734375 -7.546875 C 6.460938 -7.648438 7.234375 -7.898438 8.046875 -8.296875 C 9.273438 -8.898438 10.128906 -9.578125 10.609375 -10.328125 C 11.085938 -11.078125 11.117188 -11.882812 10.703125 -12.75 C 10.460938 -13.25 10.140625 -13.601562 9.734375 -13.8125 C 9.335938 -14.03125 8.835938 -14.140625 8.234375 -14.140625 C 7.640625 -14.148438 6.679688 -14.023438 5.359375 -13.765625 C 4.046875 -13.515625 2.804688 -13.296875 1.640625 -13.109375 C 0.472656 -12.921875 -0.597656 -12.894531 -1.578125 -13.03125 C -2.566406 -13.175781 -3.457031 -13.519531 -4.25 -14.0625 C -5.050781 -14.613281 -5.734375 -15.460938 -6.296875 -16.609375 C -7.316406 -18.703125 -7.40625 -20.6875 -6.5625 -22.5625 C -5.726562 -24.4375 -3.992188 -26.015625 -1.359375 -27.296875 C 2.472656 -29.171875 5.816406 -29.179688 8.671875 -27.328125 L 6.5625 -22.984375 C 5.5 -23.609375 4.488281 -23.9375 3.53125 -23.96875 C 2.570312 -24.007812 1.570312 -23.78125 0.53125 -23.28125 C -0.507812 -22.757812 -1.265625 -22.148438 -1.734375 -21.453125 C -2.203125 -20.753906 -2.238281 -20.003906 -1.84375 -19.203125 C -1.5 -18.484375 -0.890625 -18.101562 -0.015625 -18.0625 C 0.847656 -18.019531 2.222656 -18.222656 4.109375 -18.671875 C 5.160156 -18.867188 6.210938 -19.050781 7.265625 -19.21875 C 8.328125 -19.382812 9.332031 -19.394531 10.28125 -19.25 C 11.238281 -19.101562 12.132812 -18.734375 12.96875 -18.140625 C 13.8125 -17.546875 14.546875 -16.613281 15.171875 -15.34375 Z M 15.171875 -15.34375" transform="translate(144.654 123.3)" />
      </g>
    </g>
  </g>
  <g fill="#FFF">
    <g>
      <g>
        <path d="M 21.953125 2.734375 L 24 -13.671875 L 16.890625 -4.1875 L 14 -4.546875 L 9.484375 -15.484375 L 7.4375 0.921875 L 2.65625 0.328125 L 5.703125 -24.09375 L 11.421875 -23.375 L 16.34375 -10.984375 L 24.203125 -21.78125 L 29.828125 -21.078125 L 26.78125 3.34375 Z M 21.953125 2.734375" transform="translate(179.996 109.969)" />
      </g>
    </g>
  </g>
  <g fill="#FFF">
    <g>
      <g>
        <path d="M 24.9375 2.8125 C 22.976562 6.125 20.894531 8.101562 18.6875 8.75 C 16.488281 9.40625 13.832031 8.816406 10.71875 6.984375 C 7.632812 5.148438 5.835938 3.117188 5.328125 0.890625 C 4.816406 -1.335938 5.550781 -4.128906 7.53125 -7.484375 L 14.828125 -19.8125 L 19.140625 -17.265625 L 12.015625 -5.234375 C 11.171875 -3.804688 10.640625 -2.59375 10.421875 -1.59375 C 10.210938 -0.601562 10.289062 0.257812 10.65625 1 C 11.03125 1.75 11.796875 2.46875 12.953125 3.15625 C 14.597656 4.125 16.003906 4.363281 17.171875 3.875 C 18.335938 3.382812 19.535156 2.097656 20.765625 0.015625 L 27.921875 -12.0625 L 32.234375 -9.515625 Z M 24.9375 2.8125" transform="translate(211.248 114.71)" />
      </g>
    </g>
  </g>
  <g fill="#FFF">
    <g>
      <g>
        <path d="M 18.25 11.5 C 16.320312 13.03125 14.335938 13.570312 12.296875 13.125 C 10.253906 12.675781 8.253906 11.21875 6.296875 8.75 C 4.941406 7.050781 4.046875 5.347656 3.609375 3.640625 C 3.179688 1.929688 3.285156 0.179688 3.921875 -1.609375 L 8.609375 -0.421875 C 8.347656 0.515625 8.21875 1.304688 8.21875 1.953125 C 8.21875 2.597656 8.34375 3.269531 8.59375 3.96875 C 8.851562 4.664062 9.265625 5.367188 9.828125 6.078125 C 10.679688 7.140625 11.53125 7.820312 12.375 8.125 C 13.21875 8.4375 14.015625 8.296875 14.765625 7.703125 C 15.191406 7.359375 15.460938 6.96875 15.578125 6.53125 C 15.703125 6.09375 15.703125 5.582031 15.578125 5 C 15.460938 4.414062 15.132812 3.5 14.59375 2.25 C 14.0625 1.039062 13.578125 -0.113281 13.140625 -1.21875 C 12.710938 -2.320312 12.460938 -3.367188 12.390625 -4.359375 C 12.316406 -5.359375 12.457031 -6.300781 12.8125 -7.1875 C 13.175781 -8.082031 13.859375 -8.925781 14.859375 -9.71875 C 16.679688 -11.175781 18.597656 -11.695312 20.609375 -11.28125 C 22.617188 -10.863281 24.539062 -9.507812 26.375 -7.21875 C 29.019531 -3.882812 29.742188 -0.613281 28.546875 2.59375 L 23.859375 1.453125 C 24.242188 0.273438 24.347656 -0.78125 24.171875 -1.71875 C 24.003906 -2.65625 23.5625 -3.578125 22.84375 -4.484375 C 22.125 -5.390625 21.367188 -6 20.578125 -6.3125 C 19.785156 -6.625 19.039062 -6.5 18.34375 -5.9375 C 17.71875 -5.445312 17.476562 -4.773438 17.625 -3.921875 C 17.769531 -3.066406 18.265625 -1.765625 19.109375 -0.015625 C 19.546875 0.960938 19.957031 1.953125 20.34375 2.953125 C 20.726562 3.953125 20.953125 4.929688 21.015625 5.890625 C 21.078125 6.859375 20.90625 7.816406 20.5 8.765625 C 20.101562 9.710938 19.351562 10.625 18.25 11.5 Z M 18.25 11.5" transform="translate(234.996 129.701)" />
      </g>
    </g>
  </g>
  <g fill="#FFF">
    <g>
      <g>
        <path d="M 4.890625 12.78125 L 0.640625 1.6875 L 4.25 0.3125 L 5.484375 3.53125 L 21.25 -2.515625 L 20.015625 -5.734375 L 23.625 -7.109375 L 27.875 3.984375 L 24.265625 5.359375 L 23.046875 2.171875 L 7.28125 8.21875 L 8.5 11.40625 Z M 4.890625 12.78125" transform="translate(249.825 149.933)" />
      </g>
    </g>
  </g>
  <g fill="#FFF">
    <g>
      <g>
        <path d="M 5.1875 22.453125 C 3.550781 21.472656 2.328125 20.238281 1.515625 18.75 C 0.703125 17.257812 0.238281 15.394531 0.125 13.15625 C -0.25 5.539062 3.828125 1.523438 12.359375 1.109375 C 16.734375 0.890625 20.007812 1.691406 22.1875 3.515625 C 24.363281 5.335938 25.546875 8.066406 25.734375 11.703125 C 25.847656 14.109375 25.535156 16.085938 24.796875 17.640625 C 24.054688 19.203125 23.046875 20.410156 21.765625 21.265625 L 18.578125 17.546875 C 19.398438 16.929688 19.988281 16.375 20.34375 15.875 C 20.695312 15.382812 20.953125 14.832031 21.109375 14.21875 C 21.265625 13.601562 21.320312 12.875 21.28125 12.03125 C 21.175781 10.019531 20.457031 8.515625 19.125 7.515625 C 17.800781 6.523438 15.632812 6.109375 12.625 6.265625 C 9.820312 6.398438 7.75 6.992188 6.40625 8.046875 C 5.070312 9.109375 4.457031 10.722656 4.5625 12.890625 C 4.632812 14.347656 4.96875 15.46875 5.5625 16.25 C 6.15625 17.03125 6.929688 17.734375 7.890625 18.359375 Z M 5.1875 22.453125" transform="translate(256.659 167.405)" />
      </g>
    </g>
  </g>
  <g clip-path="url(#a)">
    <path fill="#FFF" d="M 250.089844 187.464844 C 250.089844 189.515625 249.988281 191.5625 249.785156 193.601562 C 249.585938 195.644531 249.285156 197.667969 248.886719 199.679688 C 248.484375 201.691406 247.988281 203.679688 247.390625 205.644531 C 246.796875 207.605469 246.105469 209.535156 245.320312 211.429688 C 244.535156 213.324219 243.660156 215.175781 242.695312 216.984375 C 241.726562 218.792969 240.675781 220.550781 239.535156 222.257812 C 238.394531 223.960938 237.175781 225.605469 235.875 227.191406 C 234.574219 228.777344 233.195312 230.296875 231.746094 231.746094 C 230.296875 233.195312 228.777344 234.574219 227.191406 235.875 C 225.605469 237.175781 223.960938 238.394531 222.257812 239.535156 C 220.550781 240.675781 218.792969 241.726562 216.984375 242.695312 C 215.175781 243.660156 213.324219 244.535156 211.429688 245.320312 C 209.535156 246.105469 207.605469 246.796875 205.644531 247.390625 C 203.679688 247.988281 201.691406 248.484375 199.679688 248.886719 C 197.667969 249.285156 195.644531 249.585938 193.601562 249.785156 C 191.5625 249.988281 189.515625 250.089844 187.464844 250.089844 C 185.414062 250.089844 183.367188 249.988281 181.324219 249.785156 C 179.285156 249.585938 177.257812 249.285156 175.246094 248.886719 C 173.234375 248.484375 171.246094 247.988281 169.285156 247.390625 C 167.320312 246.796875 165.394531 246.105469 163.5 245.320312 C 161.601562 244.535156 159.75 243.660156 157.941406 242.695312 C 156.132812 241.726562 154.375 240.675781 152.671875 239.535156 C 150.964844 238.394531 149.320312 237.175781 147.734375 235.875 C 146.148438 234.574219 144.632812 233.195312 143.179688 231.746094 C 141.730469 230.296875 140.355469 228.777344 139.054688 227.191406 C 137.753906 225.605469 136.53125 223.960938 135.394531 222.257812 C 134.253906 220.550781 133.199219 218.792969 132.234375 216.984375 C 131.265625 215.175781 130.390625 213.324219 129.605469 211.429688 C 128.820312 209.535156 128.128906 207.605469 127.535156 205.644531 C 126.941406 203.679688 126.441406 201.691406 126.042969 199.679688 C 125.640625 197.667969 125.339844 195.644531 125.140625 193.601562 C 124.9375 191.5625 124.839844 189.515625 124.839844 187.464844 C 124.839844 185.414062 124.9375 183.367188 125.140625 181.324219 C 125.339844 179.285156 125.640625 177.257812 126.042969 175.246094 C 126.441406 173.234375 126.941406 171.246094 127.535156 169.285156 C 128.128906 167.320312 128.820312 165.394531 129.605469 163.5 C 130.390625 161.601562 131.265625 159.75 132.234375 157.941406 C 133.199219 156.132812 134.253906 154.375 135.394531 152.671875 C 136.53125 150.964844 137.753906 149.320312 139.054688 147.734375 C 140.355469 146.148438 141.730469 144.632812 143.179688 143.179688 C 144.632812 141.730469 146.148438 140.355469 147.734375 139.054688 C 149.320312 137.753906 150.964844 136.53125 152.671875 135.394531 C 154.375 134.253906 156.132812 133.199219 157.941406 132.234375 C 159.75 131.265625 161.601562 130.390625 163.5 129.605469 C 165.394531 128.820312 167.320312 128.128906 169.285156 127.535156 C 171.246094 126.941406 173.234375 126.441406 175.246094 126.042969 C 177.257812 125.640625 179.285156 125.339844 181.324219 125.140625 C 183.367188 124.9375 185.414062 124.839844 187.464844 124.839844 C 189.515625 124.839844 191.5625 124.9375 193.601562 125.140625 C 195.644531 125.339844 197.667969 125.640625 199.679688 126.042969 C 201.691406 126.441406 203.679688 126.941406 205.644531 127.535156 C 207.605469 128.128906 209.535156 128.820312 211.429688 129.605469 C 213.324219 130.390625 215.175781 131.265625 216.984375 132.234375 C 218.792969 133.199219 220.550781 134.253906 222.257812 135.394531 C 223.960938 136.53125 225.605469 137.753906 227.191406 139.054688 C 228.777344 140.355469 230.296875 141.730469 231.746094 143.179688 C 233.195312 144.632812 234.574219 146.148438 235.875 147.734375 C 237.175781 149.320312 238.394531 150.964844 239.535156 152.671875 C 240.675781 154.375 241.726562 156.132812 242.695312 157.941406 C 243.660156 159.75 244.535156 161.601562 245.320312 163.5 C 246.105469 165.394531 246.796875 167.320312 247.390625 169.285156 C 247.988281 171.246094 248.484375 173.234375 248.886719 175.246094 C 249.285156 177.257812 249.585938 179.285156 249.785156 181.324219 C 249.988281 183.367188 250.089844 185.414062 250.089844 187.464844 Z M 250.089844 187.464844" />
  </g>
  <path fill="#124584" d="M 230.363281 194.226562 C 229.109375 194.226562 228.167969 193.164062 228.167969 191.910156 L 228.167969 183.644531 C 228.167969 182.390625 229.109375 181.328125 230.363281 181.328125 C 231.613281 181.328125 232.554688 182.390625 232.554688 183.644531 L 232.554688 191.972656 C 232.554688 193.226562 231.613281 194.226562 230.363281 194.226562 Z M 230.363281 194.226562" />
  <path fill="#124584" d="M 150.203125 194.226562 C 148.949219 194.226562 148.011719 193.164062 148.011719 191.910156 L 148.011719 183.644531 C 148.011719 182.390625 148.949219 181.328125 150.203125 181.328125 C 151.453125 181.328125 152.394531 182.390625 152.394531 183.644531 L 152.394531 191.972656 C 152.394531 193.226562 151.453125 194.226562 150.203125 194.226562 Z M 150.203125 194.226562" />
  <path fill="#124584" d="M 167.738281 220.59375 C 166.421875 220.59375 165.542969 219.339844 165.542969 217.835938 L 165.542969 157.714844 C 165.542969 156.214844 166.421875 154.960938 167.738281 154.960938 C 169.050781 154.960938 169.929688 156.214844 169.929688 157.714844 L 169.929688 217.898438 C 169.929688 219.402344 168.988281 220.59375 167.738281 220.59375 Z M 167.738281 220.59375" />
  <path fill="#124584" d="M 158.34375 205.875 C 157.027344 205.875 156.152344 204.8125 156.152344 203.558594 L 156.152344 172.058594 C 156.152344 170.742188 157.027344 169.742188 158.34375 169.742188 C 159.65625 169.742188 160.535156 170.804688 160.535156 172.058594 L 160.535156 203.558594 C 160.535156 204.8125 159.59375 205.875 158.34375 205.875 Z M 158.34375 205.875" />
  <path fill="#124584" d="M 176.816406 205.875 C 175.503906 205.875 174.3125 204.8125 174.3125 203.558594 L 174.3125 172.058594 C 174.3125 170.742188 175.503906 169.742188 176.816406 169.742188 C 178.132812 169.742188 179.324219 170.804688 179.324219 172.058594 L 179.324219 203.558594 C 179.324219 204.8125 178.070312 205.875 176.816406 205.875 Z M 176.816406 205.875" />
  <path fill="#124584" d="M 194.351562 205.875 C 193.039062 205.875 191.847656 204.8125 191.847656 203.558594 L 191.847656 172.058594 C 191.847656 170.742188 193.039062 169.742188 194.351562 169.742188 C 195.667969 169.742188 196.855469 170.804688 196.855469 172.058594 L 196.855469 203.558594 C 196.855469 204.8125 195.605469 205.875 194.351562 205.875 Z M 194.351562 205.875" />
  <path fill="#124584" d="M 212.828125 205.875 C 211.511719 205.875 210.636719 204.8125 210.636719 203.558594 L 210.636719 172.058594 C 210.636719 170.742188 211.511719 169.742188 212.828125 169.742188 C 214.140625 169.742188 215.019531 170.804688 215.019531 172.058594 L 215.019531 203.558594 C 215.019531 204.8125 214.078125 205.875 212.828125 205.875 Z M 212.828125 205.875" />
  <path fill="#124584" d="M 203.746094 197.671875 C 202.429688 197.671875 201.242188 196.605469 201.242188 195.355469 L 201.242188 180.199219 C 201.242188 178.882812 202.429688 177.882812 203.746094 177.882812 C 205.0625 177.882812 206.25 178.945312 206.25 180.199219 L 206.25 195.355469 C 206.25 196.667969 205 197.671875 203.746094 197.671875 Z M 203.746094 197.671875" />
  <path fill="#124584" d="M 222.21875 197.609375 C 220.90625 197.609375 220.027344 196.542969 220.027344 195.292969 L 220.027344 180.074219 C 220.027344 178.757812 220.90625 177.757812 222.21875 177.757812 C 223.535156 177.757812 224.414062 178.820312 224.414062 180.074219 L 224.414062 195.230469 C 224.414062 196.542969 223.472656 197.609375 222.21875 197.609375 Z M 222.21875 197.609375" />
  <path fill="#124584" d="M 185.898438 197.671875 C 184.582031 197.671875 183.707031 196.605469 183.707031 195.355469 L 183.707031 180.199219 C 183.707031 178.882812 184.582031 177.882812 185.898438 177.882812 C 187.214844 177.882812 188.089844 178.945312 188.089844 180.199219 L 188.089844 195.355469 C 188.089844 196.667969 187.152344 197.671875 185.898438 197.671875 Z M 185.898438 197.671875" />
</svg>